NotoSansKhojki-Regular.ufo
<glyph name="uni0AE6" format="2">
  <advance width="551"/>
  <unicode hex="0AE6"/>
  <note>
uni0AE6
</note>
  <outline>
    <contour>
      <point x="403" y="258" type="curve" smooth="yes"/>
      <point x="403" y="179"/>
      <point x="350" y="122"/>
      <point x="273" y="122" type="curve" smooth="yes"/>
      <point x="197" y="122"/>
      <point x="147" y="176"/>
      <point x="147" y="254" type="curve" smooth="yes"/>
      <point x="147" y="332"/>
      <point x="201" y="388"/>
      <point x="277" y="388" type="curve" smooth="yes"/>
      <point x="354" y="388"/>
      <point x="403" y="336"/>
    </contour>
    <contour>
      <point x="485" y="255" type="curve" smooth="yes"/>
      <point x="485" y="377"/>
      <point x="401" y="463"/>
      <point x="275" y="463" type="curve" smooth="yes"/>
      <point x="152" y="463"/>
      <point x="65" y="375"/>
      <point x="65" y="256" type="curve" smooth="yes"/>
      <point x="65" y="134"/>
      <point x="151" y="48"/>
      <point x="276" y="48" type="curve" smooth="yes"/>
      <point x="395" y="48"/>
      <point x="485" y="133"/>
    </contour>
  </outline>
</glyph>
<glyph name="uni0AE7" format="2">
  <advance width="551"/>
  <unicode hex="0AE7"/>
  <note>
uni0AE7
</note>
  <outline>
    <contour>
      <point x="367" y="25" type="curve" smooth="yes"/>
      <point x="390" y="1"/>
      <point x="427" y="-12"/>
      <point x="484" y="-12" type="curve" smooth="yes"/>
      <point x="506" y="-12"/>
      <point x="513" y="6"/>
      <point x="513" y="24" type="curve" smooth="yes"/>
      <point x="513" y="43"/>
      <point x="505" y="61"/>
      <point x="488" y="61" type="curve" smooth="yes"/>
      <point x="461" y="61"/>
      <point x="442" y="61"/>
      <point x="428" y="80" type="curve" smooth="yes"/>
      <point x="420" y="91"/>
      <point x="416" y="104"/>
      <point x="416" y="140" type="curve" smooth="yes"/>
      <point x="416" y="350" type="line" smooth="yes"/>
      <point x="416" y="463"/>
      <point x="368" y="540"/>
      <point x="253" y="540" type="curve" smooth="yes"/>
      <point x="148" y="540"/>
      <point x="88" y="471"/>
      <point x="88" y="390" type="curve" smooth="yes"/>
      <point x="88" y="296"/>
      <point x="162" y="233"/>
      <point x="259" y="233" type="curve" smooth="yes"/>
      <point x="288" y="233"/>
      <point x="313" y="238"/>
      <point x="336" y="246" type="curve"/>
      <point x="336" y="136" type="line" smooth="yes"/>
      <point x="336" y="77"/>
      <point x="345" y="48"/>
    </contour>
    <contour>
      <point x="261" y="306" type="curve" smooth="yes"/>
      <point x="206" y="306"/>
      <point x="169" y="337"/>
      <point x="169" y="388" type="curve" smooth="yes"/>
      <point x="169" y="436"/>
      <point x="202" y="467"/>
      <point x="250" y="467" type="curve" smooth="yes"/>
      <point x="323" y="467"/>
      <point x="336" y="396"/>
      <point x="336" y="339" type="curve" smooth="yes"/>
      <point x="336" y="326" type="line"/>
      <point x="314" y="313"/>
      <point x="289" y="306"/>
    </contour>
  </outline>
</glyph>
<glyph name="uni0AE8" format="2">
  <advance width="514"/>
  <unicode hex="0AE8"/>
  <note>
uni0AE8
</note>
  <outline>
    <contour>
      <point x="232" y="192" type="line"/>
      <point x="350" y="216"/>
      <point x="400" y="301"/>
      <point x="400" y="378" type="curve" smooth="yes"/>
      <point x="400" y="495"/>
      <point x="325" y="558"/>
      <point x="193" y="558" type="curve" smooth="yes"/>
      <point x="114" y="558"/>
      <point x="20" y="525"/>
      <point x="20" y="486" type="curve" smooth="yes"/>
      <point x="20" y="468"/>
      <point x="39" y="439"/>
      <point x="61" y="439" type="curve" smooth="yes"/>
      <point x="92" y="439"/>
      <point x="130" y="479"/>
      <point x="224" y="479" type="curve" smooth="yes"/>
      <point x="290" y="479"/>
      <point x="324" y="444"/>
      <point x="324" y="391" type="curve" smooth="yes"/>
      <point x="324" y="326"/>
      <point x="270" y="271"/>
      <point x="187" y="269" type="curve"/>
      <point x="155" y="280"/>
      <point x="141" y="281"/>
      <point x="120" y="281" type="curve" smooth="yes"/>
      <point x="93" y="281"/>
      <point x="79" y="265"/>
      <point x="79" y="235" type="curve" smooth="yes"/>
      <point x="79" y="194"/>
      <point x="120" y="180"/>
      <point x="168" y="180" type="curve" smooth="yes"/>
      <point x="194" y="180"/>
      <point x="204" y="184"/>
      <point x="218" y="189" type="curve"/>
      <point x="173" y="204" type="line"/>
      <point x="207" y="180"/>
      <point x="215" y="157"/>
      <point x="226" y="86" type="curve" smooth="yes"/>
      <point x="240" y="-6"/>
      <point x="282" y="-47"/>
      <point x="378" y="-47" type="curve" smooth="yes"/>
      <point x="411" y="-47"/>
      <point x="445" y="-40"/>
      <point x="466" y="-29" type="curve" smooth="yes"/>
      <point x="472" y="-26"/>
      <point x="474" y="-18"/>
      <point x="474" y="-9" type="curve" smooth="yes"/>
      <point x="474" y="14"/>
      <point x="464" y="43"/>
      <point x="444" y="43" type="curve" smooth="yes"/>
      <point x="435" y="43"/>
      <point x="411" y="34"/>
      <point x="381" y="34" type="curve" smooth="yes"/>
      <point x="319" y="34"/>
      <point x="305" y="51"/>
      <point x="296" y="110" type="curve" smooth="yes"/>
      <point x="289" y="154"/>
      <point x="279" y="187"/>
      <point x="257" y="223" type="curve"/>
    </contour>
  </outline>
</glyph>
<glyph name="uni0AE9" format="2">
  <advance width="538"/>
  <unicode hex="0AE9"/>
  <note>
uni0AE9
</note>
  <outline>
    <contour>
      <point x="438" y="400" type="curve" smooth="yes"/>
      <point x="438" y="505"/>
      <point x="359" y="558"/>
      <point x="252" y="558" type="curve" smooth="yes"/>
      <point x="181" y="558"/>
      <point x="89" y="525"/>
      <point x="89" y="486" type="curve" smooth="yes"/>
      <point x="89" y="468"/>
      <point x="107" y="438"/>
      <point x="129" y="438" type="curve" smooth="yes"/>
      <point x="160" y="438"/>
      <point x="197" y="479"/>
      <point x="275" y="479" type="curve" smooth="yes"/>
      <point x="335" y="479"/>
      <point x="365" y="451"/>
      <point x="365" y="407" type="curve" smooth="yes"/>
      <point x="365" y="347"/>
      <point x="312" y="318"/>
      <point x="209" y="315" type="curve"/>
      <point x="195" y="312"/>
      <point x="189" y="298"/>
      <point x="189" y="283" type="curve" smooth="yes"/>
      <point x="189" y="263"/>
      <point x="202" y="238"/>
      <point x="232" y="238" type="curve" smooth="yes"/>
      <point x="276" y="238"/>
      <point x="330" y="251"/>
      <point x="351" y="266" type="curve"/>
      <point x="306" y="260" type="line"/>
      <point x="353" y="247"/>
      <point x="378" y="204"/>
      <point x="378" y="163" type="curve" smooth="yes"/>
      <point x="378" y="101"/>
      <point x="335" y="77"/>
      <point x="271" y="77" type="curve" smooth="yes"/>
      <point x="189" y="77"/>
      <point x="135" y="132"/>
      <point x="114" y="172" type="curve" smooth="yes"/>
      <point x="101" y="197"/>
      <point x="96" y="217"/>
      <point x="77" y="217" type="curve" smooth="yes"/>
      <point x="56" y="217"/>
      <point x="55" y="173"/>
      <point x="55" y="151" type="curve" smooth="yes"/>
      <point x="55" y="95"/>
      <point x="145" y="-3"/>
      <point x="272" y="-3" type="curve" smooth="yes"/>
      <point x="388" y="-3"/>
      <point x="458" y="55"/>
      <point x="458" y="151" type="curve" smooth="yes"/>
      <point x="458" y="220"/>
      <point x="415" y="276"/>
      <point x="357" y="300" type="curve"/>
      <point x="376" y="281" type="line"/>
      <point x="418" y="306"/>
      <point x="438" y="357"/>
    </contour>
  </outline>
</glyph>
<glyph name="uni0AEA" format="2">
  <advance width="551"/>
  <unicode hex="0AEA"/>
  <note>
uni0AEA
</note>
  <outline>
    <contour>
      <point x="486" y="505" type="curve" smooth="yes"/>
      <point x="486" y="529"/>
      <point x="465" y="545"/>
      <point x="446" y="545" type="curve" smooth="yes"/>
      <point x="436" y="545"/>
      <point x="426" y="541"/>
      <point x="418" y="533" type="curve" smooth="yes"/>
      <point x="356" y="475"/>
      <point x="317" y="431"/>
      <point x="274" y="382" type="curve"/>
      <point x="225" y="434"/>
      <point x="173" y="489"/>
      <point x="125" y="531" type="curve" smooth="yes"/>
      <point x="119" y="537"/>
      <point x="104" y="545"/>
      <point x="88" y="545" type="curve" smooth="yes"/>
      <point x="68" y="545"/>
      <point x="51" y="527"/>
      <point x="51" y="505" type="curve" smooth="yes"/>
      <point x="51" y="497"/>
      <point x="54" y="487"/>
      <point x="64" y="479" type="curve" smooth="yes"/>
      <point x="110" y="440"/>
      <point x="172" y="381"/>
      <point x="223" y="327" type="curve"/>
      <point x="219" y="323"/>
      <point x="216" y="320"/>
      <point x="213" y="317" type="curve" smooth="yes"/>
      <point x="140" y="242"/>
      <point x="113" y="191"/>
      <point x="113" y="125" type="curve" smooth="yes"/>
      <point x="113" y="64"/>
      <point x="160" y="-12"/>
      <point x="268" y="-12" type="curve" smooth="yes"/>
      <point x="381" y="-12"/>
      <point x="421" y="62"/>
      <point x="421" y="123" type="curve" smooth="yes"/>
      <point x="421" y="199"/>
      <point x="397" y="248"/>
      <point x="338" y="311" type="curve" smooth="yes"/>
      <point x="324" y="326" type="line"/>
      <point x="377" y="382"/>
      <point x="450" y="456"/>
      <point x="462" y="468" type="curve" smooth="yes"/>
      <point x="470" y="476"/>
      <point x="486" y="493"/>
    </contour>
    <contour>
      <point x="259" y="259" type="curve" smooth="yes"/>
      <point x="272" y="272" type="line"/>
      <point x="292" y="249" type="line" smooth="yes"/>
      <point x="327" y="209"/>
      <point x="341" y="161"/>
      <point x="341" y="129" type="curve" smooth="yes"/>
      <point x="341" y="91"/>
      <point x="317" y="60"/>
      <point x="267" y="60" type="curve" smooth="yes"/>
      <point x="219" y="60"/>
      <point x="192" y="87"/>
      <point x="192" y="131" type="curve" smooth="yes"/>
      <point x="192" y="173"/>
      <point x="209" y="209"/>
    </contour>
  </outline>
</glyph>
<glyph name="uni0AEB" format="2">
  <advance width="551"/>
  <unicode hex="0AEB"/>
  <note>
uni0AEB
</note>
  <outline>
    <contour>
      <point x="24" y="467" type="curve" smooth="yes"/>
      <point x="65" y="467"/>
      <point x="96" y="466"/>
      <point x="96" y="387" type="curve" smooth="yes"/>
      <point x="96" y="311" type="line" smooth="yes"/>
      <point x="96" y="189"/>
      <point x="149" y="131"/>
      <point x="248" y="131" type="curve" smooth="yes"/>
      <point x="298" y="131"/>
      <point x="335" y="144"/>
      <point x="367" y="165" type="curve"/>
      <point x="367" y="136" type="line" smooth="yes"/>
      <point x="367" y="23"/>
      <point x="411" y="-12"/>
      <point x="515" y="-12" type="curve" smooth="yes"/>
      <point x="537" y="-12"/>
      <point x="544" y="6"/>
      <point x="544" y="24" type="curve" smooth="yes"/>
      <point x="544" y="40"/>
      <point x="540" y="49"/>
      <point x="534" y="54" type="curve" smooth="yes"/>
      <point x="518" y="66"/>
      <point x="485" y="58"/>
      <point x="466" y="75" type="curve" smooth="yes"/>
      <point x="454" y="85"/>
      <point x="447" y="104"/>
      <point x="447" y="140" type="curve" smooth="yes"/>
      <point x="447" y="514" type="line" smooth="yes"/>
      <point x="447" y="528"/>
      <point x="425" y="540"/>
      <point x="402" y="540" type="curve" smooth="yes"/>
      <point x="386" y="540"/>
      <point x="367" y="532"/>
      <point x="367" y="514" type="curve" smooth="yes"/>
      <point x="367" y="253" type="line"/>
      <point x="340" y="224"/>
      <point x="301" y="203"/>
      <point x="260" y="203" type="curve" smooth="yes"/>
      <point x="209" y="203"/>
      <point x="176" y="215"/>
      <point x="176" y="315" type="curve" smooth="yes"/>
      <point x="176" y="390" type="line" smooth="yes"/>
      <point x="176" y="450"/>
      <point x="169" y="484"/>
      <point x="145" y="504" type="curve" smooth="yes"/>
      <point x="103" y="539"/>
      <point x="65" y="540"/>
      <point x="34" y="540" type="curve" smooth="yes"/>
      <point x="18" y="540"/>
      <point x="9" y="522"/>
      <point x="9" y="500" type="curve" smooth="yes"/>
      <point x="9" y="482"/>
      <point x="14" y="467"/>
    </contour>
  </outline>
</glyph>
<glyph name="uni0AEC" format="2">
  <advance width="551"/>
  <unicode hex="0AEC"/>
  <note>
uni0AEC
</note>
  <outline>
    <contour>
      <point x="310" y="0" type="curve" smooth="yes"/>
      <point x="388" y="-27"/>
      <point x="414" y="-36"/>
      <point x="414" y="-64" type="curve" smooth="yes"/>
      <point x="414" y="-79"/>
      <point x="407" y="-94"/>
      <point x="398" y="-104" type="curve" smooth="yes"/>
      <point x="394" y="-108"/>
      <point x="390" y="-114"/>
      <point x="390" y="-119" type="curve" smooth="yes"/>
      <point x="390" y="-142"/>
      <point x="419" y="-159"/>
      <point x="441" y="-159" type="curve" smooth="yes"/>
      <point x="448" y="-159"/>
      <point x="456" y="-156"/>
      <point x="461" y="-150" type="curve" smooth="yes"/>
      <point x="482" y="-125"/>
      <point x="498" y="-102"/>
      <point x="498" y="-64" type="curve" smooth="yes"/>
      <point x="498" y="-7"/>
      <point x="462" y="33"/>
      <point x="345" y="71" type="curve" smooth="yes"/>
      <point x="245" y="103"/>
      <point x="224" y="139"/>
      <point x="224" y="188" type="curve" smooth="yes"/>
      <point x="224" y="236"/>
      <point x="272" y="281"/>
      <point x="346" y="281" type="curve" smooth="yes"/>
      <point x="377" y="281"/>
      <point x="394" y="277"/>
      <point x="412" y="277" type="curve" smooth="yes"/>
      <point x="435" y="277"/>
      <point x="447" y="297"/>
      <point x="447" y="317" type="curve" smooth="yes"/>
      <point x="447" y="332"/>
      <point x="440" y="345"/>
      <point x="424" y="348" type="curve" smooth="yes"/>
      <point x="403" y="352"/>
      <point x="392" y="354"/>
      <point x="351" y="354" type="curve" smooth="yes"/>
      <point x="305" y="354"/>
      <point x="267" y="343"/>
      <point x="236" y="327" type="curve"/>
      <point x="220" y="345"/>
      <point x="214" y="366"/>
      <point x="214" y="388" type="curve" smooth="yes"/>
      <point x="214" y="431"/>
      <point x="243" y="466"/>
      <point x="332" y="466" type="curve" smooth="yes"/>
      <point x="370" y="466"/>
      <point x="386" y="463"/>
      <point x="411" y="457" type="curve"/>
      <point x="433" y="458"/>
      <point x="444" y="479"/>
      <point x="444" y="498" type="curve" smooth="yes"/>
      <point x="444" y="512"/>
      <point x="438" y="525"/>
      <point x="425" y="529" type="curve" smooth="yes"/>
      <point x="397" y="537"/>
      <point x="372" y="540"/>
      <point x="328" y="540" type="curve" smooth="yes"/>
      <point x="181" y="540"/>
      <point x="132" y="469"/>
      <point x="132" y="394" type="curve" smooth="yes"/>
      <point x="132" y="348"/>
      <point x="150" y="311"/>
      <point x="177" y="281" type="curve"/>
      <point x="154" y="252"/>
      <point x="142" y="220"/>
      <point x="142" y="191" type="curve" smooth="yes"/>
      <point x="142" y="103"/>
      <point x="178" y="46"/>
    </contour>
  </outline>
</glyph>
<glyph name="uni0AED" format="2">
  <advance width="551"/>
  <unicode hex="0AED"/>
  <note>
uni0AED
</note>
  <outline>
    <contour>
      <point x="426" y="224" type="curve"/>
      <point x="420" y="143"/>
      <point x="385" y="62"/>
      <point x="292" y="62" type="curve" smooth="yes"/>
      <point x="204" y="62"/>
      <point x="142" y="117"/>
      <point x="114" y="221" type="curve" smooth="yes"/>
      <point x="110" y="236"/>
      <point x="94" y="238"/>
      <point x="84" y="238" type="curve" smooth="yes"/>
      <point x="64" y="238"/>
      <point x="40" y="231"/>
      <point x="40" y="208" type="curve" smooth="yes"/>
      <point x="40" y="205"/>
      <point x="40" y="202"/>
      <point x="41" y="199" type="curve" smooth="yes"/>
      <point x="69" y="74"/>
      <point x="170" y="-11"/>
      <point x="295" y="-11" type="curve" smooth="yes"/>
      <point x="425" y="-11"/>
      <point x="511" y="84"/>
      <point x="511" y="254" type="curve" smooth="yes"/>
      <point x="511" y="434"/>
      <point x="418" y="540"/>
      <point x="292" y="540" type="curve" smooth="yes"/>
      <point x="178" y="540"/>
      <point x="124" y="482"/>
      <point x="124" y="401" type="curve" smooth="yes"/>
      <point x="124" y="286"/>
      <point x="212" y="223"/>
      <point x="394" y="223" type="curve" smooth="yes"/>
      <point x="404" y="223"/>
      <point x="415" y="223"/>
    </contour>
    <contour>
      <point x="424" y="295" type="curve"/>
      <point x="412" y="295" type="line" smooth="yes"/>
      <point x="278" y="295"/>
      <point x="207" y="317"/>
      <point x="207" y="398" type="curve" smooth="yes"/>
      <point x="207" y="446"/>
      <point x="238" y="467"/>
      <point x="290" y="467" type="curve" smooth="yes"/>
      <point x="370" y="467"/>
      <point x="413" y="382"/>
    </contour>
  </outline>
</glyph>
<glyph name="uni0AEE" format="2">
  <advance width="551"/>
  <unicode hex="0AEE"/>
  <note>
uni0AEE
</note>
  <outline>
    <contour>
      <point x="466" y="35" type="curve" smooth="yes"/>
      <point x="476" y="41"/>
      <point x="481" y="50"/>
      <point x="481" y="61" type="curve" smooth="yes"/>
      <point x="481" y="84"/>
      <point x="466" y="108"/>
      <point x="443" y="108" type="curve" smooth="yes"/>
      <point x="437" y="108"/>
      <point x="430" y="106"/>
      <point x="423" y="102" type="curve" smooth="yes"/>
      <point x="388" y="83"/>
      <point x="345" y="61"/>
      <point x="272" y="61" type="curve" smooth="yes"/>
      <point x="205" y="61"/>
      <point x="154" y="96"/>
      <point x="154" y="160" type="curve" smooth="yes"/>
      <point x="154" y="212"/>
      <point x="180" y="251"/>
      <point x="269" y="337" type="curve" smooth="yes"/>
      <point x="396" y="461" type="line" smooth="yes"/>
      <point x="408" y="472"/>
      <point x="416" y="484"/>
      <point x="416" y="496" type="curve" smooth="yes"/>
      <point x="416" y="520"/>
      <point x="395" y="540"/>
      <point x="371" y="540" type="curve" smooth="yes"/>
      <point x="359" y="540"/>
      <point x="347" y="532"/>
      <point x="334" y="518" type="curve" smooth="yes"/>
      <point x="179" y="362" type="line" smooth="yes"/>
      <point x="93" y="275"/>
      <point x="72" y="228"/>
      <point x="72" y="162" type="curve" smooth="yes"/>
      <point x="72" y="51"/>
      <point x="165" y="-12"/>
      <point x="268" y="-12" type="curve" smooth="yes"/>
      <point x="358" y="-12"/>
      <point x="412" y="4"/>
    </contour>
  </outline>
</glyph>
<glyph name="uni0AEF" format="2">
  <advance width="551"/>
  <unicode hex="0AEF"/>
  <note>
uni0AEF
</note>
  <outline>
    <contour>
      <point x="466" y="81" type="curve" smooth="yes"/>
      <point x="447" y="72"/>
      <point x="393" y="63"/>
      <point x="343" y="63" type="curve" smooth="yes"/>
      <point x="225" y="63"/>
      <point x="132" y="117"/>
      <point x="132" y="234" type="curve" smooth="yes"/>
      <point x="132" y="344"/>
      <point x="185" y="406"/>
      <point x="341" y="461" type="curve" smooth="yes"/>
      <point x="363" y="469"/>
      <point x="372" y="485"/>
      <point x="372" y="500" type="curve" smooth="yes"/>
      <point x="372" y="520"/>
      <point x="357" y="540"/>
      <point x="339" y="540" type="curve" smooth="yes"/>
      <point x="334" y="540"/>
      <point x="308" y="533"/>
      <point x="302" y="531" type="curve" smooth="yes"/>
      <point x="154" y="480"/>
      <point x="48" y="390"/>
      <point x="48" y="243" type="curve" smooth="yes"/>
      <point x="48" y="96"/>
      <point x="157" y="-12"/>
      <point x="346" y="-12" type="curve" smooth="yes"/>
      <point x="409" y="-12"/>
      <point x="461" y="0"/>
      <point x="494" y="9" type="curve" smooth="yes"/>
      <point x="507" y="13"/>
      <point x="517" y="23"/>
      <point x="517" y="43" type="curve" smooth="yes"/>
      <point x="517" y="65"/>
      <point x="506" y="85"/>
      <point x="487" y="85" type="curve" smooth="yes"/>
      <point x="482" y="85"/>
      <point x="472" y="84"/>
    </contour>
    <contour>
      <point x="378" y="309" type="curve" smooth="yes"/>
      <point x="219" y="273" type="line" smooth="yes"/>
      <point x="206" y="270"/>
      <point x="199" y="255"/>
      <point x="199" y="240" type="curve" smooth="yes"/>
      <point x="199" y="220"/>
      <point x="211" y="197"/>
      <point x="233" y="197" type="curve" smooth="yes"/>
      <point x="236" y="197"/>
      <point x="239" y="197"/>
      <point x="242" y="198" type="curve" smooth="yes"/>
      <point x="419" y="240" type="line" smooth="yes"/>
      <point x="438" y="244"/>
      <point x="440" y="261"/>
      <point x="440" y="278" type="curve" smooth="yes"/>
      <point x="440" y="296"/>
      <point x="430" y="314"/>
      <point x="411" y="314" type="curve" smooth="yes"/>
      <point x="403" y="314"/>
      <point x="392" y="312"/>
    </contour>
  </outline>
</glyph>
<glyph name="uniA830" format="2">
  <advance width="237"/>
  <unicode hex="A830"/>
  <note>
uniA830
</note>
  <outline>
    <contour>
      <point x="159" y="18" type="curve" smooth="yes"/>
      <point x="159" y="577" type="line" smooth="yes"/>
      <point x="159" y="594"/>
      <point x="138" y="605"/>
      <point x="118" y="605" type="curve" smooth="yes"/>
      <point x="98" y="605"/>
      <point x="78" y="594"/>
      <point x="78" y="577" type="curve" smooth="yes"/>
      <point x="78" y="18" type="line" smooth="yes"/>
      <point x="78" y="1"/>
      <point x="98" y="-10"/>
      <point x="118" y="-10" type="curve" smooth="yes"/>
      <point x="138" y="-10"/>
      <point x="159" y="1"/>
    </contour>
  </outline>
</glyph>
<glyph name="uniA832" format="2">
  <advance width="637"/>
  <unicode hex="A832"/>
  <note>
uniA832
</note>
  <outline>
    <contour>
      <point x="159" y="18" type="curve" smooth="yes"/>
      <point x="159" y="577" type="line" smooth="yes"/>
      <point x="159" y="594"/>
      <point x="138" y="605"/>
      <point x="118" y="605" type="curve" smooth="yes"/>
      <point x="98" y="605"/>
      <point x="78" y="594"/>
      <point x="78" y="577" type="curve" smooth="yes"/>
      <point x="78" y="18" type="line" smooth="yes"/>
      <point x="78" y="1"/>
      <point x="98" y="-10"/>
      <point x="118" y="-10" type="curve" smooth="yes"/>
      <point x="138" y="-10"/>
      <point x="159" y="1"/>
    </contour>
    <contour>
      <point x="359" y="18" type="curve" smooth="yes"/>
      <point x="359" y="577" type="line" smooth="yes"/>
      <point x="359" y="594"/>
      <point x="338" y="605"/>
      <point x="318" y="605" type="curve" smooth="yes"/>
      <point x="298" y="605"/>
      <point x="278" y="594"/>
      <point x="278" y="577" type="curve" smooth="yes"/>
      <point x="278" y="18" type="line" smooth="yes"/>
      <point x="278" y="1"/>
      <point x="298" y="-10"/>
      <point x="318" y="-10" type="curve" smooth="yes"/>
      <point x="338" y="-10"/>
      <point x="359" y="1"/>
    </contour>
    <contour>
      <point x="559" y="18" type="curve" smooth="yes"/>
      <point x="559" y="577" type="line" smooth="yes"/>
      <point x="559" y="594"/>
      <point x="538" y="605"/>
      <point x="518" y="605" type="curve" smooth="yes"/>
      <point x="498" y="605"/>
      <point x="478" y="594"/>
      <point x="478" y="577" type="curve" smooth="yes"/>
      <point x="478" y="18" type="line" smooth="yes"/>
      <point x="478" y="1"/>
      <point x="498" y="-10"/>
      <point x="518" y="-10" type="curve" smooth="yes"/>
      <point x="538" y="-10"/>
      <point x="559" y="1"/>
    </contour>
  </outline>
</glyph>
<glyph name="uniA833" format="2">
  <advance width="622"/>
  <unicode hex="A833"/>
  <note>
uniA833
</note>
  <outline>
    <contour>
      <point x="82" y="400" type="curve" smooth="yes"/>
      <point x="565" y="523" type="line" smooth="yes"/>
      <point x="578" y="526"/>
      <point x="584" y="544"/>
      <point x="584" y="559" type="curve" smooth="yes"/>
      <point x="584" y="580"/>
      <point x="569" y="605"/>
      <point x="550" y="605" type="curve" smooth="yes"/>
      <point x="548" y="605"/>
      <point x="544" y="604"/>
      <point x="540" y="603" type="curve" smooth="yes"/>
      <point x="57" y="480" type="line" smooth="yes"/>
      <point x="45" y="477"/>
      <point x="38" y="463"/>
      <point x="38" y="448" type="curve" smooth="yes"/>
      <point x="38" y="427"/>
      <point x="53" y="398"/>
      <point x="72" y="398" type="curve" smooth="yes"/>
      <point x="74" y="398"/>
      <point x="78" y="399"/>
    </contour>
  </outline>
</glyph>
<glyph name="uniA834" format="2">
  <advance width="622"/>
  <unicode hex="A834"/>
  <note>
uniA834
</note>
  <outline>
    <contour>
      <point x="82" y="400" type="curve" smooth="yes"/>
      <point x="565" y="523" type="line" smooth="yes"/>
      <point x="578" y="526"/>
      <point x="584" y="544"/>
      <point x="584" y="559" type="curve" smooth="yes"/>
      <point x="584" y="580"/>
      <point x="569" y="605"/>
      <point x="550" y="605" type="curve" smooth="yes"/>
      <point x="548" y="605"/>
      <point x="544" y="604"/>
      <point x="540" y="603" type="curve" smooth="yes"/>
      <point x="57" y="480" type="line" smooth="yes"/>
      <point x="45" y="477"/>
      <point x="38" y="463"/>
      <point x="38" y="448" type="curve" smooth="yes"/>
      <point x="38" y="427"/>
      <point x="53" y="398"/>
      <point x="72" y="398" type="curve" smooth="yes"/>
      <point x="74" y="398"/>
      <point x="78" y="399"/>
    </contour>
    <contour>
      <point x="82" y="210" type="curve" smooth="yes"/>
      <point x="565" y="333" type="line" smooth="yes"/>
      <point x="578" y="336"/>
      <point x="584" y="354"/>
      <point x="584" y="369" type="curve" smooth="yes"/>
      <point x="584" y="390"/>
      <point x="569" y="415"/>
      <point x="550" y="415" type="curve" smooth="yes"/>
      <point x="548" y="415"/>
      <point x="544" y="414"/>
      <point x="540" y="413" type="curve" smooth="yes"/>
      <point x="57" y="290" type="line" smooth="yes"/>
      <point x="45" y="287"/>
      <point x="38" y="273"/>
      <point x="38" y="258" type="curve" smooth="yes"/>
      <point x="38" y="237"/>
      <point x="53" y="208"/>
      <point x="72" y="208" type="curve" smooth="yes"/>
      <point x="74" y="208"/>
      <point x="78" y="209"/>
    </contour>
  </outline>
</glyph>
<glyph name="uniA835" format="2">
  <advance width="622"/>
  <unicode hex="A835"/>
  <note>
uniA835
</note>
  <outline>
    <contour>
      <point x="82" y="400" type="curve" smooth="yes"/>
      <point x="565" y="523" type="line" smooth="yes"/>
      <point x="578" y="526"/>
      <point x="584" y="544"/>
      <point x="584" y="559" type="curve" smooth="yes"/>
      <point x="584" y="580"/>
      <point x="569" y="605"/>
      <point x="550" y="605" type="curve" smooth="yes"/>
      <point x="548" y="605"/>
      <point x="544" y="604"/>
      <point x="540" y="603" type="curve" smooth="yes"/>
      <point x="57" y="480" type="line" smooth="yes"/>
      <point x="45" y="477"/>
      <point x="38" y="463"/>
      <point x="38" y="448" type="curve" smooth="yes"/>
      <point x="38" y="427"/>
      <point x="53" y="398"/>
      <point x="72" y="398" type="curve" smooth="yes"/>
      <point x="74" y="398"/>
      <point x="78" y="399"/>
    </contour>
    <contour>
      <point x="82" y="0" type="curve" smooth="yes"/>
      <point x="565" y="123" type="line" smooth="yes"/>
      <point x="578" y="126"/>
      <point x="584" y="144"/>
      <point x="584" y="159" type="curve" smooth="yes"/>
      <point x="584" y="180"/>
      <point x="569" y="205"/>
      <point x="550" y="205" type="curve" smooth="yes"/>
      <point x="548" y="205"/>
      <point x="544" y="204"/>
      <point x="540" y="203" type="curve" smooth="yes"/>
      <point x="57" y="80" type="line" smooth="yes"/>
      <point x="45" y="77"/>
      <point x="38" y="63"/>
      <point x="38" y="48" type="curve" smooth="yes"/>
      <point x="38" y="27"/>
      <point x="53" y="-2"/>
      <point x="72" y="-2" type="curve" smooth="yes"/>
      <point x="74" y="-2"/>
      <point x="78" y="-1"/>
    </contour>
    <contour>
      <point x="82" y="200" type="curve" smooth="yes"/>
      <point x="565" y="323" type="line" smooth="yes"/>
      <point x="578" y="326"/>
      <point x="584" y="344"/>
      <point x="584" y="359" type="curve" smooth="yes"/>
      <point x="584" y="380"/>
      <point x="569" y="405"/>
      <point x="550" y="405" type="curve" smooth="yes"/>
      <point x="548" y="405"/>
      <point x="544" y="404"/>
      <point x="540" y="403" type="curve" smooth="yes"/>
      <point x="57" y="280" type="line" smooth="yes"/>
      <point x="45" y="277"/>
      <point x="38" y="263"/>
      <point x="38" y="248" type="curve" smooth="yes"/>
      <point x="38" y="227"/>
      <point x="53" y="198"/>
      <point x="72" y="198" type="curve" smooth="yes"/>
      <point x="74" y="198"/>
      <point x="78" y="199"/>
    </contour>
  </outline>
</glyph>
<glyph name="uniA836" format="2">
  <advance width="460"/>
  <unicode hex="A836"/>
  <note>
uniA836
</note>
  <outline>
    <contour>
      <point x="230" y="167" type="curve" smooth="yes"/>
      <point x="327" y="167"/>
      <point x="393" y="232"/>
      <point x="393" y="321" type="curve" smooth="yes"/>
      <point x="393" y="408"/>
      <point x="328" y="473"/>
      <point x="230" y="473" type="curve" smooth="yes"/>
      <point x="133" y="473"/>
      <point x="67" y="406"/>
      <point x="67" y="321" type="curve" smooth="yes"/>
      <point x="67" y="229"/>
      <point x="135" y="167"/>
    </contour>
    <contour>
      <point x="230" y="404" type="curve" smooth="yes"/>
      <point x="282" y="404"/>
      <point x="317" y="369"/>
      <point x="317" y="321" type="curve" smooth="yes"/>
      <point x="317" y="269"/>
      <point x="283" y="237"/>
      <point x="230" y="237" type="curve" smooth="yes"/>
      <point x="177" y="237"/>
      <point x="143" y="269"/>
      <point x="143" y="321" type="curve" smooth="yes"/>
      <point x="143" y="369"/>
      <point x="175" y="404"/>
    </contour>
  </outline>
</glyph>
<glyph name="uniA837" format="2">
  <advance width="509"/>
  <unicode hex="A837"/>
  <note>
uniA837
</note>
  <outline>
    <contour>
      <point x="262" y="387" type="curve"/>
      <point x="317" y="424"/>
      <point x="391" y="480"/>
      <point x="433" y="513" type="curve" smooth="yes"/>
      <point x="468" y="541" type="line" smooth="yes"/>
      <point x="476" y="547"/>
      <point x="480" y="556"/>
      <point x="480" y="564" type="curve" smooth="yes"/>
      <point x="480" y="584"/>
      <point x="460" y="605"/>
      <point x="439" y="605" type="curve" smooth="yes"/>
      <point x="433" y="605"/>
      <point x="427" y="603"/>
      <point x="420" y="598" type="curve" smooth="yes"/>
      <point x="158" y="395" type="line" smooth="yes"/>
      <point x="86" y="339"/>
      <point x="57" y="301"/>
      <point x="57" y="240" type="curve" smooth="yes"/>
      <point x="57" y="151"/>
      <point x="124" y="86"/>
      <point x="221" y="86" type="curve" smooth="yes"/>
      <point x="317" y="86"/>
      <point x="383" y="152"/>
      <point x="383" y="240" type="curve" smooth="yes"/>
      <point x="383" y="315"/>
      <point x="338" y="371"/>
    </contour>
    <contour>
      <point x="220" y="323" type="curve" smooth="yes"/>
      <point x="272" y="323"/>
      <point x="307" y="288"/>
      <point x="307" y="240" type="curve" smooth="yes"/>
      <point x="307" y="189"/>
      <point x="273" y="156"/>
      <point x="220" y="156" type="curve" smooth="yes"/>
      <point x="167" y="156"/>
      <point x="133" y="189"/>
      <point x="133" y="240" type="curve" smooth="yes"/>
      <point x="133" y="289"/>
      <point x="167" y="323"/>
    </contour>
  </outline>
</glyph>
<glyph name="uniA838" format="2">
  <advance width="307"/>
  <unicode hex="A838"/>
  <note>
uniA838
</note>
  <outline>
    <contour>
      <point x="-137" y="-181" type="curve" smooth="yes"/>
      <point x="-110" y="-186"/>
      <point x="-84" y="-188"/>
      <point x="-61" y="-188" type="curve" smooth="yes"/>
      <point x="147" y="-188"/>
      <point x="246" y="-91"/>
      <point x="246" y="177" type="curve" smooth="yes"/>
      <point x="246" y="242"/>
      <point x="240" y="317"/>
      <point x="229" y="400" type="curve" smooth="yes"/>
      <point x="221" y="461"/>
      <point x="211" y="518"/>
      <point x="195" y="572" type="curve" smooth="yes"/>
      <point x="188" y="597"/>
      <point x="174" y="605"/>
      <point x="152" y="605" type="curve" smooth="yes"/>
      <point x="127" y="605"/>
      <point x="113" y="591"/>
      <point x="113" y="572" type="curve" smooth="yes"/>
      <point x="113" y="566"/>
      <point x="115" y="557"/>
      <point x="117" y="551" type="curve" smooth="yes"/>
      <point x="143" y="463"/>
      <point x="164" y="289"/>
      <point x="164" y="180" type="curve" smooth="yes"/>
      <point x="164" y="-38"/>
      <point x="98" y="-115"/>
      <point x="-63" y="-115" type="curve" smooth="yes"/>
      <point x="-92" y="-115"/>
      <point x="-128" y="-106"/>
      <point x="-139" y="-106" type="curve" smooth="yes"/>
      <point x="-153" y="-106"/>
      <point x="-162" y="-126"/>
      <point x="-162" y="-145" type="curve" smooth="yes"/>
      <point x="-162" y="-162"/>
      <point x="-155" y="-178"/>
    </contour>
  </outline>
</glyph>
<glyph name="uniA839" format="2">
  <advance width="337"/>
  <unicode hex="A839"/>
  <note>
uniA839
</note>
  <outline>
    <contour>
      <point x="-136" y="-239" type="curve" smooth="yes"/>
      <point x="-124" y="-240"/>
      <point x="-112" y="-240"/>
      <point x="-100" y="-240" type="curve" smooth="yes"/>
      <point x="136" y="-240"/>
      <point x="255" y="-143"/>
      <point x="255" y="28" type="curve" smooth="yes"/>
      <point x="255" y="100"/>
      <point x="234" y="170"/>
      <point x="200" y="245" type="curve" smooth="yes"/>
      <point x="175" y="301"/>
      <point x="146" y="367"/>
      <point x="146" y="418" type="curve" smooth="yes"/>
      <point x="146" y="474"/>
      <point x="185" y="512"/>
      <point x="252" y="533" type="curve" smooth="yes"/>
      <point x="263" y="537"/>
      <point x="268" y="547"/>
      <point x="268" y="557" type="curve" smooth="yes"/>
      <point x="268" y="578"/>
      <point x="249" y="605"/>
      <point x="231" y="605" type="curve" smooth="yes"/>
      <point x="223" y="605"/>
      <point x="212" y="601"/>
      <point x="200" y="595" type="curve" smooth="yes"/>
      <point x="125" y="558"/>
      <point x="65" y="509"/>
      <point x="65" y="418" type="curve" smooth="yes"/>
      <point x="65" y="359"/>
      <point x="83" y="305"/>
      <point x="119" y="225" type="curve" smooth="yes"/>
      <point x="152" y="152"/>
      <point x="174" y="91"/>
      <point x="174" y="27" type="curve" smooth="yes"/>
      <point x="174" y="-101"/>
      <point x="80" y="-165"/>
      <point x="-104" y="-165" type="curve" smooth="yes"/>
      <point x="-115" y="-165"/>
      <point x="-128" y="-164"/>
      <point x="-133" y="-164" type="curve" smooth="yes"/>
      <point x="-150" y="-164"/>
      <point x="-159" y="-181"/>
      <point x="-159" y="-201" type="curve" smooth="yes"/>
      <point x="-159" y="-221"/>
      <point x="-151" y="-238"/>
    </contour>
  </outline>
</glyph>
<glyph name="kj_A" format="2">
  <advance width="918"/>
  <unicode hex="11200"/>
  <note>
kj_A
</note>
  <outline>
    <contour>
      <point x="713" y="103" type="curve" smooth="yes"/>
      <point x="713" y="79"/>
      <point x="740" y="64"/>
      <point x="764" y="64" type="curve" smooth="yes"/>
      <point x="780" y="64"/>
      <point x="798" y="67"/>
      <point x="806" y="87" type="curve" smooth="yes"/>
      <point x="823" y="132"/>
      <point x="849" y="226"/>
      <point x="849" y="312" type="curve" smooth="yes"/>
      <point x="849" y="406"/>
      <point x="818" y="496"/>
      <point x="708" y="496" type="curve" smooth="yes"/>
      <point x="638" y="496"/>
      <point x="573" y="446"/>
      <point x="538" y="398" type="curve"/>
      <point x="557" y="390" type="line"/>
      <point x="550" y="446"/>
      <point x="500" y="478"/>
      <point x="437" y="478" type="curve" smooth="yes"/>
      <point x="402" y="478"/>
      <point x="369" y="472"/>
      <point x="333" y="465" type="curve" smooth="yes"/>
      <point x="293" y="457"/>
      <point x="249" y="449"/>
      <point x="196" y="449" type="curve" smooth="yes"/>
      <point x="115" y="449"/>
      <point x="83" y="458"/>
      <point x="75" y="496" type="curve" smooth="yes"/>
      <point x="71" y="516"/>
      <point x="69" y="537"/>
      <point x="46" y="537" type="curve" smooth="yes"/>
      <point x="26" y="537"/>
      <point x="0" y="522"/>
      <point x="0" y="493" type="curve" smooth="yes"/>
      <point x="0" y="408"/>
      <point x="67" y="366"/>
      <point x="180" y="366" type="curve" smooth="yes"/>
      <point x="251" y="366"/>
      <point x="295" y="374"/>
      <point x="338" y="383" type="curve" smooth="yes"/>
      <point x="371" y="390"/>
      <point x="397" y="395"/>
      <point x="431" y="395" type="curve" smooth="yes"/>
      <point x="473" y="395"/>
      <point x="487" y="381"/>
      <point x="487" y="362" type="curve" smooth="yes"/>
      <point x="487" y="344"/>
      <point x="474" y="322"/>
      <point x="448" y="295" type="curve" smooth="yes"/>
      <point x="446" y="293"/>
      <point x="445" y="290"/>
      <point x="445" y="287" type="curve" smooth="yes"/>
      <point x="445" y="272"/>
      <point x="480" y="250"/>
      <point x="507" y="250" type="curve" smooth="yes"/>
      <point x="517" y="250"/>
      <point x="527" y="253"/>
      <point x="532" y="260" type="curve" smooth="yes"/>
      <point x="589" y="339"/>
      <point x="652" y="409"/>
      <point x="713" y="409" type="curve" smooth="yes"/>
      <point x="748" y="409"/>
      <point x="762" y="384"/>
      <point x="762" y="328" type="curve" smooth="yes"/>
      <point x="762" y="213"/>
      <point x="713" y="124"/>
    </contour>
  </outline>
</glyph>
<glyph name="kj_AA" format="2">
  <advance width="1128"/>
  <unicode hex="11201"/>
  <note>
kj_AA
</note>
  <outline>
    <contour>
      <point x="713" y="103" type="curve" smooth="yes"/>
      <point x="713" y="79"/>
      <point x="740" y="64"/>
      <point x="764" y="64" type="curve" smooth="yes"/>
      <point x="780" y="64"/>
      <point x="798" y="67"/>
      <point x="806" y="87" type="curve" smooth="yes"/>
      <point x="823" y="132"/>
      <point x="849" y="226"/>
      <point x="849" y="312" type="curve" smooth="yes"/>
      <point x="849" y="406"/>
      <point x="818" y="496"/>
      <point x="708" y="496" type="curve" smooth="yes"/>
      <point x="638" y="496"/>
      <point x="573" y="446"/>
      <point x="538" y="398" type="curve"/>
      <point x="557" y="390" type="line"/>
      <point x="550" y="446"/>
      <point x="500" y="478"/>
      <point x="437" y="478" type="curve" smooth="yes"/>
      <point x="402" y="478"/>
      <point x="369" y="472"/>
      <point x="333" y="465" type="curve" smooth="yes"/>
      <point x="293" y="457"/>
      <point x="249" y="449"/>
      <point x="196" y="449" type="curve" smooth="yes"/>
      <point x="115" y="449"/>
      <point x="83" y="458"/>
      <point x="75" y="496" type="curve" smooth="yes"/>
      <point x="71" y="516"/>
      <point x="69" y="537"/>
      <point x="46" y="537" type="curve" smooth="yes"/>
      <point x="26" y="537"/>
      <point x="0" y="522"/>
      <point x="0" y="493" type="curve" smooth="yes"/>
      <point x="0" y="408"/>
      <point x="67" y="366"/>
      <point x="180" y="366" type="curve" smooth="yes"/>
      <point x="251" y="366"/>
      <point x="295" y="374"/>
      <point x="338" y="383" type="curve" smooth="yes"/>
      <point x="371" y="390"/>
      <point x="397" y="395"/>
      <point x="431" y="395" type="curve" smooth="yes"/>
      <point x="473" y="395"/>
      <point x="487" y="381"/>
      <point x="487" y="362" type="curve" smooth="yes"/>
      <point x="487" y="344"/>
      <point x="474" y="322"/>
      <point x="448" y="295" type="curve" smooth="yes"/>
      <point x="446" y="293"/>
      <point x="445" y="290"/>
      <point x="445" y="287" type="curve" smooth="yes"/>
      <point x="445" y="272"/>
      <point x="480" y="250"/>
      <point x="507" y="250" type="curve" smooth="yes"/>
      <point x="517" y="250"/>
      <point x="527" y="253"/>
      <point x="532" y="260" type="curve" smooth="yes"/>
      <point x="589" y="339"/>
      <point x="652" y="409"/>
      <point x="713" y="409" type="curve" smooth="yes"/>
      <point x="748" y="409"/>
      <point x="762" y="384"/>
      <point x="762" y="328" type="curve" smooth="yes"/>
      <point x="762" y="213"/>
      <point x="713" y="124"/>
    </contour>
    <contour>
      <point x="918" y="33" type="curve" smooth="yes"/>
      <point x="918" y="9"/>
      <point x="945" y="-6"/>
      <point x="969" y="-6" type="curve" smooth="yes"/>
      <point x="985" y="-6"/>
      <point x="1003" y="-3"/>
      <point x="1011" y="17" type="curve" smooth="yes"/>
      <point x="1042" y="100"/>
      <point x="1058" y="205"/>
      <point x="1058" y="326" type="curve" smooth="yes"/>
      <point x="1058" y="405"/>
      <point x="1045" y="473"/>
      <point x="1030" y="514" type="curve" smooth="yes"/>
      <point x="1020" y="542"/>
      <point x="1010" y="556"/>
      <point x="984" y="556" type="curve" smooth="yes"/>
      <point x="962" y="556"/>
      <point x="935" y="539"/>
      <point x="935" y="510" type="curve" smooth="yes"/>
      <point x="935" y="483"/>
      <point x="971" y="425"/>
      <point x="971" y="321" type="curve" smooth="yes"/>
      <point x="971" y="133"/>
      <point x="918" y="59"/>
    </contour>
  </outline>
</glyph>
<glyph name="kj_I" format="2">
  <advance width="755"/>
  <unicode hex="11202"/>
  <note>
kj_I
</note>
  <outline>
    <contour>
      <point x="687" y="499" type="curve" smooth="yes"/>
      <point x="687" y="609"/>
      <point x="644" y="720"/>
      <point x="520" y="720" type="curve" smooth="yes"/>
      <point x="457" y="720"/>
      <point x="403" y="681"/>
      <point x="403" y="649" type="curve" smooth="yes"/>
      <point x="403" y="630"/>
      <point x="434" y="611"/>
      <point x="460" y="611" type="curve" smooth="yes"/>
      <point x="468" y="611"/>
      <point x="476" y="613"/>
      <point x="481" y="617" type="curve" smooth="yes"/>
      <point x="498" y="631"/>
      <point x="510" y="640"/>
      <point x="531" y="640" type="curve" smooth="yes"/>
      <point x="574" y="640"/>
      <point x="608" y="608"/>
      <point x="608" y="511" type="curve" smooth="yes"/>
      <point x="608" y="438"/>
      <point x="594" y="372"/>
      <point x="578" y="303" type="curve" smooth="yes"/>
      <point x="560" y="223"/>
      <point x="545" y="149"/>
      <point x="545" y="51" type="curve" smooth="yes"/>
      <point x="545" y="-82"/>
      <point x="609" y="-152"/>
      <point x="696" y="-152" type="curve" smooth="yes"/>
      <point x="719" y="-152"/>
      <point x="741" y="-150"/>
      <point x="762" y="-139" type="curve" smooth="yes"/>
      <point x="768" y="-136"/>
      <point x="770" y="-128"/>
      <point x="770" y="-119" type="curve" smooth="yes"/>
      <point x="770" y="-96"/>
      <point x="760" y="-67"/>
      <point x="740" y="-67" type="curve" smooth="yes"/>
      <point x="731" y="-67"/>
      <point x="711" y="-72"/>
      <point x="699" y="-72" type="curve" smooth="yes"/>
      <point x="652" y="-72"/>
      <point x="622" y="-44"/>
      <point x="622" y="52" type="curve" smooth="yes"/>
      <point x="622" y="124"/>
      <point x="637" y="196"/>
      <point x="654" y="272" type="curve" smooth="yes"/>
      <point x="671" y="347"/>
      <point x="687" y="423"/>
    </contour>
    <contour>
      <point x="35" y="482" type="curve" smooth="yes"/>
      <point x="35" y="444"/>
      <point x="67" y="413"/>
      <point x="108" y="413" type="curve" smooth="yes"/>
      <point x="149" y="413"/>
      <point x="182" y="444"/>
      <point x="182" y="482" type="curve" smooth="yes"/>
      <point x="182" y="520"/>
      <point x="149" y="552"/>
      <point x="108" y="552" type="curve" smooth="yes"/>
      <point x="67" y="552"/>
      <point x="35" y="520"/>
    </contour>
    <contour>
      <point x="295" y="482" type="curve" smooth="yes"/>
      <point x="295" y="444"/>
      <point x="327" y="413"/>
      <point x="368" y="413" type="curve" smooth="yes"/>
      <point x="409" y="413"/>
      <point x="442" y="444"/>
      <point x="442" y="482" type="curve" smooth="yes"/>
      <point x="442" y="520"/>
      <point x="409" y="552"/>
      <point x="368" y="552" type="curve" smooth="yes"/>
      <point x="327" y="552"/>
      <point x="295" y="520"/>
    </contour>
    <contour>
      <point x="289" y="299" type="curve"/>
      <point x="274" y="289"/>
      <point x="267" y="275"/>
      <point x="267" y="255" type="curve" smooth="yes"/>
      <point x="267" y="239"/>
      <point x="273" y="220"/>
      <point x="283" y="215" type="curve"/>
      <point x="366" y="200"/>
      <point x="398" y="176"/>
      <point x="398" y="146" type="curve" smooth="yes"/>
      <point x="398" y="97"/>
      <point x="324" y="84"/>
      <point x="255" y="84" type="curve" smooth="yes"/>
      <point x="165" y="84"/>
      <point x="118" y="107"/>
      <point x="110" y="222" type="curve" smooth="yes"/>
      <point x="108" y="250"/>
      <point x="101" y="268"/>
      <point x="84" y="268" type="curve" smooth="yes"/>
      <point x="62" y="268"/>
      <point x="35" y="219"/>
      <point x="35" y="182" type="curve" smooth="yes"/>
      <point x="35" y="135"/>
      <point x="56" y="75"/>
      <point x="102" y="41" type="curve" smooth="yes"/>
      <point x="146" y="8"/>
      <point x="197" y="-1"/>
      <point x="270" y="-1" type="curve" smooth="yes"/>
      <point x="392" y="-1"/>
      <point x="476" y="36"/>
      <point x="476" y="123" type="curve" smooth="yes"/>
      <point x="476" y="223"/>
      <point x="383" y="299"/>
    </contour>
  </outline>
</glyph>
<glyph name="kj_U" format="2">
  <advance width="658"/>
  <unicode hex="11203"/>
  <note>
kj_U
</note>
  <outline>
    <contour>
      <point x="150" y="41" type="curve" smooth="yes"/>
      <point x="136" y="41"/>
      <point x="127" y="29"/>
      <point x="127" y="16" type="curve" smooth="yes"/>
      <point x="127" y="-29"/>
      <point x="200" y="-50"/>
      <point x="273" y="-50" type="curve" smooth="yes"/>
      <point x="487" y="-50"/>
      <point x="609" y="59"/>
      <point x="609" y="265" type="curve" smooth="yes"/>
      <point x="609" y="343"/>
      <point x="597" y="430"/>
      <point x="553" y="430" type="curve" smooth="yes"/>
      <point x="525" y="430"/>
      <point x="503" y="415"/>
      <point x="503" y="398" type="curve" smooth="yes"/>
      <point x="503" y="382"/>
      <point x="525" y="334"/>
      <point x="525" y="269" type="curve" smooth="yes"/>
      <point x="525" y="124"/>
      <point x="424" y="26"/>
      <point x="258" y="26" type="curve" smooth="yes"/>
      <point x="193" y="26"/>
      <point x="171" y="41"/>
    </contour>
    <contour>
      <point x="27" y="342" type="curve" smooth="yes"/>
      <point x="27" y="206"/>
      <point x="118" y="126"/>
      <point x="220" y="126" type="curve" smooth="yes"/>
      <point x="322" y="126"/>
      <point x="379" y="192"/>
      <point x="379" y="277" type="curve" smooth="yes"/>
      <point x="379" y="368"/>
      <point x="329" y="439"/>
      <point x="232" y="439" type="curve" smooth="yes"/>
      <point x="173" y="439"/>
      <point x="114" y="405"/>
      <point x="79" y="365" type="curve"/>
      <point x="93" y="287" type="line"/>
      <point x="115" y="327"/>
      <point x="171" y="361"/>
      <point x="228" y="361" type="curve" smooth="yes"/>
      <point x="269" y="361"/>
      <point x="297" y="336"/>
      <point x="297" y="288" type="curve" smooth="yes"/>
      <point x="297" y="244"/>
      <point x="264" y="210"/>
      <point x="212" y="210" type="curve" smooth="yes"/>
      <point x="157" y="210"/>
      <point x="109" y="250"/>
      <point x="109" y="347" type="curve" smooth="yes"/>
      <point x="109" y="488"/>
      <point x="256" y="549"/>
      <point x="374" y="549" type="curve" smooth="yes"/>
      <point x="408" y="549"/>
      <point x="426" y="544"/>
      <point x="438" y="544" type="curve" smooth="yes"/>
      <point x="454" y="544"/>
      <point x="465" y="554"/>
      <point x="465" y="572" type="curve" smooth="yes"/>
      <point x="465" y="596"/>
      <point x="433" y="621"/>
      <point x="358" y="621" type="curve" smooth="yes"/>
      <point x="186" y="621"/>
      <point x="27" y="526"/>
    </contour>
  </outline>
</glyph>
<glyph name="kj_E" format="2">
  <advance width="712"/>
  <unicode hex="11204"/>
  <note>
kj_E
</note>
  <outline>
    <contour>
      <point x="194" y="357" type="curve" smooth="yes"/>
      <point x="194" y="433"/>
      <point x="174" y="471"/>
      <point x="145" y="505" type="curve" smooth="yes"/>
      <point x="117" y="538"/>
      <point x="85" y="559"/>
      <point x="58" y="559" type="curve" smooth="yes"/>
      <point x="37" y="559"/>
      <point x="10" y="540"/>
      <point x="10" y="513" type="curve" smooth="yes"/>
      <point x="10" y="493"/>
      <point x="28" y="487"/>
      <point x="54" y="467" type="curve" smooth="yes"/>
      <point x="88" y="441"/>
      <point x="112" y="409"/>
      <point x="112" y="344" type="curve" smooth="yes"/>
      <point x="112" y="300"/>
      <point x="112" y="261"/>
      <point x="113" y="249" type="curve" smooth="yes"/>
      <point x="119" y="174"/>
      <point x="187" y="123"/>
      <point x="263" y="123" type="curve" smooth="yes"/>
      <point x="339" y="123"/>
      <point x="386" y="153"/>
      <point x="417" y="195" type="curve"/>
      <point x="404" y="215" type="line"/>
      <point x="401" y="188"/>
      <point x="398" y="169"/>
      <point x="398" y="121" type="curve" smooth="yes"/>
      <point x="398" y="18"/>
      <point x="438" y="-46"/>
      <point x="518" y="-46" type="curve" smooth="yes"/>
      <point x="541" y="-46"/>
      <point x="570" y="-44"/>
      <point x="591" y="-33" type="curve" smooth="yes"/>
      <point x="597" y="-30"/>
      <point x="599" y="-22"/>
      <point x="599" y="-13" type="curve" smooth="yes"/>
      <point x="599" y="10"/>
      <point x="589" y="39"/>
      <point x="569" y="39" type="curve" smooth="yes"/>
      <point x="560" y="39"/>
      <point x="540" y="34"/>
      <point x="528" y="34" type="curve" smooth="yes"/>
      <point x="481" y="34"/>
      <point x="473" y="70"/>
      <point x="473" y="153" type="curve" smooth="yes"/>
      <point x="473" y="317"/>
      <point x="473" y="490"/>
      <point x="487" y="554" type="curve" smooth="yes"/>
      <point x="499" y="607"/>
      <point x="532" y="640"/>
      <point x="581" y="640" type="curve" smooth="yes"/>
      <point x="611" y="640"/>
      <point x="633" y="626"/>
      <point x="652" y="613" type="curve" smooth="yes"/>
      <point x="664" y="605"/>
      <point x="675" y="598"/>
      <point x="684" y="598" type="curve" smooth="yes"/>
      <point x="697" y="598"/>
      <point x="706" y="613"/>
      <point x="706" y="627" type="curve" smooth="yes"/>
      <point x="706" y="650"/>
      <point x="694" y="667"/>
      <point x="681" y="680" type="curve" smooth="yes"/>
      <point x="656" y="705"/>
      <point x="615" y="720"/>
      <point x="574" y="720" type="curve" smooth="yes"/>
      <point x="496" y="720"/>
      <point x="444" y="676"/>
      <point x="420" y="608" type="curve" smooth="yes"/>
      <point x="400" y="550"/>
      <point x="397" y="402"/>
      <point x="396" y="312" type="curve" smooth="yes"/>
      <point x="395" y="259"/>
      <point x="338" y="203"/>
      <point x="258" y="203" type="curve" smooth="yes"/>
      <point x="214" y="203"/>
      <point x="195" y="228"/>
      <point x="195" y="264" type="curve" smooth="yes"/>
      <point x="195" y="275"/>
      <point x="194" y="313"/>
    </contour>
  </outline>
</glyph>
<glyph name="kj_O" format="2">
  <advance width="532"/>
  <unicode hex="11206"/>
  <note>
kj_O
</note>
  <outline>
    <contour>
      <point x="266" y="72" type="curve" smooth="yes"/>
      <point x="378" y="72"/>
      <point x="437" y="147"/>
      <point x="437" y="245" type="curve" smooth="yes"/>
      <point x="437" y="337"/>
      <point x="384" y="423"/>
      <point x="269" y="423" type="curve" smooth="yes"/>
      <point x="207" y="423"/>
      <point x="148" y="390"/>
      <point x="111" y="347" type="curve"/>
      <point x="137" y="260" type="line"/>
      <point x="161" y="305"/>
      <point x="215" y="339"/>
      <point x="267" y="339" type="curve" smooth="yes"/>
      <point x="316" y="339"/>
      <point x="352" y="309"/>
      <point x="352" y="252" type="curve" smooth="yes"/>
      <point x="352" y="199"/>
      <point x="318" y="157"/>
      <point x="260" y="157" type="curve" smooth="yes"/>
      <point x="196" y="157"/>
      <point x="139" y="205"/>
      <point x="139" y="322" type="curve" smooth="yes"/>
      <point x="139" y="558"/>
      <point x="316" y="645"/>
      <point x="464" y="645" type="curve" smooth="yes"/>
      <point x="498" y="645"/>
      <point x="516" y="643"/>
      <point x="528" y="643" type="curve" smooth="yes"/>
      <point x="544" y="643"/>
      <point x="555" y="653"/>
      <point x="555" y="672" type="curve" smooth="yes"/>
      <point x="555" y="696"/>
      <point x="526" y="720"/>
      <point x="451" y="720" type="curve" smooth="yes"/>
      <point x="249" y="720"/>
      <point x="56" y="594"/>
      <point x="56" y="340" type="curve" smooth="yes"/>
      <point x="56" y="159"/>
      <point x="155" y="72"/>
    </contour>
  </outline>
</glyph>
<glyph name="kj_KA" format="2">
  <advance width="773"/>
  <unicode hex="11208"/>
  <note>
kj_KA
</note>
  <outline>
    <contour>
      <point x="297" y="402" type="curve"/>
      <point x="341" y="435" type="line"/>
      <point x="314" y="521"/>
      <point x="273" y="556"/>
      <point x="219" y="556" type="curve" smooth="yes"/>
      <point x="178" y="556"/>
      <point x="157" y="556"/>
      <point x="139" y="560" type="curve" smooth="yes"/>
      <point x="110" y="566"/>
      <point x="105" y="584"/>
      <point x="101" y="601" type="curve" smooth="yes"/>
      <point x="98" y="615"/>
      <point x="93" y="627"/>
      <point x="74" y="627" type="curve" smooth="yes"/>
      <point x="54" y="627"/>
      <point x="30" y="609"/>
      <point x="30" y="580" type="curve" smooth="yes"/>
      <point x="30" y="538"/>
      <point x="53" y="476"/>
      <point x="166" y="476" type="curve" smooth="yes"/>
      <point x="247" y="476"/>
      <point x="260" y="462"/>
    </contour>
    <contour>
      <point x="435" y="133" type="curve" smooth="yes"/>
      <point x="508" y="206"/>
      <point x="631" y="332"/>
      <point x="631" y="422" type="curve" smooth="yes"/>
      <point x="631" y="484"/>
      <point x="583" y="558"/>
      <point x="485" y="558" type="curve" smooth="yes"/>
      <point x="425" y="558"/>
      <point x="357" y="524"/>
      <point x="281" y="461" type="curve" smooth="yes"/>
      <point x="197" y="392"/>
      <point x="120" y="315"/>
      <point x="68" y="243" type="curve" smooth="yes"/>
      <point x="66" y="240"/>
      <point x="64" y="235"/>
      <point x="64" y="227" type="curve" smooth="yes"/>
      <point x="64" y="210"/>
      <point x="93" y="184"/>
      <point x="120" y="184" type="curve" smooth="yes"/>
      <point x="133" y="184"/>
      <point x="144" y="189"/>
      <point x="158" y="206" type="curve" smooth="yes"/>
      <point x="221" y="284"/>
      <point x="281" y="346"/>
      <point x="331" y="390" type="curve" smooth="yes"/>
      <point x="407" y="456"/>
      <point x="467" y="481"/>
      <point x="506" y="481" type="curve" smooth="yes"/>
      <point x="538" y="481"/>
      <point x="553" y="460"/>
      <point x="553" y="438" type="curve" smooth="yes"/>
      <point x="553" y="370"/>
      <point x="429" y="246"/>
      <point x="305" y="141" type="curve" smooth="yes"/>
      <point x="300" y="137"/>
      <point x="296" y="132"/>
      <point x="296" y="122" type="curve" smooth="yes"/>
      <point x="296" y="104"/>
      <point x="321" y="79"/>
      <point x="353" y="79" type="curve" smooth="yes"/>
      <point x="381" y="79"/>
      <point x="399" y="97"/>
    </contour>
    <contour>
      <point x="471" y="206" type="line"/>
      <point x="482" y="211"/>
      <point x="511" y="213"/>
      <point x="524" y="213" type="curve" smooth="yes"/>
      <point x="562" y="213"/>
      <point x="580" y="175"/>
      <point x="584" y="133" type="curve" smooth="yes"/>
      <point x="591" y="56"/>
      <point x="612" y="-4"/>
      <point x="683" y="-4" type="curve" smooth="yes"/>
      <point x="718" y="-4"/>
      <point x="728" y="17"/>
      <point x="728" y="37" type="curve" smooth="yes"/>
      <point x="728" y="52"/>
      <point x="722" y="67"/>
      <point x="704" y="67" type="curve" smooth="yes"/>
      <point x="653" y="67"/>
      <point x="661" y="132"/>
      <point x="653" y="175" type="curve" smooth="yes"/>
      <point x="643" y="229"/>
      <point x="621" y="283"/>
      <point x="543" y="283" type="curve" smooth="yes"/>
      <point x="528" y="283"/>
      <point x="515" y="278"/>
      <point x="492" y="269" type="curve"/>
    </contour>
  </outline>
</glyph>
<glyph name="kj_KHA" format="2">
  <advance width="677"/>
  <unicode hex="11209"/>
  <note>
kj_KHA
</note>
  <outline>
    <contour>
      <point x="463" y="277" type="line"/>
      <point x="450" y="373"/>
      <point x="376" y="560"/>
      <point x="323" y="560" type="curve" smooth="yes"/>
      <point x="301" y="560"/>
      <point x="280" y="539"/>
      <point x="280" y="518" type="curve" smooth="yes"/>
      <point x="280" y="510"/>
      <point x="282" y="504"/>
      <point x="286" y="499" type="curve" smooth="yes"/>
      <point x="342" y="429"/>
      <point x="381" y="337"/>
      <point x="390" y="259" type="curve"/>
    </contour>
    <contour>
      <point x="523" y="492" type="curve" smooth="yes"/>
      <point x="509" y="336"/>
      <point x="492" y="235"/>
      <point x="428" y="103" type="curve"/>
      <point x="428" y="79"/>
      <point x="455" y="64"/>
      <point x="479" y="64" type="curve" smooth="yes"/>
      <point x="495" y="64"/>
      <point x="511" y="67"/>
      <point x="520" y="87" type="curve" smooth="yes"/>
      <point x="568" y="193"/>
      <point x="607" y="405"/>
      <point x="607" y="477" type="curve" smooth="yes"/>
      <point x="607" y="504"/>
      <point x="579" y="528"/>
      <point x="553" y="528" type="curve" smooth="yes"/>
      <point x="533" y="528"/>
      <point x="525" y="514"/>
    </contour>
    <contour>
      <point x="53" y="467" type="curve" smooth="yes"/>
      <point x="87" y="441"/>
      <point x="100" y="398"/>
      <point x="113" y="353" type="curve" smooth="yes"/>
      <point x="148" y="231"/>
      <point x="200" y="190"/>
      <point x="308" y="190" type="curve" smooth="yes"/>
      <point x="374" y="190"/>
      <point x="448" y="211"/>
      <point x="500" y="256" type="curve"/>
      <point x="521" y="373" type="line"/>
      <point x="442" y="289"/>
      <point x="366" y="274"/>
      <point x="309" y="274" type="curve" smooth="yes"/>
      <point x="221" y="274"/>
      <point x="204" y="321"/>
      <point x="189" y="383" type="curve" smooth="yes"/>
      <point x="180" y="422"/>
      <point x="168" y="464"/>
      <point x="139" y="506" type="curve" smooth="yes"/>
      <point x="114" y="542"/>
      <point x="85" y="559"/>
      <point x="58" y="559" type="curve" smooth="yes"/>
      <point x="37" y="559"/>
      <point x="10" y="540"/>
      <point x="10" y="513" type="curve" smooth="yes"/>
      <point x="10" y="493"/>
      <point x="27" y="487"/>
    </contour>
  </outline>
</glyph>
<glyph name="kj_GA" format="2">
  <advance width="729"/>
  <unicode hex="1120A"/>
  <note>
kj_GA
</note>
  <outline>
    <contour>
      <point x="477" y="476" type="curve" smooth="yes"/>
      <point x="553" y="444"/>
      <point x="572" y="417"/>
      <point x="572" y="331" type="curve" smooth="yes"/>
      <point x="572" y="216"/>
      <point x="523" y="124"/>
      <point x="523" y="103" type="curve" smooth="yes"/>
      <point x="523" y="79"/>
      <point x="550" y="64"/>
      <point x="574" y="64" type="curve" smooth="yes"/>
      <point x="590" y="64"/>
      <point x="608" y="67"/>
      <point x="616" y="87" type="curve" smooth="yes"/>
      <point x="634" y="132"/>
      <point x="659" y="229"/>
      <point x="659" y="335" type="curve" smooth="yes"/>
      <point x="659" y="500"/>
      <point x="550" y="559"/>
      <point x="501" y="559" type="curve" smooth="yes"/>
      <point x="470" y="559"/>
      <point x="446" y="537"/>
      <point x="446" y="510" type="curve" smooth="yes"/>
      <point x="446" y="490"/>
      <point x="460" y="483"/>
    </contour>
    <contour>
      <point x="473" y="268" type="curve" smooth="yes"/>
      <point x="473" y="398"/>
      <point x="390" y="449"/>
      <point x="296" y="449" type="curve" smooth="yes"/>
      <point x="225" y="449"/>
      <point x="193" y="458"/>
      <point x="185" y="496" type="curve" smooth="yes"/>
      <point x="181" y="516"/>
      <point x="179" y="537"/>
      <point x="156" y="537" type="curve" smooth="yes"/>
      <point x="136" y="537"/>
      <point x="110" y="522"/>
      <point x="110" y="493" type="curve" smooth="yes"/>
      <point x="110" y="408"/>
      <point x="177" y="366"/>
      <point x="280" y="366" type="curve" smooth="yes"/>
      <point x="361" y="366"/>
      <point x="395" y="340"/>
      <point x="395" y="285" type="curve" smooth="yes"/>
      <point x="395" y="213"/>
      <point x="342" y="183"/>
      <point x="288" y="183" type="curve" smooth="yes"/>
      <point x="190" y="183"/>
      <point x="157" y="241"/>
      <point x="133" y="282" type="curve" smooth="yes"/>
      <point x="121" y="302"/>
      <point x="113" y="320"/>
      <point x="101" y="320" type="curve" smooth="yes"/>
      <point x="80" y="320"/>
      <point x="67" y="275"/>
      <point x="67" y="253" type="curve" smooth="yes"/>
      <point x="67" y="197"/>
      <point x="157" y="97"/>
      <point x="292" y="97" type="curve" smooth="yes"/>
      <point x="412" y="97"/>
      <point x="473" y="168"/>
    </contour>
  </outline>
</glyph>
<glyph name="kj_GGA" format="2">
  <advance width="744"/>
  <unicode hex="1120B"/>
  <note>
kj_GGA
</note>
  <outline>
    <contour>
      <point x="606" y="179" type="curve"/>
      <point x="604" y="290" type="line"/>
      <point x="501" y="190"/>
      <point x="298" y="112"/>
      <point x="143" y="85" type="curve" smooth="yes"/>
      <point x="115" y="80"/>
      <point x="98" y="73"/>
      <point x="98" y="48" type="curve" smooth="yes"/>
      <point x="98" y="24"/>
      <point x="116" y="-4"/>
      <point x="148" y="-4" type="curve" smooth="yes"/>
      <point x="167" y="-4"/>
      <point x="181" y="-3"/>
      <point x="208" y="4" type="curve" smooth="yes"/>
      <point x="317" y="32"/>
      <point x="508" y="103"/>
    </contour>
    <contour>
      <point x="283" y="213" type="curve" smooth="yes"/>
      <point x="406" y="213"/>
      <point x="473" y="282"/>
      <point x="473" y="375" type="curve" smooth="yes"/>
      <point x="473" y="489"/>
      <point x="393" y="538"/>
      <point x="299" y="538" type="curve" smooth="yes"/>
      <point x="228" y="538"/>
      <point x="196" y="548"/>
      <point x="188" y="586" type="curve" smooth="yes"/>
      <point x="184" y="606"/>
      <point x="182" y="627"/>
      <point x="159" y="627" type="curve" smooth="yes"/>
      <point x="139" y="627"/>
      <point x="113" y="612"/>
      <point x="113" y="583" type="curve" smooth="yes"/>
      <point x="113" y="498"/>
      <point x="180" y="455"/>
      <point x="283" y="455" type="curve" smooth="yes"/>
      <point x="364" y="455"/>
      <point x="395" y="431"/>
      <point x="395" y="382" type="curve" smooth="yes"/>
      <point x="395" y="332"/>
      <point x="344" y="299"/>
      <point x="285" y="299" type="curve" smooth="yes"/>
      <point x="202" y="299"/>
      <point x="160" y="341"/>
      <point x="135" y="382" type="curve" smooth="yes"/>
      <point x="123" y="402"/>
      <point x="115" y="420"/>
      <point x="103" y="420" type="curve" smooth="yes"/>
      <point x="82" y="420"/>
      <point x="67" y="375"/>
      <point x="67" y="353" type="curve" smooth="yes"/>
      <point x="67" y="303"/>
      <point x="151" y="213"/>
    </contour>
    <contour>
      <point x="674" y="291" type="curve" smooth="yes"/>
      <point x="674" y="403"/>
      <point x="656" y="481"/>
      <point x="626" y="536" type="curve" smooth="yes"/>
      <point x="592" y="599"/>
      <point x="536" y="631"/>
      <point x="503" y="631" type="curve" smooth="yes"/>
      <point x="472" y="631"/>
      <point x="448" y="609"/>
      <point x="448" y="582" type="curve" smooth="yes"/>
      <point x="448" y="562"/>
      <point x="462" y="555"/>
      <point x="479" y="548" type="curve" smooth="yes"/>
      <point x="529" y="526"/>
      <point x="551" y="500"/>
      <point x="565" y="465" type="curve" smooth="yes"/>
      <point x="580" y="427"/>
      <point x="589" y="364"/>
      <point x="589" y="286" type="curve" smooth="yes"/>
      <point x="589" y="110"/>
      <point x="539" y="19"/>
      <point x="539" y="-7" type="curve" smooth="yes"/>
      <point x="539" y="-31"/>
      <point x="566" y="-46"/>
      <point x="590" y="-46" type="curve" smooth="yes"/>
      <point x="606" y="-46"/>
      <point x="624" y="-43"/>
      <point x="632" y="-23" type="curve" smooth="yes"/>
      <point x="661" y="50"/>
      <point x="674" y="195"/>
    </contour>
  </outline>
</glyph>
<glyph name="kj_GHA" format="2">
  <advance width="826"/>
  <unicode hex="1120C"/>
  <note>
kj_GHA
</note>
  <outline>
    <contour>
      <point x="609" y="555" type="curve" smooth="yes"/>
      <point x="520" y="555"/>
      <point x="478" y="481"/>
      <point x="438" y="330" type="curve" smooth="yes"/>
      <point x="388" y="141"/>
      <point x="345" y="80"/>
      <point x="257" y="80" type="curve" smooth="yes"/>
      <point x="207" y="80"/>
      <point x="176" y="120"/>
      <point x="176" y="177" type="curve" smooth="yes"/>
      <point x="176" y="269"/>
      <point x="251" y="290"/>
      <point x="317" y="296" type="curve" smooth="yes"/>
      <point x="330" y="297"/>
      <point x="337" y="311"/>
      <point x="337" y="328" type="curve" smooth="yes"/>
      <point x="337" y="353"/>
      <point x="325" y="376"/>
      <point x="304" y="376" type="curve" smooth="yes"/>
      <point x="287" y="376"/>
      <point x="272" y="373"/>
      <point x="258" y="370" type="curve" smooth="yes"/>
      <point x="244" y="367"/>
      <point x="231" y="365"/>
      <point x="215" y="365" type="curve" smooth="yes"/>
      <point x="172" y="365"/>
      <point x="138" y="400"/>
      <point x="138" y="446" type="curve" smooth="yes"/>
      <point x="138" y="502"/>
      <point x="172" y="526"/>
      <point x="218" y="546" type="curve"/>
      <point x="375" y="546" type="line" smooth="yes"/>
      <point x="391" y="546"/>
      <point x="398" y="557"/>
      <point x="398" y="566" type="curve" smooth="yes"/>
      <point x="398" y="591"/>
      <point x="377" y="621"/>
      <point x="350" y="621" type="curve" smooth="yes"/>
      <point x="33" y="621" type="line" smooth="yes"/>
      <point x="16" y="621"/>
      <point x="5" y="599"/>
      <point x="5" y="579" type="curve" smooth="yes"/>
      <point x="5" y="562"/>
      <point x="13" y="546"/>
      <point x="31" y="546" type="curve" smooth="yes"/>
      <point x="130" y="546" type="line"/>
      <point x="109" y="570" type="line"/>
      <point x="80" y="543"/>
      <point x="55" y="515"/>
      <point x="55" y="454" type="curve" smooth="yes"/>
      <point x="55" y="387"/>
      <point x="100" y="328"/>
      <point x="171" y="307" type="curve"/>
      <point x="172" y="330" type="line"/>
      <point x="117" y="298"/>
      <point x="86" y="247"/>
      <point x="86" y="177" type="curve" smooth="yes"/>
      <point x="86" y="77"/>
      <point x="164" y="-5"/>
      <point x="273" y="-5" type="curve" smooth="yes"/>
      <point x="414" y="-5"/>
      <point x="465" y="101"/>
      <point x="513" y="276" type="curve" smooth="yes"/>
      <point x="553" y="421"/>
      <point x="576" y="469"/>
      <point x="619" y="469" type="curve" smooth="yes"/>
      <point x="654" y="469"/>
      <point x="672" y="439"/>
      <point x="672" y="345" type="curve" smooth="yes"/>
      <point x="672" y="185"/>
      <point x="607" y="54"/>
      <point x="607" y="33" type="curve" smooth="yes"/>
      <point x="607" y="8"/>
      <point x="635" y="-6"/>
      <point x="659" y="-6" type="curve" smooth="yes"/>
      <point x="675" y="-6"/>
      <point x="692" y="-2"/>
      <point x="700" y="17" type="curve" smooth="yes"/>
      <point x="721" y="67"/>
      <point x="756" y="209"/>
      <point x="756" y="333" type="curve" smooth="yes"/>
      <point x="756" y="447"/>
      <point x="731" y="555"/>
    </contour>
  </outline>
</glyph>
<glyph name="kj_NGA" format="2">
  <advance width="737"/>
  <unicode hex="1120D"/>
  <note>
kj_NGA
</note>
  <outline>
    <contour>
      <point x="539" y="422" type="curve" smooth="yes"/>
      <point x="539" y="384"/>
      <point x="571" y="353"/>
      <point x="612" y="353" type="curve" smooth="yes"/>
      <point x="653" y="353"/>
      <point x="686" y="384"/>
      <point x="686" y="422" type="curve" smooth="yes"/>
      <point x="686" y="460"/>
      <point x="653" y="492"/>
      <point x="612" y="492" type="curve" smooth="yes"/>
      <point x="571" y="492"/>
      <point x="539" y="460"/>
    </contour>
    <contour>
      <point x="539" y="126" type="curve" smooth="yes"/>
      <point x="539" y="88"/>
      <point x="571" y="57"/>
      <point x="612" y="57" type="curve" smooth="yes"/>
      <point x="653" y="57"/>
      <point x="686" y="88"/>
      <point x="686" y="126" type="curve" smooth="yes"/>
      <point x="686" y="164"/>
      <point x="653" y="196"/>
      <point x="612" y="196" type="curve" smooth="yes"/>
      <point x="571" y="196"/>
      <point x="539" y="164"/>
    </contour>
    <component base="uni0AE9"/>
  </outline>
</glyph>
<glyph name="kj_CA" format="2">
  <advance width="668"/>
  <unicode hex="1120E"/>
  <note>
kj_CA
</note>
  <outline>
    <contour>
      <point x="276" y="384" type="curve"/>
      <point x="264" y="357" type="line"/>
      <point x="528" y="357" type="line"/>
      <point x="528" y="432" type="line"/>
      <point x="170" y="432" type="line"/>
      <point x="162" y="430"/>
      <point x="147" y="412"/>
      <point x="147" y="393" type="curve" smooth="yes"/>
      <point x="147" y="378"/>
      <point x="156" y="370"/>
      <point x="185" y="361" type="curve" smooth="yes"/>
      <point x="240" y="344"/>
      <point x="306" y="303"/>
      <point x="306" y="233" type="curve" smooth="yes"/>
      <point x="306" y="177"/>
      <point x="272" y="148"/>
      <point x="218" y="148" type="curve" smooth="yes"/>
      <point x="148" y="148"/>
      <point x="104" y="199"/>
      <point x="81" y="239" type="curve" smooth="yes"/>
      <point x="70" y="258"/>
      <point x="61" y="276"/>
      <point x="49" y="276" type="curve" smooth="yes"/>
      <point x="28" y="276"/>
      <point x="20" y="231"/>
      <point x="20" y="209" type="curve" smooth="yes"/>
      <point x="20" y="153"/>
      <point x="112" y="64"/>
      <point x="222" y="64" type="curve" smooth="yes"/>
      <point x="331" y="64"/>
      <point x="390" y="118"/>
      <point x="390" y="212" type="curve" smooth="yes"/>
      <point x="390" y="301"/>
      <point x="335" y="355"/>
    </contour>
    <contour>
      <point x="509" y="-6" type="curve" smooth="yes"/>
      <point x="525" y="-6"/>
      <point x="543" y="-3"/>
      <point x="551" y="17" type="curve" smooth="yes"/>
      <point x="584" y="99"/>
      <point x="598" y="205"/>
      <point x="598" y="316" type="curve" smooth="yes"/>
      <point x="598" y="405"/>
      <point x="585" y="473"/>
      <point x="570" y="514" type="curve" smooth="yes"/>
      <point x="560" y="542"/>
      <point x="550" y="556"/>
      <point x="524" y="556" type="curve" smooth="yes"/>
      <point x="502" y="556"/>
      <point x="475" y="539"/>
      <point x="475" y="510" type="curve" smooth="yes"/>
      <point x="475" y="483"/>
      <point x="511" y="425"/>
      <point x="511" y="321" type="curve" smooth="yes"/>
      <point x="511" y="133"/>
      <point x="458" y="59"/>
      <point x="458" y="33" type="curve" smooth="yes"/>
      <point x="458" y="9"/>
      <point x="485" y="-6"/>
    </contour>
  </outline>
</glyph>
<glyph name="kj_CHA" format="2">
  <advance width="788"/>
  <unicode hex="1120F"/>
  <note>
kj_CHA
</note>
  <outline>
    <contour>
      <point x="643" y="-47" type="curve" smooth="yes"/>
      <point x="670" y="-47"/>
      <point x="700" y="-44"/>
      <point x="721" y="-33" type="curve" smooth="yes"/>
      <point x="727" y="-30"/>
      <point x="729" y="-22"/>
      <point x="729" y="-13" type="curve" smooth="yes"/>
      <point x="729" y="10"/>
      <point x="719" y="39"/>
      <point x="699" y="39" type="curve" smooth="yes"/>
      <point x="690" y="39"/>
      <point x="670" y="34"/>
      <point x="647" y="34" type="curve" smooth="yes"/>
      <point x="518" y="34"/>
      <point x="500" y="91"/>
      <point x="500" y="257" type="curve" smooth="yes"/>
      <point x="500" y="362"/>
      <point x="541" y="407"/>
      <point x="579" y="407" type="curve" smooth="yes"/>
      <point x="616" y="407"/>
      <point x="631" y="378"/>
      <point x="631" y="344" type="curve" smooth="yes"/>
      <point x="631" y="298"/>
      <point x="586" y="215"/>
      <point x="459" y="215" type="curve" smooth="yes"/>
      <point x="170" y="215" type="line"/>
      <point x="199" y="198" type="line"/>
      <point x="282" y="249"/>
      <point x="330" y="320"/>
      <point x="330" y="398" type="curve" smooth="yes"/>
      <point x="330" y="511"/>
      <point x="259" y="558"/>
      <point x="163" y="558" type="curve" smooth="yes"/>
      <point x="101" y="558"/>
      <point x="20" y="533"/>
      <point x="20" y="488" type="curve" smooth="yes"/>
      <point x="20" y="465"/>
      <point x="36" y="437"/>
      <point x="58" y="437" type="curve" smooth="yes"/>
      <point x="89" y="437"/>
      <point x="119" y="476"/>
      <point x="176" y="476" type="curve" smooth="yes"/>
      <point x="219" y="476"/>
      <point x="250" y="457"/>
      <point x="250" y="406" type="curve" smooth="yes"/>
      <point x="250" y="319"/>
      <point x="152" y="252"/>
      <point x="84" y="219" type="curve" smooth="yes"/>
      <point x="75" y="215"/>
      <point x="72" y="208"/>
      <point x="72" y="198" type="curve" smooth="yes"/>
      <point x="72" y="175"/>
      <point x="111" y="140"/>
      <point x="145" y="140" type="curve" smooth="yes"/>
      <point x="468" y="140" type="line" smooth="yes"/>
      <point x="651" y="140"/>
      <point x="705" y="249"/>
      <point x="705" y="335" type="curve" smooth="yes"/>
      <point x="705" y="416"/>
      <point x="653" y="487"/>
      <point x="565" y="487" type="curve" smooth="yes"/>
      <point x="486" y="487"/>
      <point x="416" y="432"/>
      <point x="416" y="256" type="curve" smooth="yes"/>
      <point x="416" y="68"/>
      <point x="474" y="-47"/>
    </contour>
  </outline>
</glyph>
<glyph name="kj_JA" format="2">
  <advance width="761"/>
  <unicode hex="11210"/>
  <note>
kj_JA
</note>
  <outline>
    <contour>
      <point x="372" y="388" type="curve"/>
      <point x="401" y="420" type="line"/>
      <point x="379" y="522"/>
      <point x="326" y="555"/>
      <point x="268" y="555" type="curve" smooth="yes"/>
      <point x="221" y="555"/>
      <point x="193" y="555"/>
      <point x="173" y="559" type="curve" smooth="yes"/>
      <point x="144" y="565"/>
      <point x="139" y="583"/>
      <point x="135" y="600" type="curve" smooth="yes"/>
      <point x="132" y="614"/>
      <point x="127" y="626"/>
      <point x="108" y="626" type="curve" smooth="yes"/>
      <point x="88" y="626"/>
      <point x="64" y="608"/>
      <point x="64" y="579" type="curve" smooth="yes"/>
      <point x="64" y="537"/>
      <point x="87" y="475"/>
      <point x="200" y="475" type="curve" smooth="yes"/>
      <point x="302" y="475"/>
      <point x="323" y="471"/>
    </contour>
    <contour>
      <point x="544" y="555" type="curve" smooth="yes"/>
      <point x="485" y="555"/>
      <point x="407" y="516"/>
      <point x="359" y="468" type="curve" smooth="yes"/>
      <point x="303" y="412"/>
      <point x="245" y="347"/>
      <point x="228" y="311" type="curve" smooth="yes"/>
      <point x="225" y="304"/>
      <point x="224" y="298"/>
      <point x="224" y="290" type="curve" smooth="yes"/>
      <point x="224" y="278"/>
      <point x="229" y="261"/>
      <point x="242" y="253" type="curve"/>
      <point x="315" y="235"/>
      <point x="373" y="209"/>
      <point x="373" y="154" type="curve" smooth="yes"/>
      <point x="373" y="103"/>
      <point x="330" y="80"/>
      <point x="276" y="80" type="curve" smooth="yes"/>
      <point x="187" y="80"/>
      <point x="143" y="138"/>
      <point x="118" y="179" type="curve" smooth="yes"/>
      <point x="106" y="199"/>
      <point x="98" y="217"/>
      <point x="86" y="217" type="curve" smooth="yes"/>
      <point x="65" y="217"/>
      <point x="50" y="175"/>
      <point x="50" y="153" type="curve" smooth="yes"/>
      <point x="50" y="97"/>
      <point x="149" y="-3"/>
      <point x="280" y="-3" type="curve" smooth="yes"/>
      <point x="400" y="-3"/>
      <point x="451" y="56"/>
      <point x="451" y="137" type="curve" smooth="yes"/>
      <point x="451" y="221"/>
      <point x="382" y="274"/>
      <point x="311" y="306" type="curve"/>
      <point x="308" y="263" type="line"/>
      <point x="339" y="319"/>
      <point x="383" y="369"/>
      <point x="419" y="403" type="curve" smooth="yes"/>
      <point x="473" y="454"/>
      <point x="519" y="469"/>
      <point x="554" y="469" type="curve" smooth="yes"/>
      <point x="589" y="469"/>
      <point x="607" y="439"/>
      <point x="607" y="345" type="curve" smooth="yes"/>
      <point x="607" y="185"/>
      <point x="542" y="54"/>
      <point x="542" y="33" type="curve" smooth="yes"/>
      <point x="542" y="8"/>
      <point x="570" y="-6"/>
      <point x="594" y="-6" type="curve" smooth="yes"/>
      <point x="610" y="-6"/>
      <point x="627" y="-2"/>
      <point x="635" y="17" type="curve" smooth="yes"/>
      <point x="656" y="67"/>
      <point x="691" y="209"/>
      <point x="691" y="333" type="curve" smooth="yes"/>
      <point x="691" y="447"/>
      <point x="666" y="555"/>
    </contour>
  </outline>
</glyph>
<glyph name="kj_JJA" format="2">
  <advance width="837"/>
  <unicode hex="11211"/>
  <note>
kj_JJA
</note>
  <outline>
    <contour>
      <point x="270" y="413" type="curve" smooth="yes"/>
      <point x="270" y="336"/>
      <point x="212" y="281"/>
      <point x="164" y="254" type="curve" smooth="yes"/>
      <point x="155" y="249"/>
      <point x="152" y="241"/>
      <point x="152" y="231" type="curve" smooth="yes"/>
      <point x="152" y="208"/>
      <point x="192" y="175"/>
      <point x="226" y="175" type="curve" smooth="yes"/>
      <point x="313" y="175"/>
      <point x="439" y="247"/>
      <point x="530" y="301" type="curve" smooth="yes"/>
      <point x="589" y="336"/>
      <point x="638" y="364"/>
      <point x="659" y="364" type="curve" smooth="yes"/>
      <point x="678" y="364"/>
      <point x="686" y="345"/>
      <point x="686" y="321" type="curve" smooth="yes"/>
      <point x="686" y="238"/>
      <point x="603" y="121"/>
      <point x="547" y="47" type="curve" smooth="yes"/>
      <point x="546" y="46"/>
      <point x="545" y="44"/>
      <point x="545" y="42" type="curve" smooth="yes"/>
      <point x="545" y="26"/>
      <point x="566" y="4"/>
      <point x="587" y="-3" type="curve" smooth="yes"/>
      <point x="593" y="-5"/>
      <point x="599" y="-6"/>
      <point x="605" y="-6" type="curve" smooth="yes"/>
      <point x="613" y="-6"/>
      <point x="621" y="-4"/>
      <point x="625" y="0" type="curve" smooth="yes"/>
      <point x="687" y="70"/>
      <point x="768" y="210"/>
      <point x="768" y="315" type="curve" smooth="yes"/>
      <point x="768" y="399"/>
      <point x="719" y="455"/>
      <point x="656" y="455" type="curve" smooth="yes"/>
      <point x="611" y="455"/>
      <point x="557" y="422"/>
      <point x="491" y="381" type="curve" smooth="yes"/>
      <point x="426" y="340"/>
      <point x="351" y="294"/>
      <point x="267" y="269" type="curve"/>
      <point x="301" y="267" type="line"/>
      <point x="341" y="326"/>
      <point x="351" y="371"/>
      <point x="351" y="413" type="curve" smooth="yes"/>
      <point x="351" y="522"/>
      <point x="270" y="558"/>
      <point x="174" y="558" type="curve" smooth="yes"/>
      <point x="101" y="558"/>
      <point x="20" y="533"/>
      <point x="20" y="488" type="curve" smooth="yes"/>
      <point x="20" y="465"/>
      <point x="36" y="437"/>
      <point x="58" y="437" type="curve" smooth="yes"/>
      <point x="89" y="437"/>
      <point x="121" y="476"/>
      <point x="189" y="476" type="curve" smooth="yes"/>
      <point x="240" y="476"/>
      <point x="270" y="457"/>
    </contour>
    <contour>
      <point x="535" y="390" type="curve"/>
      <point x="609" y="412" type="line"/>
      <point x="587" y="465"/>
      <point x="517" y="569"/>
      <point x="473" y="569" type="curve" smooth="yes"/>
      <point x="450" y="569"/>
      <point x="431" y="540"/>
      <point x="431" y="516" type="curve" smooth="yes"/>
      <point x="431" y="504"/>
      <point x="436" y="497"/>
      <point x="443" y="491" type="curve" smooth="yes"/>
      <point x="474" y="464"/>
      <point x="512" y="429"/>
    </contour>
  </outline>
</glyph>
<glyph name="kj_NYA" format="2">
  <advance width="711"/>
  <unicode hex="11213"/>
  <note>
kj_NYA
</note>
  <outline>
    <contour>
      <point x="513" y="422" type="curve" smooth="yes"/>
      <point x="513" y="384"/>
      <point x="545" y="353"/>
      <point x="586" y="353" type="curve" smooth="yes"/>
      <point x="627" y="353"/>
      <point x="660" y="384"/>
      <point x="660" y="422" type="curve" smooth="yes"/>
      <point x="660" y="460"/>
      <point x="627" y="492"/>
      <point x="586" y="492" type="curve" smooth="yes"/>
      <point x="545" y="492"/>
      <point x="513" y="460"/>
    </contour>
    <contour>
      <point x="513" y="126" type="curve" smooth="yes"/>
      <point x="513" y="88"/>
      <point x="545" y="57"/>
      <point x="586" y="57" type="curve" smooth="yes"/>
      <point x="627" y="57"/>
      <point x="660" y="88"/>
      <point x="660" y="126" type="curve" smooth="yes"/>
      <point x="660" y="164"/>
      <point x="627" y="196"/>
      <point x="586" y="196" type="curve" smooth="yes"/>
      <point x="545" y="196"/>
      <point x="513" y="164"/>
    </contour>
    <component base="uni0AE8"/>
  </outline>
</glyph>
<glyph name="kj_TTA" format="2">
  <advance width="519"/>
  <unicode hex="11214"/>
  <note>
kj_TTA
</note>
  <outline>
    <contour>
      <point x="372" y="177"/>
      <point x="329" y="161"/>
      <point x="276" y="161" type="curve" smooth="yes"/>
      <point x="222" y="161"/>
      <point x="184" y="196"/>
      <point x="184" y="247" type="curve" smooth="yes"/>
      <point x="184" y="267"/>
      <point x="191" y="285"/>
      <point x="205" y="301" type="curve" smooth="yes"/>
      <point x="227" y="327"/>
      <point x="264" y="349"/>
      <point x="290" y="361" type="curve" smooth="yes"/>
      <point x="335" y="382"/>
      <point x="384" y="406"/>
      <point x="405" y="436" type="curve" smooth="yes"/>
      <point x="416" y="451"/>
      <point x="423" y="469"/>
      <point x="423" y="491" type="curve" smooth="yes"/>
      <point x="423" y="562"/>
      <point x="362" y="621"/>
      <point x="265" y="621" type="curve" smooth="yes"/>
      <point x="73" y="621" type="line" smooth="yes"/>
      <point x="56" y="621"/>
      <point x="45" y="599"/>
      <point x="45" y="579" type="curve" smooth="yes"/>
      <point x="45" y="562"/>
      <point x="53" y="546"/>
      <point x="71" y="546" type="curve" smooth="yes"/>
      <point x="275" y="546" type="line" smooth="yes"/>
      <point x="310" y="546"/>
      <point x="336" y="538"/>
      <point x="336" y="513" type="curve" smooth="yes"/>
      <point x="336" y="501"/>
      <point x="329" y="490"/>
      <point x="317" y="480" type="curve" smooth="yes"/>
      <point x="297" y="464"/>
      <point x="265" y="448"/>
      <point x="232" y="432" type="curve" smooth="yes"/>
      <point x="190" y="412"/>
      <point x="148" y="387"/>
      <point x="122" y="353" type="curve" smooth="yes"/>
      <point x="104" y="329"/>
      <point x="92" y="300"/>
      <point x="92" y="265" type="curve" smooth="yes"/>
      <point x="92" y="174"/>
      <point x="154" y="78"/>
      <point x="290" y="78" type="curve" smooth="yes"/>
      <point x="356" y="78"/>
      <point x="427" y="100"/>
      <point x="478" y="134" type="curve" smooth="yes"/>
      <point x="491" y="142"/>
      <point x="495" y="155"/>
      <point x="495" y="168" type="curve" smooth="yes"/>
      <point x="495" y="187"/>
      <point x="481" y="218"/>
      <point x="460" y="218" type="curve" smooth="yes"/>
      <point x="449" y="218"/>
      <point x="434" y="211"/>
      <point x="416" y="201" type="curve" smooth="yes"/>
    </contour>
  </outline>
</glyph>
<glyph name="kj_TTHA" format="2">
  <advance width="500"/>
  <unicode hex="11215"/>
  <note>
kj_TTHA
</note>
  <outline>
    <contour>
      <point x="251" y="70" type="curve" smooth="yes"/>
      <point x="365" y="70"/>
      <point x="438" y="133"/>
      <point x="438" y="230" type="curve" smooth="yes"/>
      <point x="438" y="362"/>
      <point x="299" y="403"/>
      <point x="226" y="413" type="curve"/>
      <point x="167" y="353" type="line"/>
      <point x="251" y="346"/>
      <point x="351" y="316"/>
      <point x="351" y="245" type="curve" smooth="yes"/>
      <point x="351" y="192"/>
      <point x="310" y="153"/>
      <point x="239" y="153" type="curve" smooth="yes"/>
      <point x="178" y="153"/>
      <point x="129" y="185"/>
      <point x="129" y="251" type="curve" smooth="yes"/>
      <point x="129" y="297"/>
      <point x="158" y="343"/>
      <point x="206" y="384" type="curve" smooth="yes"/>
      <point x="302" y="466"/>
      <point x="357" y="496"/>
      <point x="433" y="542" type="curve"/>
      <point x="438" y="548"/>
      <point x="440" y="555"/>
      <point x="440" y="566" type="curve" smooth="yes"/>
      <point x="440" y="591"/>
      <point x="419" y="621"/>
      <point x="392" y="621" type="curve" smooth="yes"/>
      <point x="58" y="621" type="line" smooth="yes"/>
      <point x="41" y="621"/>
      <point x="30" y="599"/>
      <point x="30" y="579" type="curve" smooth="yes"/>
      <point x="30" y="562"/>
      <point x="38" y="546"/>
      <point x="56" y="546" type="curve" smooth="yes"/>
      <point x="317" y="546" type="line"/>
      <point x="317" y="560" type="line"/>
      <point x="252" y="526"/>
      <point x="187" y="478"/>
      <point x="135" y="429" type="curve" smooth="yes"/>
      <point x="77" y="375"/>
      <point x="43" y="323"/>
      <point x="43" y="254" type="curve" smooth="yes"/>
      <point x="43" y="140"/>
      <point x="129" y="70"/>
    </contour>
  </outline>
</glyph>
<glyph name="kj_DDA" format="2">
  <advance width="1057"/>
  <unicode hex="11216"/>
  <note>
kj_DDA
</note>
  <outline>
    <contour>
      <point x="689" y="373" type="curve" smooth="yes"/>
      <point x="647" y="337"/>
      <point x="555" y="224"/>
      <point x="555" y="189" type="curve" smooth="yes"/>
      <point x="555" y="165"/>
      <point x="587" y="147"/>
      <point x="616" y="147" type="curve" smooth="yes"/>
      <point x="625" y="147"/>
      <point x="633" y="149"/>
      <point x="636" y="154" type="curve" smooth="yes"/>
      <point x="717" y="278"/>
      <point x="785" y="367"/>
      <point x="856" y="367" type="curve" smooth="yes"/>
      <point x="894" y="367"/>
      <point x="906" y="341"/>
      <point x="906" y="312" type="curve" smooth="yes"/>
      <point x="906" y="233"/>
      <point x="821" y="113"/>
      <point x="767" y="42" type="curve" smooth="yes"/>
      <point x="766" y="41"/>
      <point x="765" y="39"/>
      <point x="765" y="37" type="curve" smooth="yes"/>
      <point x="765" y="21"/>
      <point x="786" y="-1"/>
      <point x="807" y="-8" type="curve" smooth="yes"/>
      <point x="813" y="-10"/>
      <point x="820" y="-11"/>
      <point x="826" y="-11" type="curve" smooth="yes"/>
      <point x="834" y="-11"/>
      <point x="841" y="-10"/>
      <point x="845" y="-5" type="curve" smooth="yes"/>
      <point x="911" y="72"/>
      <point x="988" y="204"/>
      <point x="988" y="309" type="curve" smooth="yes"/>
      <point x="988" y="394"/>
      <point x="932" y="449"/>
      <point x="854" y="449" type="curve" smooth="yes"/>
      <point x="793" y="449"/>
      <point x="751" y="427"/>
    </contour>
    <contour>
      <point x="744" y="373" type="line"/>
      <point x="738" y="473"/>
      <point x="676" y="516"/>
      <point x="608" y="516" type="curve" smooth="yes"/>
      <point x="556" y="516"/>
      <point x="510" y="497"/>
      <point x="469" y="459" type="curve"/>
      <point x="491" y="455" type="line"/>
      <point x="469" y="521"/>
      <point x="420" y="562"/>
      <point x="344" y="562" type="curve" smooth="yes"/>
      <point x="269" y="562"/>
      <point x="198" y="510"/>
      <point x="155" y="417" type="curve"/>
      <point x="187" y="287" type="line"/>
      <point x="202" y="390"/>
      <point x="285" y="478"/>
      <point x="359" y="478" type="curve" smooth="yes"/>
      <point x="406" y="478"/>
      <point x="426" y="446"/>
      <point x="433" y="419" type="curve"/>
      <point x="451" y="459" type="line"/>
      <point x="397" y="400"/>
      <point x="328" y="301"/>
      <point x="328" y="259" type="curve" smooth="yes"/>
      <point x="328" y="233"/>
      <point x="357" y="223"/>
      <point x="384" y="223" type="curve" smooth="yes"/>
      <point x="399" y="223"/>
      <point x="412" y="226"/>
      <point x="415" y="233" type="curve"/>
      <point x="479" y="391"/>
      <point x="556" y="435"/>
      <point x="609" y="435" type="curve" smooth="yes"/>
      <point x="661" y="435"/>
      <point x="684" y="394"/>
      <point x="685" y="341" type="curve"/>
    </contour>
    <contour>
      <point x="177" y="601" type="curve" smooth="yes"/>
      <point x="177" y="677"/>
      <point x="118" y="719"/>
      <point x="45" y="719" type="curve" smooth="yes"/>
      <point x="22" y="719"/>
      <point x="10" y="691"/>
      <point x="10" y="668" type="curve" smooth="yes"/>
      <point x="10" y="652"/>
      <point x="16" y="639"/>
      <point x="28" y="638" type="curve" smooth="yes"/>
      <point x="89" y="633"/>
      <point x="93" y="602"/>
      <point x="93" y="573" type="curve" smooth="yes"/>
      <point x="93" y="444"/>
      <point x="108" y="293"/>
      <point x="154" y="185" type="curve" smooth="yes"/>
      <point x="213" y="46"/>
      <point x="338" y="-46"/>
      <point x="446" y="-46" type="curve" smooth="yes"/>
      <point x="485" y="-46"/>
      <point x="489" y="-13"/>
      <point x="489" y="4" type="curve" smooth="yes"/>
      <point x="489" y="23"/>
      <point x="476" y="33"/>
      <point x="459" y="34" type="curve" smooth="yes"/>
      <point x="360" y="40"/>
      <point x="292" y="97"/>
      <point x="239" y="193" type="curve" smooth="yes"/>
      <point x="194" y="275"/>
      <point x="176" y="406"/>
      <point x="176" y="543" type="curve" smooth="yes"/>
      <point x="176" y="561"/>
      <point x="177" y="583"/>
    </contour>
  </outline>
</glyph>
<glyph name="kj_DDHA" format="2">
  <advance width="768"/>
  <unicode hex="11217"/>
  <note>
kj_DDHA
</note>
  <outline>
    <contour>
      <point x="330" y="379" type="curve" smooth="yes"/>
      <point x="330" y="501"/>
      <point x="259" y="558"/>
      <point x="163" y="558" type="curve" smooth="yes"/>
      <point x="101" y="558"/>
      <point x="20" y="533"/>
      <point x="20" y="488" type="curve" smooth="yes"/>
      <point x="20" y="465"/>
      <point x="36" y="437"/>
      <point x="58" y="437" type="curve" smooth="yes"/>
      <point x="89" y="437"/>
      <point x="119" y="476"/>
      <point x="176" y="476" type="curve" smooth="yes"/>
      <point x="219" y="476"/>
      <point x="250" y="453"/>
      <point x="250" y="389" type="curve" smooth="yes"/>
      <point x="250" y="292"/>
      <point x="161" y="215"/>
      <point x="84" y="183" type="curve" smooth="yes"/>
      <point x="75" y="179"/>
      <point x="72" y="170"/>
      <point x="72" y="161" type="curve" smooth="yes"/>
      <point x="72" y="137"/>
      <point x="111" y="102"/>
      <point x="145" y="102" type="curve" smooth="yes"/>
      <point x="350" y="102" type="line" smooth="yes"/>
      <point x="644" y="102"/>
      <point x="700" y="271"/>
      <point x="700" y="387" type="curve" smooth="yes"/>
      <point x="700" y="485"/>
      <point x="644" y="556"/>
      <point x="548" y="556" type="curve" smooth="yes"/>
      <point x="470" y="556"/>
      <point x="408" y="498"/>
      <point x="408" y="412" type="curve" smooth="yes"/>
      <point x="408" y="318"/>
      <point x="465" y="253"/>
      <point x="557" y="219" type="curve"/>
      <point x="594" y="273" type="line"/>
      <point x="542" y="293"/>
      <point x="491" y="327"/>
      <point x="491" y="392" type="curve" smooth="yes"/>
      <point x="491" y="446"/>
      <point x="525" y="473"/>
      <point x="559" y="473" type="curve" smooth="yes"/>
      <point x="600" y="473"/>
      <point x="624" y="442"/>
      <point x="624" y="389" type="curve" smooth="yes"/>
      <point x="624" y="300"/>
      <point x="565" y="177"/>
      <point x="340" y="177" type="curve" smooth="yes"/>
      <point x="170" y="177" type="line"/>
      <point x="199" y="160" type="line"/>
      <point x="282" y="203"/>
      <point x="330" y="291"/>
    </contour>
  </outline>
</glyph>
<glyph name="kj_NNA" format="2">
  <advance width="897"/>
  <unicode hex="11218"/>
  <note>
kj_NNA
</note>
  <outline>
    <contour>
      <point x="673" y="491" type="curve" smooth="yes"/>
      <point x="521" y="491"/>
      <point x="394" y="302"/>
      <point x="394" y="249" type="curve" smooth="yes"/>
      <point x="394" y="226"/>
      <point x="426" y="207"/>
      <point x="455" y="207" type="curve" smooth="yes"/>
      <point x="464" y="207"/>
      <point x="473" y="209"/>
      <point x="476" y="214" type="curve" smooth="yes"/>
      <point x="536" y="339"/>
      <point x="608" y="407"/>
      <point x="684" y="407" type="curve" smooth="yes"/>
      <point x="723" y="407"/>
      <point x="746" y="383"/>
      <point x="746" y="334" type="curve" smooth="yes"/>
      <point x="746" y="245"/>
      <point x="661" y="113"/>
      <point x="607" y="42" type="curve" smooth="yes"/>
      <point x="606" y="41"/>
      <point x="605" y="39"/>
      <point x="605" y="37" type="curve" smooth="yes"/>
      <point x="605" y="21"/>
      <point x="626" y="-1"/>
      <point x="647" y="-8" type="curve" smooth="yes"/>
      <point x="653" y="-10"/>
      <point x="659" y="-11"/>
      <point x="664" y="-11" type="curve" smooth="yes"/>
      <point x="673" y="-11"/>
      <point x="680" y="-10"/>
      <point x="685" y="-5" type="curve" smooth="yes"/>
      <point x="745" y="62"/>
      <point x="828" y="214"/>
      <point x="828" y="329" type="curve" smooth="yes"/>
      <point x="828" y="424"/>
      <point x="771" y="491"/>
    </contour>
    <contour>
      <point x="483" y="377" type="curve"/>
      <point x="541" y="413" type="line"/>
      <point x="512" y="519"/>
      <point x="442" y="562"/>
      <point x="358" y="562" type="curve" smooth="yes"/>
      <point x="286" y="562"/>
      <point x="202" y="517"/>
      <point x="154" y="418" type="curve"/>
      <point x="191" y="309" type="line"/>
      <point x="225" y="417"/>
      <point x="303" y="476"/>
      <point x="370" y="476" type="curve" smooth="yes"/>
      <point x="431" y="476"/>
      <point x="468" y="442"/>
    </contour>
    <contour>
      <point x="177" y="602" type="curve" smooth="yes"/>
      <point x="177" y="678"/>
      <point x="118" y="720"/>
      <point x="45" y="720" type="curve" smooth="yes"/>
      <point x="22" y="720"/>
      <point x="10" y="692"/>
      <point x="10" y="669" type="curve" smooth="yes"/>
      <point x="10" y="653"/>
      <point x="16" y="640"/>
      <point x="28" y="639" type="curve" smooth="yes"/>
      <point x="89" y="634"/>
      <point x="93" y="603"/>
      <point x="93" y="574" type="curve" smooth="yes"/>
      <point x="93" y="454"/>
      <point x="113" y="295"/>
      <point x="155" y="182" type="curve" smooth="yes"/>
      <point x="209" y="36"/>
      <point x="313" y="-46"/>
      <point x="421" y="-46" type="curve" smooth="yes"/>
      <point x="460" y="-46"/>
      <point x="464" y="-13"/>
      <point x="464" y="4" type="curve" smooth="yes"/>
      <point x="464" y="23"/>
      <point x="451" y="33"/>
      <point x="434" y="34" type="curve" smooth="yes"/>
      <point x="342" y="40"/>
      <point x="283" y="93"/>
      <point x="238" y="189" type="curve" smooth="yes"/>
      <point x="196" y="279"/>
      <point x="176" y="410"/>
      <point x="176" y="549" type="curve" smooth="yes"/>
      <point x="176" y="565"/>
      <point x="177" y="586"/>
    </contour>
  </outline>
</glyph>
<glyph name="kj_TA" format="2">
  <advance width="682"/>
  <unicode hex="11219"/>
  <note>
kj_TA
</note>
  <outline>
    <contour>
      <point x="216" y="342" type="curve"/>
      <point x="230" y="336" type="line"/>
      <point x="238" y="413"/>
      <point x="227" y="473"/>
      <point x="200" y="507" type="curve" smooth="yes"/>
      <point x="173" y="541"/>
      <point x="142" y="559"/>
      <point x="113" y="559" type="curve" smooth="yes"/>
      <point x="92" y="559"/>
      <point x="68" y="539"/>
      <point x="68" y="510" type="curve" smooth="yes"/>
      <point x="68" y="490"/>
      <point x="82" y="483"/>
      <point x="99" y="476" type="curve" smooth="yes"/>
      <point x="148" y="456"/>
      <point x="170" y="405"/>
      <point x="170" y="339" type="curve" smooth="yes"/>
      <point x="170" y="285"/>
      <point x="156" y="211"/>
      <point x="130" y="108" type="curve"/>
      <point x="131" y="88"/>
      <point x="158" y="70"/>
      <point x="187" y="70" type="curve" smooth="yes"/>
      <point x="205" y="70"/>
      <point x="228" y="77"/>
      <point x="232" y="94" type="curve" smooth="yes"/>
      <point x="234" y="102"/>
      <point x="236" y="112"/>
      <point x="238" y="124" type="curve" smooth="yes"/>
      <point x="281" y="381"/>
      <point x="388" y="471"/>
      <point x="457" y="471" type="curve" smooth="yes"/>
      <point x="510" y="471"/>
      <point x="527" y="439"/>
      <point x="527" y="345" type="curve" smooth="yes"/>
      <point x="527" y="185"/>
      <point x="464" y="54"/>
      <point x="464" y="28" type="curve" smooth="yes"/>
      <point x="464" y="10"/>
      <point x="492" y="-6"/>
      <point x="516" y="-6" type="curve" smooth="yes"/>
      <point x="532" y="-6"/>
      <point x="552" y="1"/>
      <point x="557" y="13" type="curve" smooth="yes"/>
      <point x="578" y="67"/>
      <point x="612" y="209"/>
      <point x="612" y="333" type="curve" smooth="yes"/>
      <point x="612" y="447"/>
      <point x="570" y="555"/>
      <point x="449" y="555" type="curve" smooth="yes"/>
      <point x="343" y="555"/>
      <point x="259" y="450"/>
    </contour>
  </outline>
</glyph>
<glyph name="kj_THA" format="2">
  <advance width="838"/>
  <unicode hex="1121A"/>
  <note>
kj_THA
</note>
  <outline>
    <contour>
      <point x="253" y="221" type="curve" smooth="yes"/>
      <point x="397" y="221"/>
      <point x="436" y="367"/>
      <point x="436" y="526" type="curve" smooth="yes"/>
      <point x="436" y="553"/>
      <point x="405" y="580"/>
      <point x="374" y="580" type="curve" smooth="yes"/>
      <point x="356" y="580"/>
      <point x="348" y="567"/>
      <point x="347" y="544" type="curve" smooth="yes"/>
      <point x="343" y="454"/>
      <point x="344" y="402"/>
      <point x="321" y="349" type="curve" smooth="yes"/>
      <point x="308" y="320"/>
      <point x="283" y="302"/>
      <point x="247" y="302" type="curve" smooth="yes"/>
      <point x="213" y="302"/>
      <point x="194" y="317"/>
      <point x="184" y="344" type="curve" smooth="yes"/>
      <point x="174" y="372"/>
      <point x="174" y="416"/>
      <point x="174" y="468" type="curve" smooth="yes"/>
      <point x="174" y="478"/>
      <point x="174" y="487"/>
      <point x="174" y="497" type="curve" smooth="yes"/>
      <point x="174" y="577"/>
      <point x="118" y="620"/>
      <point x="45" y="620" type="curve" smooth="yes"/>
      <point x="22" y="620"/>
      <point x="10" y="592"/>
      <point x="10" y="569" type="curve" smooth="yes"/>
      <point x="10" y="553"/>
      <point x="16" y="540"/>
      <point x="28" y="539" type="curve" smooth="yes"/>
      <point x="89" y="534"/>
      <point x="94" y="491"/>
      <point x="94" y="423" type="curve" smooth="yes"/>
      <point x="94" y="294"/>
      <point x="143" y="221"/>
    </contour>
    <contour>
      <point x="621" y="545" type="curve" smooth="yes"/>
      <point x="616" y="521"/>
      <point x="610" y="477"/>
      <point x="603" y="425" type="curve" smooth="yes"/>
      <point x="596" y="376"/>
      <point x="536" y="361"/>
      <point x="505" y="361" type="curve"/>
      <point x="456" y="361"/>
      <point x="429" y="375"/>
      <point x="415" y="457" type="curve"/>
      <point x="378" y="377" type="line"/>
      <point x="400" y="310"/>
      <point x="443" y="282"/>
      <point x="507" y="282" type="curve" smooth="yes"/>
      <point x="541" y="282"/>
      <point x="579" y="291"/>
      <point x="606" y="320" type="curve"/>
      <point x="592" y="329" type="line"/>
      <point x="584" y="285"/>
      <point x="580" y="246"/>
      <point x="580" y="157" type="curve" smooth="yes"/>
      <point x="580" y="63"/>
      <point x="607" y="-2"/>
      <point x="687" y="-2" type="curve" smooth="yes"/>
      <point x="710" y="-2"/>
      <point x="739" y="0"/>
      <point x="760" y="11" type="curve" smooth="yes"/>
      <point x="766" y="14"/>
      <point x="768" y="22"/>
      <point x="768" y="31" type="curve" smooth="yes"/>
      <point x="768" y="54"/>
      <point x="758" y="83"/>
      <point x="738" y="83" type="curve" smooth="yes"/>
      <point x="729" y="83"/>
      <point x="709" y="78"/>
      <point x="699" y="78" type="curve" smooth="yes"/>
      <point x="666" y="78"/>
      <point x="657" y="101"/>
      <point x="657" y="168" type="curve" smooth="yes"/>
      <point x="657" y="346"/>
      <point x="711" y="491"/>
      <point x="711" y="527" type="curve" smooth="yes"/>
      <point x="711" y="555"/>
      <point x="676" y="581"/>
      <point x="647" y="581" type="curve" smooth="yes"/>
      <point x="631" y="581"/>
      <point x="626" y="568"/>
    </contour>
  </outline>
</glyph>
<glyph name="kj_DA" format="2">
  <advance width="734"/>
  <unicode hex="1121B"/>
  <note>
kj_DA
</note>
  <outline>
    <contour>
      <point x="608" y="34" type="curve" smooth="yes"/>
      <point x="592" y="34"/>
      <point x="578" y="41"/>
      <point x="578" y="67" type="curve" smooth="yes"/>
      <point x="578" y="111"/>
      <point x="593" y="132"/>
      <point x="593" y="179" type="curve" smooth="yes"/>
      <point x="593" y="234"/>
      <point x="546" y="263"/>
      <point x="531" y="272" type="curve"/>
      <point x="522" y="247" type="line"/>
      <point x="572" y="276"/>
      <point x="602" y="340"/>
      <point x="602" y="396" type="curve" smooth="yes"/>
      <point x="602" y="502"/>
      <point x="513" y="560"/>
      <point x="379" y="560" type="curve" smooth="yes"/>
      <point x="191" y="560"/>
      <point x="50" y="465"/>
      <point x="50" y="349" type="curve" smooth="yes"/>
      <point x="50" y="281"/>
      <point x="103" y="229"/>
      <point x="179" y="229" type="curve" smooth="yes"/>
      <point x="245" y="229"/>
      <point x="288" y="259"/>
      <point x="288" y="299" type="curve" smooth="yes"/>
      <point x="288" y="324"/>
      <point x="266" y="342"/>
      <point x="247" y="342" type="curve" smooth="yes"/>
      <point x="219" y="342"/>
      <point x="206" y="309"/>
      <point x="170" y="309" type="curve" smooth="yes"/>
      <point x="151" y="309"/>
      <point x="137" y="323"/>
      <point x="137" y="343" type="curve" smooth="yes"/>
      <point x="137" y="418"/>
      <point x="282" y="478"/>
      <point x="402" y="478" type="curve" smooth="yes"/>
      <point x="494" y="478"/>
      <point x="519" y="447"/>
      <point x="519" y="412" type="curve" smooth="yes"/>
      <point x="519" y="340"/>
      <point x="443" y="288"/>
      <point x="372" y="272" type="curve" smooth="yes"/>
      <point x="359" y="269"/>
      <point x="356" y="256"/>
      <point x="356" y="242" type="curve" smooth="yes"/>
      <point x="356" y="223"/>
      <point x="372" y="195"/>
      <point x="394" y="195" type="curve" smooth="yes"/>
      <point x="434" y="195"/>
      <point x="461" y="214"/>
      <point x="502" y="237" type="curve"/>
      <point x="469" y="231" type="line"/>
      <point x="493" y="227"/>
      <point x="511" y="207"/>
      <point x="511" y="172" type="curve" smooth="yes"/>
      <point x="511" y="135"/>
      <point x="495" y="103"/>
      <point x="495" y="53" type="curve" smooth="yes"/>
      <point x="495" y="-10"/>
      <point x="545" y="-45"/>
      <point x="595" y="-45" type="curve" smooth="yes"/>
      <point x="621" y="-45"/>
      <point x="650" y="-43"/>
      <point x="671" y="-32" type="curve" smooth="yes"/>
      <point x="677" y="-29"/>
      <point x="679" y="-21"/>
      <point x="679" y="-12" type="curve" smooth="yes"/>
      <point x="679" y="11"/>
      <point x="669" y="38"/>
      <point x="649" y="38" type="curve" smooth="yes"/>
      <point x="640" y="38"/>
      <point x="629" y="34"/>
    </contour>
  </outline>
</glyph>
<glyph name="kj_DDDA" format="2">
  <advance width="533"/>
  <unicode hex="1121C"/>
  <note>
kj_DDDA
</note>
  <outline>
    <contour>
      <point x="170" y="368" type="curve" smooth="yes"/>
      <point x="170" y="417"/>
      <point x="225" y="471"/>
      <point x="325" y="523" type="curve" smooth="yes"/>
      <point x="369" y="546"/>
      <point x="383" y="550"/>
      <point x="383" y="566" type="curve" smooth="yes"/>
      <point x="383" y="591"/>
      <point x="362" y="621"/>
      <point x="335" y="621" type="curve" smooth="yes"/>
      <point x="33" y="621" type="line" smooth="yes"/>
      <point x="16" y="621"/>
      <point x="5" y="599"/>
      <point x="5" y="579" type="curve" smooth="yes"/>
      <point x="5" y="562"/>
      <point x="13" y="546"/>
      <point x="31" y="546" type="curve" smooth="yes"/>
      <point x="230" y="546" type="line"/>
      <point x="223" y="561" type="line"/>
      <point x="126" y="508"/>
      <point x="75" y="440"/>
      <point x="75" y="376" type="curve" smooth="yes"/>
      <point x="75" y="287"/>
      <point x="150" y="250"/>
      <point x="215" y="235" type="curve"/>
      <point x="219" y="256" type="line"/>
      <point x="160" y="218"/>
      <point x="143" y="168"/>
      <point x="143" y="121" type="curve" smooth="yes"/>
      <point x="143" y="14"/>
      <point x="231" y="-46"/>
      <point x="343" y="-46" type="curve" smooth="yes"/>
      <point x="431" y="-46"/>
      <point x="497" y="-6"/>
      <point x="527" y="23" type="curve" smooth="yes"/>
      <point x="537" y="32"/>
      <point x="540" y="40"/>
      <point x="540" y="51" type="curve" smooth="yes"/>
      <point x="540" y="75"/>
      <point x="516" y="100"/>
      <point x="500" y="100" type="curve" smooth="yes"/>
      <point x="477" y="100"/>
      <point x="430" y="39"/>
      <point x="337" y="39" type="curve" smooth="yes"/>
      <point x="271" y="39"/>
      <point x="232" y="66"/>
      <point x="232" y="116" type="curve" smooth="yes"/>
      <point x="232" y="176"/>
      <point x="298" y="220"/>
      <point x="411" y="261" type="curve" smooth="yes"/>
      <point x="418" y="263"/>
      <point x="423" y="274"/>
      <point x="423" y="284" type="curve" smooth="yes"/>
      <point x="423" y="309"/>
      <point x="401" y="339"/>
      <point x="381" y="339" type="curve" smooth="yes"/>
      <point x="350" y="339"/>
      <point x="305" y="301"/>
      <point x="249" y="301" type="curve" smooth="yes"/>
      <point x="208" y="301"/>
      <point x="170" y="321"/>
    </contour>
  </outline>
</glyph>
<glyph name="kj_DHA" format="2">
  <advance width="837"/>
  <unicode hex="1121D"/>
  <note>
kj_DHA
</note>
  <outline>
    <contour>
      <point x="285" y="409" type="curve" smooth="yes"/>
      <point x="285" y="335"/>
      <point x="222" y="281"/>
      <point x="174" y="254" type="curve" smooth="yes"/>
      <point x="165" y="249"/>
      <point x="162" y="241"/>
      <point x="162" y="231" type="curve" smooth="yes"/>
      <point x="162" y="208"/>
      <point x="204" y="173"/>
      <point x="238" y="173" type="curve" smooth="yes"/>
      <point x="257" y="173"/>
      <point x="285" y="191"/>
      <point x="332" y="223" type="curve" smooth="yes"/>
      <point x="480" y="323"/>
      <point x="602" y="363"/>
      <point x="651" y="363" type="curve" smooth="yes"/>
      <point x="676" y="363"/>
      <point x="686" y="350"/>
      <point x="686" y="321" type="curve" smooth="yes"/>
      <point x="686" y="238"/>
      <point x="601" y="113"/>
      <point x="547" y="42" type="curve" smooth="yes"/>
      <point x="546" y="41"/>
      <point x="545" y="39"/>
      <point x="545" y="37" type="curve" smooth="yes"/>
      <point x="545" y="21"/>
      <point x="566" y="-1"/>
      <point x="587" y="-8" type="curve" smooth="yes"/>
      <point x="593" y="-10"/>
      <point x="599" y="-11"/>
      <point x="605" y="-11" type="curve" smooth="yes"/>
      <point x="613" y="-11"/>
      <point x="620" y="-10"/>
      <point x="625" y="-5" type="curve" smooth="yes"/>
      <point x="686" y="63"/>
      <point x="768" y="210"/>
      <point x="768" y="315" type="curve" smooth="yes"/>
      <point x="768" y="399"/>
      <point x="722" y="454"/>
      <point x="644" y="454" type="curve" smooth="yes"/>
      <point x="561" y="454"/>
      <point x="450" y="396"/>
      <point x="291" y="299" type="curve"/>
      <point x="339" y="316" type="line"/>
      <point x="358" y="349"/>
      <point x="366" y="383"/>
      <point x="366" y="420" type="curve" smooth="yes"/>
      <point x="366" y="521"/>
      <point x="274" y="558"/>
      <point x="181" y="558" type="curve" smooth="yes"/>
      <point x="101" y="558"/>
      <point x="20" y="533"/>
      <point x="20" y="488" type="curve" smooth="yes"/>
      <point x="20" y="465"/>
      <point x="36" y="437"/>
      <point x="58" y="437" type="curve" smooth="yes"/>
      <point x="89" y="437"/>
      <point x="126" y="476"/>
      <point x="204" y="476" type="curve" smooth="yes"/>
      <point x="254" y="476"/>
      <point x="285" y="455"/>
    </contour>
  </outline>
</glyph>
<glyph name="kj_NA" format="2">
  <advance width="674"/>
  <unicode hex="1121E"/>
  <note>
kj_NA
</note>
  <outline>
    <contour>
      <point x="224" y="143" type="curve" smooth="yes"/>
      <point x="329" y="143"/>
      <point x="376" y="211"/>
      <point x="376" y="307" type="curve" smooth="yes"/>
      <point x="376" y="419"/>
      <point x="307" y="504"/>
      <point x="198" y="504" type="curve" smooth="yes"/>
      <point x="105" y="504"/>
      <point x="45" y="438"/>
      <point x="45" y="340" type="curve" smooth="yes"/>
      <point x="45" y="230"/>
      <point x="116" y="143"/>
    </contour>
    <contour>
      <point x="209" y="223" type="curve" smooth="yes"/>
      <point x="161" y="223"/>
      <point x="128" y="259"/>
      <point x="128" y="318" type="curve" smooth="yes"/>
      <point x="128" y="378"/>
      <point x="162" y="422"/>
      <point x="217" y="422" type="curve" smooth="yes"/>
      <point x="266" y="422"/>
      <point x="296" y="379"/>
      <point x="296" y="328" type="curve" smooth="yes"/>
      <point x="296" y="271"/>
      <point x="266" y="223"/>
    </contour>
    <contour>
      <point x="604" y="493" type="curve" smooth="yes"/>
      <point x="604" y="526"/>
      <point x="573" y="556"/>
      <point x="548" y="556" type="curve" smooth="yes"/>
      <point x="528" y="556"/>
      <point x="522" y="545"/>
      <point x="517" y="506" type="curve" smooth="yes"/>
      <point x="506" y="420"/>
      <point x="423" y="383"/>
      <point x="349" y="383" type="curve"/>
      <point x="336" y="313" type="line"/>
      <point x="346" y="310"/>
      <point x="361" y="308"/>
      <point x="370" y="308" type="curve" smooth="yes"/>
      <point x="453" y="308"/>
      <point x="524" y="343"/>
      <point x="560" y="401" type="curve"/>
      <point x="510" y="388" type="line"/>
      <point x="492" y="272"/>
      <point x="472" y="195"/>
      <point x="429" y="103" type="curve"/>
      <point x="429" y="79"/>
      <point x="456" y="64"/>
      <point x="480" y="64" type="curve" smooth="yes"/>
      <point x="496" y="64"/>
      <point x="514" y="68"/>
      <point x="522" y="87" type="curve" smooth="yes"/>
      <point x="578" y="221"/>
      <point x="604" y="385"/>
    </contour>
  </outline>
</glyph>
<glyph name="kj_PHA" format="2">
  <advance width="765"/>
  <unicode hex="11220"/>
  <note>
kj_PHA
</note>
  <outline>
    <contour>
      <point x="444" y="184" type="line"/>
      <point x="455" y="199"/>
      <point x="495" y="217"/>
      <point x="516" y="217" type="curve" smooth="yes"/>
      <point x="554" y="217"/>
      <point x="568" y="178"/>
      <point x="575" y="120" type="curve" smooth="yes"/>
      <point x="583" y="53"/>
      <point x="604" y="-4"/>
      <point x="675" y="-4" type="curve" smooth="yes"/>
      <point x="710" y="-4"/>
      <point x="720" y="17"/>
      <point x="720" y="37" type="curve" smooth="yes"/>
      <point x="720" y="52"/>
      <point x="714" y="67"/>
      <point x="696" y="67" type="curve" smooth="yes"/>
      <point x="645" y="67"/>
      <point x="650" y="129"/>
      <point x="645" y="172" type="curve" smooth="yes"/>
      <point x="638" y="232"/>
      <point x="613" y="286"/>
      <point x="549" y="286" type="curve" smooth="yes"/>
      <point x="519" y="286"/>
      <point x="479" y="271"/>
      <point x="463" y="254" type="curve"/>
    </contour>
    <contour>
      <point x="109" y="431"/>
      <point x="115" y="383"/>
      <point x="119" y="349" type="curve" smooth="yes"/>
      <point x="128" y="271"/>
      <point x="183" y="221"/>
      <point x="277" y="221" type="curve" smooth="yes"/>
      <point x="376" y="221"/>
      <point x="419" y="271"/>
      <point x="444" y="327" type="curve"/>
      <point x="433" y="341" type="line"/>
      <point x="391" y="191"/>
      <point x="324" y="93"/>
      <point x="208" y="81" type="curve" smooth="yes"/>
      <point x="178" y="78"/>
      <point x="161" y="70"/>
      <point x="161" y="46" type="curve" smooth="yes"/>
      <point x="161" y="23"/>
      <point x="181" y="-4"/>
      <point x="211" y="-4" type="curve" smooth="yes"/>
      <point x="316" y="-4"/>
      <point x="415" y="78"/>
      <point x="466" y="208" type="curve" smooth="yes"/>
      <point x="511" y="322"/>
      <point x="550" y="430"/>
      <point x="550" y="457" type="curve" smooth="yes"/>
      <point x="550" y="490"/>
      <point x="525" y="520"/>
      <point x="492" y="520" type="curve" smooth="yes"/>
      <point x="476" y="520"/>
      <point x="470" y="505"/>
      <point x="457" y="459" type="curve" smooth="yes"/>
      <point x="438" y="393"/>
      <point x="387" y="306"/>
      <point x="278" y="306" type="curve" smooth="yes"/>
      <point x="221" y="306"/>
      <point x="201" y="324"/>
      <point x="194" y="383" type="curve" smooth="yes"/>
      <point x="188" y="434"/>
      <point x="174" y="473"/>
      <point x="145" y="506" type="curve" smooth="yes"/>
      <point x="117" y="538"/>
      <point x="85" y="559"/>
      <point x="58" y="559" type="curve" smooth="yes"/>
      <point x="37" y="559"/>
      <point x="10" y="540"/>
      <point x="10" y="513" type="curve" smooth="yes"/>
      <point x="10" y="493"/>
      <point x="28" y="484"/>
      <point x="54" y="467" type="curve" smooth="yes"/>
    </contour>
  </outline>
</glyph>
<glyph name="kj_BA" format="2">
  <advance width="950"/>
  <unicode hex="11221"/>
  <note>
kj_BA
</note>
  <outline>
    <contour>
      <point x="796" y="64" type="curve" smooth="yes"/>
      <point x="812" y="64"/>
      <point x="830" y="67"/>
      <point x="838" y="87" type="curve" smooth="yes"/>
      <point x="856" y="132"/>
      <point x="881" y="239"/>
      <point x="881" y="335" type="curve" smooth="yes"/>
      <point x="881" y="445"/>
      <point x="852" y="553"/>
      <point x="734" y="553" type="curve" smooth="yes"/>
      <point x="608" y="553"/>
      <point x="501" y="371"/>
      <point x="501" y="270" type="curve" smooth="yes"/>
      <point x="501" y="248"/>
      <point x="529" y="224"/>
      <point x="558" y="224" type="curve" smooth="yes"/>
      <point x="573" y="224"/>
      <point x="582" y="227"/>
      <point x="588" y="234" type="curve"/>
      <point x="606" y="339"/>
      <point x="673" y="466"/>
      <point x="737" y="466" type="curve" smooth="yes"/>
      <point x="781" y="466"/>
      <point x="794" y="433"/>
      <point x="794" y="351" type="curve" smooth="yes"/>
      <point x="794" y="226"/>
      <point x="745" y="124"/>
      <point x="745" y="103" type="curve" smooth="yes"/>
      <point x="745" y="79"/>
      <point x="772" y="64"/>
    </contour>
    <contour>
      <point x="483" y="468" type="curve" smooth="yes"/>
      <point x="525" y="468"/>
      <point x="556" y="454"/>
      <point x="556" y="410" type="curve" smooth="yes"/>
      <point x="556" y="397"/>
      <point x="554" y="387"/>
      <point x="551" y="379" type="curve"/>
      <point x="615" y="423" type="line"/>
      <point x="612" y="503"/>
      <point x="565" y="555"/>
      <point x="480" y="555" type="curve" smooth="yes"/>
      <point x="335" y="555"/>
      <point x="233" y="386"/>
      <point x="233" y="290" type="curve" smooth="yes"/>
      <point x="233" y="267"/>
      <point x="257" y="244"/>
      <point x="290" y="244" type="curve" smooth="yes"/>
      <point x="339" y="244"/>
      <point x="345" y="333"/>
      <point x="349" y="416" type="curve"/>
      <point x="324" y="365" type="line"/>
      <point x="322" y="312" type="line"/>
      <point x="349" y="406"/>
      <point x="417" y="468"/>
    </contour>
    <contour>
      <point x="337" y="470" type="line"/>
      <point x="317" y="528"/>
      <point x="275" y="556"/>
      <point x="219" y="556" type="curve" smooth="yes"/>
      <point x="178" y="556"/>
      <point x="159" y="556"/>
      <point x="139" y="560" type="curve" smooth="yes"/>
      <point x="110" y="566"/>
      <point x="105" y="584"/>
      <point x="101" y="601" type="curve" smooth="yes"/>
      <point x="98" y="615"/>
      <point x="93" y="627"/>
      <point x="74" y="627" type="curve" smooth="yes"/>
      <point x="54" y="627"/>
      <point x="30" y="609"/>
      <point x="30" y="580" type="curve" smooth="yes"/>
      <point x="30" y="538"/>
      <point x="53" y="476"/>
      <point x="166" y="476" type="curve" smooth="yes"/>
      <point x="230" y="476"/>
      <point x="274" y="474"/>
      <point x="285" y="419" type="curve"/>
    </contour>
  </outline>
</glyph>
<glyph name="kj_BBA" format="2">
  <advance width="665"/>
  <unicode hex="11222"/>
  <note>
kj_BBA
</note>
  <outline>
    <contour>
      <point x="454" y="33" type="curve" smooth="yes"/>
      <point x="454" y="9"/>
      <point x="481" y="-6"/>
      <point x="505" y="-6" type="curve" smooth="yes"/>
      <point x="521" y="-6"/>
      <point x="539" y="-3"/>
      <point x="547" y="17" type="curve" smooth="yes"/>
      <point x="580" y="99"/>
      <point x="594" y="205"/>
      <point x="594" y="326" type="curve" smooth="yes"/>
      <point x="594" y="405"/>
      <point x="581" y="473"/>
      <point x="566" y="514" type="curve" smooth="yes"/>
      <point x="556" y="542"/>
      <point x="546" y="556"/>
      <point x="520" y="556" type="curve" smooth="yes"/>
      <point x="498" y="556"/>
      <point x="471" y="539"/>
      <point x="471" y="510" type="curve" smooth="yes"/>
      <point x="471" y="483"/>
      <point x="507" y="425"/>
      <point x="507" y="321" type="curve" smooth="yes"/>
      <point x="507" y="133"/>
      <point x="454" y="59"/>
    </contour>
    <contour>
      <point x="238" y="354" type="curve" smooth="yes"/>
      <point x="238" y="219"/>
      <point x="174" y="124"/>
      <point x="174" y="103" type="curve" smooth="yes"/>
      <point x="174" y="79"/>
      <point x="201" y="64"/>
      <point x="225" y="64" type="curve" smooth="yes"/>
      <point x="241" y="64"/>
      <point x="259" y="67"/>
      <point x="267" y="87" type="curve" smooth="yes"/>
      <point x="285" y="132"/>
      <point x="321" y="226"/>
      <point x="321" y="334" type="curve" smooth="yes"/>
      <point x="321" y="489"/>
      <point x="245" y="553"/>
      <point x="155" y="553" type="curve" smooth="yes"/>
      <point x="63" y="553"/>
      <point x="24" y="491"/>
      <point x="24" y="420" type="curve" smooth="yes"/>
      <point x="24" y="324"/>
      <point x="106" y="245"/>
      <point x="248" y="245" type="curve" smooth="yes"/>
      <point x="531" y="245" type="line"/>
      <point x="531" y="320" type="line"/>
      <point x="286" y="320" type="line" smooth="yes"/>
      <point x="174" y="320"/>
      <point x="107" y="339"/>
      <point x="107" y="410" type="curve" smooth="yes"/>
      <point x="107" y="444"/>
      <point x="125" y="472"/>
      <point x="173" y="472" type="curve" smooth="yes"/>
      <point x="208" y="472"/>
      <point x="238" y="440"/>
    </contour>
  </outline>
</glyph>
<glyph name="kj_BHA" format="2">
  <advance width="745"/>
  <unicode hex="11223"/>
  <note>
kj_BHA
</note>
  <outline>
    <contour>
      <point x="586" y="-6" type="curve" smooth="yes"/>
      <point x="602" y="-6"/>
      <point x="620" y="-3"/>
      <point x="628" y="17" type="curve" smooth="yes"/>
      <point x="661" y="99"/>
      <point x="675" y="205"/>
      <point x="675" y="316" type="curve" smooth="yes"/>
      <point x="675" y="405"/>
      <point x="662" y="473"/>
      <point x="647" y="514" type="curve" smooth="yes"/>
      <point x="637" y="542"/>
      <point x="627" y="556"/>
      <point x="601" y="556" type="curve" smooth="yes"/>
      <point x="579" y="556"/>
      <point x="552" y="539"/>
      <point x="552" y="510" type="curve" smooth="yes"/>
      <point x="552" y="483"/>
      <point x="588" y="425"/>
      <point x="588" y="321" type="curve" smooth="yes"/>
      <point x="588" y="133"/>
      <point x="535" y="59"/>
      <point x="535" y="33" type="curve" smooth="yes"/>
      <point x="535" y="9"/>
      <point x="562" y="-6"/>
    </contour>
    <contour>
      <point x="447" y="243" type="line"/>
      <point x="605" y="243" type="line"/>
      <point x="605" y="318" type="line"/>
      <point x="400" y="318" type="line"/>
    </contour>
    <contour>
      <point x="467" y="244" type="curve" smooth="yes"/>
      <point x="467" y="397"/>
      <point x="360" y="449"/>
      <point x="286" y="449" type="curve" smooth="yes"/>
      <point x="215" y="449"/>
      <point x="183" y="458"/>
      <point x="175" y="496" type="curve" smooth="yes"/>
      <point x="171" y="516"/>
      <point x="169" y="537"/>
      <point x="146" y="537" type="curve" smooth="yes"/>
      <point x="126" y="537"/>
      <point x="100" y="522"/>
      <point x="100" y="493" type="curve" smooth="yes"/>
      <point x="100" y="407"/>
      <point x="167" y="365"/>
      <point x="270" y="365" type="curve" smooth="yes"/>
      <point x="336" y="365"/>
      <point x="389" y="335"/>
      <point x="389" y="254" type="curve" smooth="yes"/>
      <point x="389" y="180"/>
      <point x="339" y="148"/>
      <point x="278" y="148" type="curve" smooth="yes"/>
      <point x="200" y="148"/>
      <point x="151" y="199"/>
      <point x="128" y="239" type="curve" smooth="yes"/>
      <point x="117" y="258"/>
      <point x="108" y="276"/>
      <point x="96" y="276" type="curve" smooth="yes"/>
      <point x="75" y="276"/>
      <point x="67" y="231"/>
      <point x="67" y="209" type="curve" smooth="yes"/>
      <point x="67" y="153"/>
      <point x="159" y="64"/>
      <point x="279" y="64" type="curve" smooth="yes"/>
      <point x="385" y="64"/>
      <point x="467" y="123"/>
    </contour>
  </outline>
</glyph>
<glyph name="kj_YA" format="2">
  <advance width="1075"/>
  <unicode hex="11225"/>
  <note>
kj_YA
</note>
  <outline>
    <contour>
      <point x="624" y="127" type="curve" smooth="yes"/>
      <point x="723" y="127"/>
      <point x="788" y="188"/>
      <point x="788" y="282" type="curve" smooth="yes"/>
      <point x="788" y="381"/>
      <point x="714" y="451"/>
      <point x="614" y="451" type="curve" smooth="yes"/>
      <point x="516" y="451"/>
      <point x="450" y="391"/>
      <point x="450" y="296" type="curve" smooth="yes"/>
      <point x="450" y="200"/>
      <point x="520" y="127"/>
    </contour>
    <contour>
      <point x="224" y="127" type="curve" smooth="yes"/>
      <point x="323" y="127"/>
      <point x="388" y="188"/>
      <point x="388" y="282" type="curve" smooth="yes"/>
      <point x="388" y="381"/>
      <point x="314" y="451"/>
      <point x="214" y="451" type="curve" smooth="yes"/>
      <point x="116" y="451"/>
      <point x="50" y="391"/>
      <point x="50" y="296" type="curve" smooth="yes"/>
      <point x="50" y="200"/>
      <point x="120" y="127"/>
    </contour>
    <contour>
      <point x="218" y="211" type="curve" smooth="yes"/>
      <point x="167" y="211"/>
      <point x="131" y="239"/>
      <point x="131" y="288" type="curve" smooth="yes"/>
      <point x="131" y="334"/>
      <point x="167" y="367"/>
      <point x="222" y="367" type="curve" smooth="yes"/>
      <point x="272" y="367"/>
      <point x="309" y="338"/>
      <point x="309" y="290" type="curve" smooth="yes"/>
      <point x="309" y="244"/>
      <point x="272" y="211"/>
    </contour>
    <contour>
      <point x="618" y="211" type="curve" smooth="yes"/>
      <point x="567" y="211"/>
      <point x="531" y="239"/>
      <point x="531" y="288" type="curve" smooth="yes"/>
      <point x="531" y="334"/>
      <point x="567" y="367"/>
      <point x="622" y="367" type="curve" smooth="yes"/>
      <point x="672" y="367"/>
      <point x="709" y="338"/>
      <point x="709" y="290" type="curve" smooth="yes"/>
      <point x="709" y="244"/>
      <point x="672" y="211"/>
    </contour>
    <contour>
      <point x="920" y="64" type="curve" smooth="yes"/>
      <point x="936" y="64"/>
      <point x="954" y="67"/>
      <point x="962" y="87" type="curve" smooth="yes"/>
      <point x="980" y="132"/>
      <point x="1005" y="229"/>
      <point x="1005" y="335" type="curve" smooth="yes"/>
      <point x="1005" y="500"/>
      <point x="896" y="559"/>
      <point x="847" y="559" type="curve" smooth="yes"/>
      <point x="816" y="559"/>
      <point x="792" y="537"/>
      <point x="792" y="510" type="curve" smooth="yes"/>
      <point x="792" y="490"/>
      <point x="806" y="483"/>
      <point x="823" y="476" type="curve" smooth="yes"/>
      <point x="899" y="445"/>
      <point x="918" y="417"/>
      <point x="918" y="331" type="curve" smooth="yes"/>
      <point x="918" y="216"/>
      <point x="869" y="124"/>
      <point x="869" y="103" type="curve" smooth="yes"/>
      <point x="869" y="79"/>
      <point x="896" y="64"/>
    </contour>
  </outline>
</glyph>
<glyph name="kj_RA" format="2">
  <advance width="549"/>
  <unicode hex="11226"/>
  <note>
kj_RA
</note>
  <outline>
    <contour>
      <point x="193" y="227" type="line"/>
      <point x="334" y="265"/>
      <point x="505" y="430"/>
      <point x="505" y="503" type="curve" smooth="yes"/>
      <point x="505" y="523"/>
      <point x="478" y="550"/>
      <point x="458" y="550" type="curve" smooth="yes"/>
      <point x="447" y="550"/>
      <point x="443" y="547"/>
      <point x="439" y="544" type="curve"/>
      <point x="354" y="406"/>
      <point x="246" y="331"/>
      <point x="164" y="308" type="curve"/>
    </contour>
    <contour>
      <point x="177" y="600" type="curve" smooth="yes"/>
      <point x="177" y="678"/>
      <point x="118" y="719"/>
      <point x="45" y="719" type="curve" smooth="yes"/>
      <point x="22" y="719"/>
      <point x="10" y="691"/>
      <point x="10" y="668" type="curve" smooth="yes"/>
      <point x="10" y="652"/>
      <point x="16" y="639"/>
      <point x="28" y="638" type="curve" smooth="yes"/>
      <point x="89" y="633"/>
      <point x="93" y="602"/>
      <point x="93" y="573" type="curve" smooth="yes"/>
      <point x="93" y="444"/>
      <point x="93" y="283"/>
      <point x="146" y="180" type="curve" smooth="yes"/>
      <point x="212" y="52"/>
      <point x="348" y="-46"/>
      <point x="516" y="-46" type="curve" smooth="yes"/>
      <point x="555" y="-46"/>
      <point x="559" y="-13"/>
      <point x="559" y="4" type="curve" smooth="yes"/>
      <point x="559" y="23"/>
      <point x="546" y="33"/>
      <point x="529" y="34" type="curve" smooth="yes"/>
      <point x="370" y="43"/>
      <point x="283" y="115"/>
      <point x="229" y="203" type="curve" smooth="yes"/>
      <point x="185" y="275"/>
      <point x="175" y="374"/>
      <point x="175" y="485" type="curve" smooth="yes"/>
      <point x="175" y="521"/>
      <point x="177" y="562"/>
    </contour>
  </outline>
</glyph>
<glyph name="kj_LA" format="2">
  <advance width="640"/>
  <unicode hex="11227"/>
  <note>
kj_LA
</note>
  <outline>
    <contour>
      <point x="481" y="-6" type="curve" smooth="yes"/>
      <point x="497" y="-6"/>
      <point x="515" y="-3"/>
      <point x="523" y="17" type="curve" smooth="yes"/>
      <point x="556" y="99"/>
      <point x="570" y="205"/>
      <point x="570" y="316" type="curve" smooth="yes"/>
      <point x="570" y="405"/>
      <point x="557" y="473"/>
      <point x="542" y="514" type="curve" smooth="yes"/>
      <point x="532" y="542"/>
      <point x="522" y="556"/>
      <point x="496" y="556" type="curve" smooth="yes"/>
      <point x="474" y="556"/>
      <point x="447" y="539"/>
      <point x="447" y="510" type="curve" smooth="yes"/>
      <point x="447" y="483"/>
      <point x="483" y="425"/>
      <point x="483" y="321" type="curve" smooth="yes"/>
      <point x="483" y="133"/>
      <point x="430" y="59"/>
      <point x="430" y="33" type="curve" smooth="yes"/>
      <point x="430" y="9"/>
      <point x="457" y="-6"/>
    </contour>
    <contour>
      <point x="509" y="243" type="line"/>
      <point x="170" y="243" type="line"/>
      <point x="199" y="226" type="line"/>
      <point x="282" y="273"/>
      <point x="330" y="334"/>
      <point x="330" y="406" type="curve" smooth="yes"/>
      <point x="330" y="512"/>
      <point x="259" y="558"/>
      <point x="163" y="558" type="curve" smooth="yes"/>
      <point x="101" y="558"/>
      <point x="20" y="533"/>
      <point x="20" y="488" type="curve" smooth="yes"/>
      <point x="20" y="465"/>
      <point x="36" y="437"/>
      <point x="58" y="437" type="curve" smooth="yes"/>
      <point x="89" y="437"/>
      <point x="119" y="476"/>
      <point x="176" y="476" type="curve" smooth="yes"/>
      <point x="219" y="476"/>
      <point x="250" y="458"/>
      <point x="250" y="414" type="curve" smooth="yes"/>
      <point x="250" y="337"/>
      <point x="153" y="278"/>
      <point x="84" y="247" type="curve" smooth="yes"/>
      <point x="75" y="243"/>
      <point x="72" y="236"/>
      <point x="72" y="226" type="curve" smooth="yes"/>
      <point x="72" y="203"/>
      <point x="111" y="168"/>
      <point x="145" y="168" type="curve" smooth="yes"/>
      <point x="500" y="168" type="line"/>
    </contour>
  </outline>
</glyph>
<glyph name="kj_VA" format="2">
  <advance width="573"/>
  <unicode hex="11228"/>
  <note>
kj_VA
</note>
  <outline>
    <contour>
      <point x="432" y="339" type="line"/>
      <point x="391" y="423"/>
      <point x="296" y="459"/>
      <point x="219" y="459" type="curve" smooth="yes"/>
      <point x="123" y="459"/>
      <point x="55" y="410"/>
      <point x="55" y="311" type="curve" smooth="yes"/>
      <point x="55" y="216"/>
      <point x="124" y="140"/>
      <point x="247" y="140" type="curve" smooth="yes"/>
      <point x="326" y="140"/>
      <point x="401" y="171"/>
      <point x="432" y="203" type="curve"/>
      <point x="423" y="305" type="line"/>
      <point x="383" y="251"/>
      <point x="309" y="221"/>
      <point x="233" y="221" type="curve" smooth="yes"/>
      <point x="179" y="221"/>
      <point x="140" y="246"/>
      <point x="140" y="294" type="curve" smooth="yes"/>
      <point x="140" y="334"/>
      <point x="172" y="372"/>
      <point x="244" y="372" type="curve" smooth="yes"/>
      <point x="300" y="372"/>
      <point x="365" y="352"/>
      <point x="416" y="277" type="curve"/>
    </contour>
    <contour>
      <point x="362" y="33" type="curve" smooth="yes"/>
      <point x="362" y="9"/>
      <point x="389" y="-6"/>
      <point x="413" y="-6" type="curve" smooth="yes"/>
      <point x="429" y="-6"/>
      <point x="447" y="-3"/>
      <point x="455" y="17" type="curve" smooth="yes"/>
      <point x="488" y="99"/>
      <point x="503" y="200"/>
      <point x="503" y="311" type="curve" smooth="yes"/>
      <point x="503" y="400"/>
      <point x="489" y="473"/>
      <point x="474" y="514" type="curve" smooth="yes"/>
      <point x="464" y="542"/>
      <point x="454" y="556"/>
      <point x="428" y="556" type="curve" smooth="yes"/>
      <point x="406" y="556"/>
      <point x="379" y="539"/>
      <point x="379" y="510" type="curve" smooth="yes"/>
      <point x="379" y="483"/>
      <point x="422" y="420"/>
      <point x="422" y="316" type="curve" smooth="yes"/>
      <point x="422" y="128"/>
      <point x="362" y="59"/>
    </contour>
  </outline>
</glyph>
<glyph name="kj_HA" format="2">
  <advance width="561"/>
  <unicode hex="1122A"/>
  <note>
kj_HA
</note>
  <outline>
    <contour>
      <point x="227" y="199" type="curve"/>
      <point x="275" y="245" type="line"/>
      <point x="238" y="259"/>
      <point x="196" y="288"/>
      <point x="196" y="312" type="curve" smooth="yes"/>
      <point x="196" y="332"/>
      <point x="230" y="347"/>
      <point x="272" y="364" type="curve" smooth="yes"/>
      <point x="358" y="398"/>
      <point x="423" y="424"/>
      <point x="423" y="494" type="curve" smooth="yes"/>
      <point x="423" y="563"/>
      <point x="362" y="621"/>
      <point x="265" y="621" type="curve" smooth="yes"/>
      <point x="43" y="621" type="line" smooth="yes"/>
      <point x="26" y="621"/>
      <point x="15" y="599"/>
      <point x="15" y="579" type="curve" smooth="yes"/>
      <point x="15" y="562"/>
      <point x="23" y="546"/>
      <point x="41" y="546" type="curve" smooth="yes"/>
      <point x="275" y="546" type="line" smooth="yes"/>
      <point x="310" y="546"/>
      <point x="336" y="538"/>
      <point x="336" y="513" type="curve" smooth="yes"/>
      <point x="336" y="481"/>
      <point x="285" y="462"/>
      <point x="232" y="442" type="curve" smooth="yes"/>
      <point x="167" y="418"/>
      <point x="95" y="391"/>
      <point x="95" y="335" type="curve" smooth="yes"/>
      <point x="95" y="285"/>
      <point x="155" y="242"/>
    </contour>
    <contour>
      <point x="440" y="-8" type="curve" smooth="yes"/>
      <point x="460" y="-8"/>
      <point x="479" y="3"/>
      <point x="483" y="12" type="curve" smooth="yes"/>
      <point x="495" y="37"/>
      <point x="506" y="81"/>
      <point x="506" y="124" type="curve" smooth="yes"/>
      <point x="506" y="225"/>
      <point x="440" y="280"/>
      <point x="340" y="280" type="curve" smooth="yes"/>
      <point x="244" y="280"/>
      <point x="120" y="188"/>
      <point x="120" y="111" type="curve" smooth="yes"/>
      <point x="120" y="90"/>
      <point x="143" y="72"/>
      <point x="177" y="72" type="curve" smooth="yes"/>
      <point x="196" y="72"/>
      <point x="208" y="77"/>
      <point x="219" y="100" type="curve" smooth="yes"/>
      <point x="243" y="150"/>
      <point x="301" y="202"/>
      <point x="360" y="202" type="curve" smooth="yes"/>
      <point x="397" y="202"/>
      <point x="423" y="180"/>
      <point x="423" y="136" type="curve" smooth="yes"/>
      <point x="423" y="110"/>
      <point x="410" y="78"/>
      <point x="395" y="44" type="curve" smooth="yes"/>
      <point x="392" y="38"/>
      <point x="391" y="31"/>
      <point x="391" y="26" type="curve" smooth="yes"/>
      <point x="391" y="4"/>
      <point x="414" y="-8"/>
    </contour>
  </outline>
</glyph>
<glyph name="kj_LLA" format="2">
  <advance width="752"/>
  <unicode hex="1122B"/>
  <note>
kj_LLA
</note>
  <outline>
    <contour>
      <point x="208" y="87" type="curve" smooth="yes"/>
      <point x="159" y="87"/>
      <point x="127" y="119"/>
      <point x="127" y="174" type="curve" smooth="yes"/>
      <point x="127" y="241"/>
      <point x="174" y="295"/>
      <point x="239" y="295" type="curve" smooth="yes"/>
      <point x="290" y="295"/>
      <point x="326" y="266"/>
      <point x="326" y="210" type="curve" smooth="yes"/>
      <point x="326" y="140"/>
      <point x="268" y="87"/>
    </contour>
    <contour>
      <point x="504" y="88" type="curve" smooth="yes"/>
      <point x="450" y="88"/>
      <point x="412" y="135"/>
      <point x="399" y="201" type="curve"/>
      <point x="386" y="169" type="line"/>
      <point x="402" y="143" type="line"/>
      <point x="434" y="235"/>
      <point x="492" y="290"/>
      <point x="548" y="290" type="curve" smooth="yes"/>
      <point x="590" y="290"/>
      <point x="617" y="259"/>
      <point x="617" y="203" type="curve" smooth="yes"/>
      <point x="617" y="143"/>
      <point x="569" y="88"/>
    </contour>
    <contour>
      <point x="470" y="354" type="curve"/>
      <point x="475" y="330" type="line"/>
      <point x="495" y="361"/>
      <point x="500" y="387"/>
      <point x="500" y="430" type="curve" smooth="yes"/>
      <point x="500" y="510"/>
      <point x="444" y="560"/>
      <point x="371" y="560" type="curve" smooth="yes"/>
      <point x="348" y="560"/>
      <point x="336" y="532"/>
      <point x="336" y="509" type="curve" smooth="yes"/>
      <point x="336" y="493"/>
      <point x="342" y="480"/>
      <point x="354" y="479" type="curve" smooth="yes"/>
      <point x="415" y="474"/>
      <point x="419" y="441"/>
      <point x="419" y="413" type="curve" smooth="yes"/>
      <point x="419" y="376"/>
      <point x="405" y="317"/>
      <point x="362" y="272" type="curve"/>
      <point x="380" y="277" type="line"/>
      <point x="358" y="337"/>
      <point x="300" y="380"/>
      <point x="222" y="380" type="curve" smooth="yes"/>
      <point x="114" y="380"/>
      <point x="45" y="297"/>
      <point x="45" y="187" type="curve" smooth="yes"/>
      <point x="45" y="84"/>
      <point x="107" y="4"/>
      <point x="217" y="4" type="curve" smooth="yes"/>
      <point x="294" y="4"/>
      <point x="340" y="43"/>
      <point x="380" y="104" type="curve"/>
      <point x="355" y="122" type="line"/>
      <point x="384" y="50"/>
      <point x="443" y="4"/>
      <point x="529" y="4" type="curve" smooth="yes"/>
      <point x="623" y="4"/>
      <point x="697" y="81"/>
      <point x="697" y="191" type="curve" smooth="yes"/>
      <point x="697" y="295"/>
      <point x="643" y="377"/>
      <point x="548" y="377" type="curve" smooth="yes"/>
      <point x="515" y="377"/>
      <point x="485" y="367"/>
    </contour>
  </outline>
</glyph>
<glyph name="kj_vs_AA" format="2">
  <advance width="250"/>
  <unicode hex="1122C"/>
  <note>
kj_vs_AA
</note>
  <outline>
    <contour>
      <point x="40" y="33" type="curve" smooth="yes"/>
      <point x="40" y="9"/>
      <point x="67" y="-6"/>
      <point x="91" y="-6" type="curve" smooth="yes"/>
      <point x="107" y="-6"/>
      <point x="125" y="-3"/>
      <point x="133" y="17" type="curve" smooth="yes"/>
      <point x="164" y="100"/>
      <point x="180" y="205"/>
      <point x="180" y="326" type="curve" smooth="yes"/>
      <point x="180" y="405"/>
      <point x="167" y="473"/>
      <point x="152" y="514" type="curve" smooth="yes"/>
      <point x="142" y="542"/>
      <point x="132" y="556"/>
      <point x="106" y="556" type="curve" smooth="yes"/>
      <point x="84" y="556"/>
      <point x="57" y="539"/>
      <point x="57" y="510" type="curve" smooth="yes"/>
      <point x="57" y="483"/>
      <point x="93" y="425"/>
      <point x="93" y="321" type="curve" smooth="yes"/>
      <point x="93" y="133"/>
      <point x="40" y="59"/>
    </contour>
  </outline>
</glyph>
<glyph name="kj_vs_I" format="2">
  <advance width="390"/>
  <unicode hex="1122D"/>
  <note>
kj_vs_I
</note>
  <outline>
    <contour>
      <point x="62" y="-12" type="curve" smooth="yes"/>
      <point x="75" y="-12"/>
      <point x="99" y="-7"/>
      <point x="101" y="10" type="curve" smooth="yes"/>
      <point x="145" y="438" type="line" smooth="yes"/>
      <point x="156" y="547"/>
      <point x="171" y="640"/>
      <point x="259" y="640" type="curve" smooth="yes"/>
      <point x="309" y="640"/>
      <point x="340" y="598"/>
      <point x="362" y="598" type="curve" smooth="yes"/>
      <point x="375" y="598"/>
      <point x="384" y="613"/>
      <point x="384" y="627" type="curve" smooth="yes"/>
      <point x="384" y="650"/>
      <point x="372" y="667"/>
      <point x="359" y="680" type="curve" smooth="yes"/>
      <point x="334" y="705"/>
      <point x="293" y="720"/>
      <point x="252" y="720" type="curve" smooth="yes"/>
      <point x="124" y="720"/>
      <point x="81" y="609"/>
      <point x="66" y="466" type="curve" smooth="yes"/>
      <point x="26" y="97" type="line" smooth="yes"/>
      <point x="23" y="70"/>
      <point x="20" y="43"/>
      <point x="20" y="27" type="curve" smooth="yes"/>
      <point x="20" y="3"/>
      <point x="27" y="-12"/>
    </contour>
    <contour>
      <point x="358" y="485" type="move"/>
    </contour>
  </outline>
</glyph>
<glyph name="kj_vs_II" format="2">
  <advance width="225"/>
  <unicode hex="1122E"/>
  <note>
kj_vs_II
</note>
  <outline>
    <contour>
      <point x="129" y="502" type="curve" smooth="yes"/>
      <point x="129" y="654"/>
      <point x="69" y="720"/>
      <point x="-38" y="720" type="curve" smooth="yes"/>
      <point x="-123" y="720"/>
      <point x="-195" y="645"/>
      <point x="-195" y="575" type="curve" smooth="yes"/>
      <point x="-195" y="559"/>
      <point x="-181" y="551"/>
      <point x="-159" y="551" type="curve" smooth="yes"/>
      <point x="-138" y="551"/>
      <point x="-115" y="560"/>
      <point x="-112" y="570" type="curve" smooth="yes"/>
      <point x="-98" y="615"/>
      <point x="-68" y="640"/>
      <point x="-24" y="640" type="curve" smooth="yes"/>
      <point x="18" y="640"/>
      <point x="50" y="625"/>
      <point x="50" y="517" type="curve" smooth="yes"/>
      <point x="50" y="454"/>
      <point x="39" y="395"/>
      <point x="27" y="334" type="curve" smooth="yes"/>
      <point x="15" y="271"/>
      <point x="3" y="208"/>
      <point x="3" y="139" type="curve" smooth="yes"/>
      <point x="3" y="12"/>
      <point x="64" y="-52"/>
      <point x="148" y="-52" type="curve" smooth="yes"/>
      <point x="171" y="-52"/>
      <point x="193" y="-50"/>
      <point x="214" y="-39" type="curve" smooth="yes"/>
      <point x="220" y="-36"/>
      <point x="222" y="-28"/>
      <point x="222" y="-19" type="curve" smooth="yes"/>
      <point x="222" y="4"/>
      <point x="212" y="33"/>
      <point x="192" y="33" type="curve" smooth="yes"/>
      <point x="183" y="33"/>
      <point x="163" y="28"/>
      <point x="151" y="28" type="curve" smooth="yes"/>
      <point x="107" y="28"/>
      <point x="80" y="48"/>
      <point x="80" y="142" type="curve" smooth="yes"/>
      <point x="80" y="193"/>
      <point x="91" y="251"/>
      <point x="104" y="312" type="curve" smooth="yes"/>
      <point x="118" y="376"/>
      <point x="129" y="442"/>
    </contour>
  </outline>
</glyph>
<glyph name="kj_vs_U.ns" format="2">
  <unicode hex="1122F"/>
  <note>
kj_vs_U.ns
</note>
  <outline>
    <contour>
      <point x="-282" y="-90" type="curve" smooth="yes"/>
      <point x="-410" y="-90"/>
      <point x="-468" y="-30"/>
      <point x="-495" y="7" type="curve" smooth="yes"/>
      <point x="-507" y="24"/>
      <point x="-515" y="35"/>
      <point x="-526" y="35" type="curve" smooth="yes"/>
      <point x="-544" y="35"/>
      <point x="-548" y="1"/>
      <point x="-548" y="-22" type="curve" smooth="yes"/>
      <point x="-548" y="-89"/>
      <point x="-445" y="-170"/>
      <point x="-282" y="-170" type="curve" smooth="yes"/>
      <point x="-171" y="-170"/>
      <point x="-97" y="-138"/>
      <point x="-50" y="-102" type="curve" smooth="yes"/>
      <point x="-41" y="-95"/>
      <point x="-39" y="-84"/>
      <point x="-39" y="-75" type="curve" smooth="yes"/>
      <point x="-39" y="-54"/>
      <point x="-56" y="-31"/>
      <point x="-79" y="-31" type="curve" smooth="yes"/>
      <point x="-85" y="-31"/>
      <point x="-92" y="-32"/>
      <point x="-98" y="-36" type="curve" smooth="yes"/>
      <point x="-145" y="-65"/>
      <point x="-205" y="-90"/>
    </contour>
  </outline>
</glyph>
<glyph name="kj_vs_AI.ns" format="2">
  <unicode hex="11231"/>
  <note>
kj_vs_AI.ns
</note>
  <outline>
    <contour>
      <point x="-128" y="778" type="curve" smooth="yes"/>
      <point x="-195" y="902"/>
      <point x="-345" y="1007"/>
      <point x="-512" y="1026" type="curve"/>
      <point x="-533" y="1024"/>
      <point x="-551" y="1004"/>
      <point x="-551" y="975" type="curve" smooth="yes"/>
      <point x="-551" y="959"/>
      <point x="-546" y="947"/>
      <point x="-537" y="942" type="curve"/>
      <point x="-522" y="940"/>
      <point x="-495" y="936"/>
      <point x="-450" y="924" type="curve" smooth="yes"/>
      <point x="-315" y="888"/>
      <point x="-246" y="824"/>
      <point x="-193" y="746" type="curve" smooth="yes"/>
      <point x="-180" y="727"/>
      <point x="-173" y="710"/>
      <point x="-157" y="710" type="curve" smooth="yes"/>
      <point x="-139" y="710"/>
      <point x="-117" y="732"/>
      <point x="-117" y="747" type="curve" smooth="yes"/>
      <point x="-117" y="756"/>
      <point x="-121" y="765"/>
    </contour>
    <contour>
      <point x="-229" y="700" type="curve" smooth="yes"/>
      <point x="-323" y="825"/>
      <point x="-503" y="860"/>
      <point x="-673" y="860" type="curve"/>
      <point x="-695" y="852"/>
      <point x="-703" y="826"/>
      <point x="-703" y="807" type="curve" smooth="yes"/>
      <point x="-703" y="790"/>
      <point x="-691" y="772"/>
      <point x="-678" y="772" type="curve" smooth="yes"/>
      <point x="-670" y="772"/>
      <point x="-644" y="774"/>
      <point x="-626" y="774" type="curve" smooth="yes"/>
      <point x="-467" y="774"/>
      <point x="-364" y="733"/>
      <point x="-298" y="667" type="curve" smooth="yes"/>
      <point x="-281" y="650"/>
      <point x="-271" y="640"/>
      <point x="-259" y="640" type="curve" smooth="yes"/>
      <point x="-241" y="640"/>
      <point x="-221" y="653"/>
      <point x="-221" y="676" type="curve" smooth="yes"/>
      <point x="-221" y="684"/>
      <point x="-223" y="692"/>
    </contour>
  </outline>
</glyph>
<glyph name="Anusvara" format="2">
  <unicode hex="11234"/>
  <note>
u11234
</note>
  <outline>
    <contour>
      <point x="-259" y="690" type="curve" smooth="yes"/>
      <point x="-259" y="651"/>
      <point x="-223" y="620"/>
      <point x="-178" y="620" type="curve" smooth="yes"/>
      <point x="-133" y="620"/>
      <point x="-96" y="651"/>
      <point x="-96" y="690" type="curve" smooth="yes"/>
      <point x="-96" y="729"/>
      <point x="-133" y="761"/>
      <point x="-178" y="761" type="curve" smooth="yes"/>
      <point x="-223" y="761"/>
      <point x="-259" y="729"/>
    </contour>
  </outline>
</glyph>
<glyph name="virama" format="2">
  <advance width="293"/>
  <unicode hex="11235"/>
  <note>
virama
</note>
  <outline>
    <contour>
      <point x="170" y="525" type="curve" smooth="yes"/>
      <point x="49" y="57" type="line" smooth="yes"/>
      <point x="47" y="50"/>
      <point x="40" y="24"/>
      <point x="40" y="17" type="curve" smooth="yes"/>
      <point x="40" y="2"/>
      <point x="59" y="-12"/>
      <point x="85" y="-12" type="curve" smooth="yes"/>
      <point x="101" y="-12"/>
      <point x="114" y="-8"/>
      <point x="122" y="23" type="curve" smooth="yes"/>
      <point x="245" y="488" type="line" smooth="yes"/>
      <point x="247" y="494"/>
      <point x="253" y="524"/>
      <point x="253" y="531" type="curve" smooth="yes"/>
      <point x="253" y="546"/>
      <point x="233" y="560"/>
      <point x="207" y="560" type="curve" smooth="yes"/>
      <point x="191" y="560"/>
      <point x="178" y="557"/>
    </contour>
  </outline>
</glyph>
<glyph name="Nukta" format="2">
  <unicode hex="11236"/>
  <note>
u11236
</note>
  <outline>
    <contour>
      <point x="-145" y="682" type="curve" smooth="yes"/>
      <point x="-145" y="648"/>
      <point x="-113" y="620"/>
      <point x="-73" y="620" type="curve" smooth="yes"/>
      <point x="-33" y="620"/>
      <point x="0" y="648"/>
      <point x="0" y="682" type="curve" smooth="yes"/>
      <point x="0" y="717"/>
      <point x="-33" y="745"/>
      <point x="-73" y="745" type="curve" smooth="yes"/>
      <point x="-113" y="745"/>
      <point x="-145" y="717"/>
    </contour>
    <contour>
      <point x="-345" y="682" type="curve" smooth="yes"/>
      <point x="-345" y="648"/>
      <point x="-313" y="620"/>
      <point x="-273" y="620" type="curve" smooth="yes"/>
      <point x="-233" y="620"/>
      <point x="-200" y="648"/>
      <point x="-200" y="682" type="curve" smooth="yes"/>
      <point x="-200" y="717"/>
      <point x="-233" y="745"/>
      <point x="-273" y="745" type="curve" smooth="yes"/>
      <point x="-313" y="745"/>
      <point x="-345" y="717"/>
    </contour>
    <contour>
      <point x="-245" y="821" type="curve" smooth="yes"/>
      <point x="-245" y="787"/>
      <point x="-213" y="759"/>
      <point x="-173" y="759" type="curve" smooth="yes"/>
      <point x="-133" y="759"/>
      <point x="-100" y="787"/>
      <point x="-100" y="821" type="curve" smooth="yes"/>
      <point x="-100" y="856"/>
      <point x="-133" y="884"/>
      <point x="-173" y="884" type="curve" smooth="yes"/>
      <point x="-213" y="884"/>
      <point x="-245" y="856"/>
    </contour>
  </outline>
</glyph>
<glyph name="u11238" format="2">
  <advance width="385"/>
  <unicode hex="11238"/>
  <note>
u11238
</note>
  <outline>
    <contour>
      <point x="315" y="83" type="curve" smooth="yes"/>
      <point x="306" y="83"/>
      <point x="286" y="78"/>
      <point x="268" y="78" type="curve" smooth="yes"/>
      <point x="233" y="78"/>
      <point x="214" y="101"/>
      <point x="214" y="168" type="curve" smooth="yes"/>
      <point x="214" y="233"/>
      <point x="224" y="280"/>
      <point x="235" y="329" type="curve" smooth="yes"/>
      <point x="245" y="372"/>
      <point x="254" y="413"/>
      <point x="254" y="463" type="curve" smooth="yes"/>
      <point x="254" y="557"/>
      <point x="215" y="624"/>
      <point x="121" y="624" type="curve" smooth="yes"/>
      <point x="98" y="624"/>
      <point x="69" y="622"/>
      <point x="48" y="611" type="curve" smooth="yes"/>
      <point x="42" y="608"/>
      <point x="40" y="600"/>
      <point x="40" y="591" type="curve" smooth="yes"/>
      <point x="40" y="568"/>
      <point x="50" y="539"/>
      <point x="70" y="539" type="curve" smooth="yes"/>
      <point x="79" y="539"/>
      <point x="99" y="544"/>
      <point x="117" y="544" type="curve" smooth="yes"/>
      <point x="152" y="544"/>
      <point x="171" y="521"/>
      <point x="171" y="454" type="curve" smooth="yes"/>
      <point x="171" y="404"/>
      <point x="162" y="363"/>
      <point x="152" y="320" type="curve" smooth="yes"/>
      <point x="141" y="272"/>
      <point x="131" y="224"/>
      <point x="131" y="159" type="curve" smooth="yes"/>
      <point x="131" y="65"/>
      <point x="170" y="-2"/>
      <point x="264" y="-2" type="curve" smooth="yes"/>
      <point x="287" y="-2"/>
      <point x="316" y="0"/>
      <point x="337" y="11" type="curve" smooth="yes"/>
      <point x="343" y="14"/>
      <point x="345" y="22"/>
      <point x="345" y="31" type="curve" smooth="yes"/>
      <point x="345" y="54"/>
      <point x="335" y="83"/>
    </contour>
  </outline>
</glyph>
<glyph name="u1123A" format="2">
  <advance width="246"/>
  <unicode hex="1123A"/>
  <note>
u1123A
</note>
  <outline>
    <contour>
      <point x="48" y="422" type="curve" smooth="yes"/>
      <point x="48" y="384"/>
      <point x="80" y="353"/>
      <point x="121" y="353" type="curve" smooth="yes"/>
      <point x="162" y="353"/>
      <point x="195" y="384"/>
      <point x="195" y="422" type="curve" smooth="yes"/>
      <point x="195" y="460"/>
      <point x="162" y="492"/>
      <point x="121" y="492" type="curve" smooth="yes"/>
      <point x="80" y="492"/>
      <point x="48" y="460"/>
    </contour>
    <contour>
      <point x="48" y="126" type="curve" smooth="yes"/>
      <point x="48" y="88"/>
      <point x="80" y="57"/>
      <point x="121" y="57" type="curve" smooth="yes"/>
      <point x="162" y="57"/>
      <point x="195" y="88"/>
      <point x="195" y="126" type="curve" smooth="yes"/>
      <point x="195" y="164"/>
      <point x="162" y="196"/>
      <point x="121" y="196" type="curve" smooth="yes"/>
      <point x="80" y="196"/>
      <point x="48" y="164"/>
    </contour>
  </outline>
</glyph>
<glyph name="u1123B" format="2">
  <advance width="974"/>
  <unicode hex="1123B"/>
  <note>
u1123B
</note>
  <outline>
    <contour>
      <point x="905" y="305" type="curve" smooth="yes"/>
      <point x="236" y="305" type="line" smooth="yes"/>
      <point x="164" y="305"/>
      <point x="145" y="336"/>
      <point x="112" y="388" type="curve" smooth="yes"/>
      <point x="109" y="393"/>
      <point x="104" y="400"/>
      <point x="87" y="400" type="curve" smooth="yes"/>
      <point x="66" y="400"/>
      <point x="40" y="378"/>
      <point x="40" y="357" type="curve" smooth="yes"/>
      <point x="40" y="350"/>
      <point x="42" y="347"/>
      <point x="44" y="344" type="curve" smooth="yes"/>
      <point x="60" y="314"/>
      <point x="105" y="230"/>
      <point x="235" y="230" type="curve" smooth="yes"/>
      <point x="898" y="230" type="line" smooth="yes"/>
      <point x="922" y="230"/>
      <point x="934" y="257"/>
      <point x="934" y="277" type="curve" smooth="yes"/>
      <point x="934" y="294"/>
      <point x="918" y="305"/>
    </contour>
  </outline>
</glyph>
<glyph name="u1123C" format="2">
  <advance width="974"/>
  <unicode hex="1123C"/>
  <note>
u1123C
</note>
  <outline>
    <contour>
      <point x="905" y="305" type="curve" smooth="yes"/>
      <point x="236" y="305" type="line" smooth="yes"/>
      <point x="164" y="305"/>
      <point x="145" y="336"/>
      <point x="112" y="388" type="curve" smooth="yes"/>
      <point x="109" y="393"/>
      <point x="104" y="400"/>
      <point x="87" y="400" type="curve" smooth="yes"/>
      <point x="66" y="400"/>
      <point x="40" y="378"/>
      <point x="40" y="357" type="curve" smooth="yes"/>
      <point x="40" y="350"/>
      <point x="42" y="347"/>
      <point x="44" y="344" type="curve" smooth="yes"/>
      <point x="60" y="314"/>
      <point x="105" y="230"/>
      <point x="235" y="230" type="curve" smooth="yes"/>
      <point x="898" y="230" type="line" smooth="yes"/>
      <point x="922" y="230"/>
      <point x="934" y="257"/>
      <point x="934" y="277" type="curve" smooth="yes"/>
      <point x="934" y="294"/>
      <point x="918" y="305"/>
    </contour>
    <contour>
      <point x="905" y="75" type="curve" smooth="yes"/>
      <point x="236" y="75" type="line" smooth="yes"/>
      <point x="164" y="75"/>
      <point x="145" y="106"/>
      <point x="112" y="158" type="curve" smooth="yes"/>
      <point x="109" y="163"/>
      <point x="104" y="170"/>
      <point x="87" y="170" type="curve" smooth="yes"/>
      <point x="66" y="170"/>
      <point x="40" y="148"/>
      <point x="40" y="127" type="curve" smooth="yes"/>
      <point x="40" y="120"/>
      <point x="42" y="117"/>
      <point x="44" y="114" type="curve" smooth="yes"/>
      <point x="60" y="84"/>
      <point x="105" y="0"/>
      <point x="235" y="0" type="curve" smooth="yes"/>
      <point x="898" y="0" type="line" smooth="yes"/>
      <point x="922" y="0"/>
      <point x="934" y="27"/>
      <point x="934" y="47" type="curve" smooth="yes"/>
      <point x="934" y="64"/>
      <point x="918" y="75"/>
    </contour>
  </outline>
</glyph>
<glyph name="u1123D" format="2">
  <advance width="416"/>
  <unicode hex="1123D"/>
  <note>
u1123D
</note>
  <outline>
    <contour>
      <point x="211" y="305" type="curve" smooth="yes"/>
      <point x="102" y="305"/>
      <point x="40" y="230"/>
      <point x="40" y="143" type="curve" smooth="yes"/>
      <point x="40" y="50"/>
      <point x="106" y="-12"/>
      <point x="204" y="-12" type="curve" smooth="yes"/>
      <point x="310" y="-12"/>
      <point x="376" y="61"/>
      <point x="376" y="150" type="curve" smooth="yes"/>
      <point x="376" y="243"/>
      <point x="299" y="305"/>
    </contour>
    <contour>
      <point x="204" y="61" type="curve" smooth="yes"/>
      <point x="149" y="61"/>
      <point x="118" y="93"/>
      <point x="118" y="142" type="curve" smooth="yes"/>
      <point x="118" y="190"/>
      <point x="152" y="232"/>
      <point x="211" y="232" type="curve" smooth="yes"/>
      <point x="265" y="232"/>
      <point x="295" y="196"/>
      <point x="295" y="148" type="curve" smooth="yes"/>
      <point x="295" y="94"/>
      <point x="247" y="61"/>
    </contour>
  </outline>
</glyph>
<glyph name="u1123E" format="2">
  <unicode hex="1123E"/>
  <note>
u1123E
</note>
  <outline>
    <contour>
      <point x="-280" y="753" type="curve" smooth="yes"/>
      <point x="-277" y="786"/>
      <point x="-252" y="809"/>
      <point x="-219" y="809" type="curve" smooth="yes"/>
      <point x="-183" y="809"/>
      <point x="-157" y="783"/>
      <point x="-157" y="751" type="curve" smooth="yes"/>
      <point x="-157" y="713"/>
      <point x="-181" y="691"/>
      <point x="-214" y="684" type="curve" smooth="yes"/>
      <point x="-224" y="682"/>
      <point x="-228" y="672"/>
      <point x="-228" y="661" type="curve" smooth="yes"/>
      <point x="-228" y="642"/>
      <point x="-216" y="620"/>
      <point x="-199" y="620" type="curve" smooth="yes"/>
      <point x="-191" y="620"/>
      <point x="-179" y="624"/>
      <point x="-170" y="628" type="curve" smooth="yes"/>
      <point x="-121" y="648"/>
      <point x="-87" y="693"/>
      <point x="-87" y="747" type="curve" smooth="yes"/>
      <point x="-87" y="819"/>
      <point x="-142" y="877"/>
      <point x="-220" y="877" type="curve" smooth="yes"/>
      <point x="-286" y="877"/>
      <point x="-339" y="828"/>
      <point x="-348" y="771" type="curve" smooth="yes"/>
      <point x="-349" y="767"/>
      <point x="-350" y="762"/>
      <point x="-350" y="761" type="curve" smooth="yes"/>
      <point x="-350" y="747"/>
      <point x="-329" y="740"/>
      <point x="-309" y="740" type="curve" smooth="yes"/>
      <point x="-294" y="740"/>
      <point x="-281" y="743"/>
    </contour>
  </outline>
</glyph>
<glyph name="Anusvara.alt" format="2">
  <note>
Anusvara.alt
</note>
  <outline>
    <contour>
      <point x="-319" y="719" type="curve" smooth="yes"/>
      <point x="-319" y="657"/>
      <point x="-269" y="605"/>
      <point x="-206" y="605" type="curve" smooth="yes"/>
      <point x="-144" y="605"/>
      <point x="-94" y="650"/>
      <point x="-94" y="713" type="curve" smooth="yes"/>
      <point x="-94" y="777"/>
      <point x="-143" y="829"/>
      <point x="-209" y="829" type="curve" smooth="yes"/>
      <point x="-272" y="829"/>
      <point x="-319" y="782"/>
    </contour>
    <contour>
      <point x="-257" y="710" type="curve" smooth="yes"/>
      <point x="-257" y="743"/>
      <point x="-229" y="767"/>
      <point x="-200" y="767" type="curve" smooth="yes"/>
      <point x="-174" y="767"/>
      <point x="-156" y="750"/>
      <point x="-156" y="723" type="curve" smooth="yes"/>
      <point x="-156" y="691"/>
      <point x="-179" y="666"/>
      <point x="-213" y="666" type="curve" smooth="yes"/>
      <point x="-237" y="666"/>
      <point x="-257" y="681"/>
    </contour>
  </outline>
</glyph>
<glyph name="BBU" format="2">
  <advance width="681"/>
  <note>
BBU
</note>
  <outline>
    <contour>
      <point x="241" y="354" type="curve" smooth="yes"/>
      <point x="241" y="219"/>
      <point x="177" y="124"/>
      <point x="177" y="103" type="curve" smooth="yes"/>
      <point x="177" y="79"/>
      <point x="204" y="64"/>
      <point x="228" y="64" type="curve" smooth="yes"/>
      <point x="244" y="64"/>
      <point x="262" y="67"/>
      <point x="270" y="87" type="curve" smooth="yes"/>
      <point x="288" y="132"/>
      <point x="324" y="226"/>
      <point x="324" y="334" type="curve" smooth="yes"/>
      <point x="324" y="489"/>
      <point x="248" y="553"/>
      <point x="158" y="553" type="curve" smooth="yes"/>
      <point x="66" y="553"/>
      <point x="27" y="491"/>
      <point x="27" y="420" type="curve" smooth="yes"/>
      <point x="27" y="324"/>
      <point x="109" y="245"/>
      <point x="251" y="245" type="curve" smooth="yes"/>
      <point x="534" y="245" type="line"/>
      <point x="534" y="320" type="line"/>
      <point x="289" y="320" type="line" smooth="yes"/>
      <point x="177" y="320"/>
      <point x="110" y="339"/>
      <point x="110" y="410" type="curve" smooth="yes"/>
      <point x="110" y="444"/>
      <point x="128" y="472"/>
      <point x="176" y="472" type="curve" smooth="yes"/>
      <point x="211" y="472"/>
      <point x="241" y="440"/>
    </contour>
    <contour>
      <point x="524" y="249" type="curve" smooth="yes"/>
      <point x="524" y="61"/>
      <point x="440" y="-66"/>
      <point x="280" y="-66" type="curve" smooth="yes"/>
      <point x="176" y="-66"/>
      <point x="106" y="-18"/>
      <point x="77" y="20" type="curve" smooth="yes"/>
      <point x="64" y="37"/>
      <point x="57" y="48"/>
      <point x="46" y="48" type="curve" smooth="yes"/>
      <point x="28" y="48"/>
      <point x="24" y="14"/>
      <point x="24" y="-9" type="curve" smooth="yes"/>
      <point x="24" y="-76"/>
      <point x="147" y="-150"/>
      <point x="288" y="-150" type="curve" smooth="yes"/>
      <point x="512" y="-150"/>
      <point x="611" y="14"/>
      <point x="611" y="248" type="curve" smooth="yes"/>
      <point x="611" y="352"/>
      <point x="597" y="435"/>
      <point x="577" y="496" type="curve" smooth="yes"/>
      <point x="562" y="542"/>
      <point x="549" y="556"/>
      <point x="523" y="556" type="curve" smooth="yes"/>
      <point x="501" y="556"/>
      <point x="474" y="539"/>
      <point x="474" y="510" type="curve" smooth="yes"/>
      <point x="474" y="483"/>
      <point x="524" y="415"/>
    </contour>
  </outline>
</glyph>
<glyph name="BHRA" format="2">
  <advance width="825"/>
  <outline>
    <contour>
      <point x="666" y="-6" type="curve" smooth="yes"/>
      <point x="682" y="-6"/>
      <point x="700" y="-3"/>
      <point x="708" y="17" type="curve" smooth="yes"/>
      <point x="741" y="99"/>
      <point x="755" y="205"/>
      <point x="755" y="316" type="curve" smooth="yes"/>
      <point x="755" y="405"/>
      <point x="742" y="473"/>
      <point x="727" y="514" type="curve" smooth="yes"/>
      <point x="717" y="542"/>
      <point x="707" y="556"/>
      <point x="681" y="556" type="curve" smooth="yes"/>
      <point x="659" y="556"/>
      <point x="632" y="539"/>
      <point x="632" y="510" type="curve" smooth="yes"/>
      <point x="632" y="483"/>
      <point x="668" y="425"/>
      <point x="668" y="321" type="curve" smooth="yes"/>
      <point x="668" y="133"/>
      <point x="615" y="59"/>
      <point x="615" y="33" type="curve" smooth="yes"/>
      <point x="615" y="9"/>
      <point x="642" y="-6"/>
    </contour>
    <contour>
      <point x="447" y="243" type="line"/>
      <point x="685" y="243" type="line"/>
      <point x="685" y="318" type="line"/>
      <point x="400" y="318" type="line"/>
    </contour>
    <contour>
      <point x="467" y="244" type="curve" smooth="yes"/>
      <point x="467" y="397"/>
      <point x="360" y="449"/>
      <point x="286" y="449" type="curve" smooth="yes"/>
      <point x="215" y="449"/>
      <point x="183" y="458"/>
      <point x="175" y="496" type="curve" smooth="yes"/>
      <point x="171" y="516"/>
      <point x="169" y="537"/>
      <point x="146" y="537" type="curve" smooth="yes"/>
      <point x="126" y="537"/>
      <point x="100" y="522"/>
      <point x="100" y="493" type="curve" smooth="yes"/>
      <point x="100" y="407"/>
      <point x="167" y="365"/>
      <point x="270" y="365" type="curve" smooth="yes"/>
      <point x="336" y="365"/>
      <point x="389" y="335"/>
      <point x="389" y="254" type="curve" smooth="yes"/>
      <point x="389" y="180"/>
      <point x="339" y="148"/>
      <point x="278" y="148" type="curve" smooth="yes"/>
      <point x="200" y="148"/>
      <point x="151" y="199"/>
      <point x="128" y="239" type="curve" smooth="yes"/>
      <point x="117" y="258"/>
      <point x="108" y="276"/>
      <point x="96" y="276" type="curve" smooth="yes"/>
      <point x="75" y="276"/>
      <point x="67" y="231"/>
      <point x="67" y="209" type="curve" smooth="yes"/>
      <point x="67" y="153"/>
      <point x="159" y="64"/>
      <point x="279" y="64" type="curve" smooth="yes"/>
      <point x="385" y="64"/>
      <point x="467" y="123"/>
    </contour>
    <contour>
      <point x="515" y="6" type="curve" smooth="yes"/>
      <point x="699" y="249" type="line" smooth="yes"/>
      <point x="705" y="256"/>
      <point x="705" y="264"/>
      <point x="703" y="274" type="curve" smooth="yes"/>
      <point x="699" y="295"/>
      <point x="672" y="316"/>
      <point x="651" y="312" type="curve" smooth="yes"/>
      <point x="646" y="311"/>
      <point x="643" y="308"/>
      <point x="640" y="304" type="curve" smooth="yes"/>
      <point x="451" y="56" type="line" smooth="yes"/>
      <point x="441" y="43"/>
      <point x="442" y="35"/>
      <point x="445" y="23" type="curve" smooth="yes"/>
      <point x="449" y="6"/>
      <point x="476" y="-11"/>
      <point x="497" y="-6" type="curve" smooth="yes"/>
      <point x="505" y="-4"/>
      <point x="512" y="2"/>
    </contour>
  </outline>
</glyph>
<glyph name="BHU" format="2">
  <advance width="764"/>
  <note>
BHU
</note>
  <outline>
    <contour>
      <point x="452" y="243" type="line"/>
      <point x="610" y="243" type="line"/>
      <point x="610" y="318" type="line"/>
      <point x="405" y="318" type="line"/>
    </contour>
    <contour>
      <point x="472" y="259" type="curve" smooth="yes"/>
      <point x="472" y="412"/>
      <point x="365" y="449"/>
      <point x="291" y="449" type="curve" smooth="yes"/>
      <point x="220" y="449"/>
      <point x="188" y="458"/>
      <point x="180" y="496" type="curve" smooth="yes"/>
      <point x="176" y="516"/>
      <point x="174" y="537"/>
      <point x="151" y="537" type="curve" smooth="yes"/>
      <point x="131" y="537"/>
      <point x="105" y="522"/>
      <point x="105" y="493" type="curve" smooth="yes"/>
      <point x="105" y="407"/>
      <point x="172" y="365"/>
      <point x="275" y="365" type="curve" smooth="yes"/>
      <point x="341" y="365"/>
      <point x="394" y="350"/>
      <point x="394" y="269" type="curve" smooth="yes"/>
      <point x="394" y="195"/>
      <point x="344" y="163"/>
      <point x="283" y="163" type="curve" smooth="yes"/>
      <point x="205" y="163"/>
      <point x="156" y="214"/>
      <point x="133" y="254" type="curve" smooth="yes"/>
      <point x="122" y="273"/>
      <point x="113" y="291"/>
      <point x="101" y="291" type="curve" smooth="yes"/>
      <point x="80" y="291"/>
      <point x="72" y="246"/>
      <point x="72" y="224" type="curve" smooth="yes"/>
      <point x="72" y="168"/>
      <point x="164" y="79"/>
      <point x="284" y="79" type="curve" smooth="yes"/>
      <point x="390" y="79"/>
      <point x="472" y="138"/>
    </contour>
    <contour>
      <point x="607" y="249" type="curve" smooth="yes"/>
      <point x="607" y="51"/>
      <point x="507" y="-66"/>
      <point x="335" y="-66" type="curve" smooth="yes"/>
      <point x="223" y="-66"/>
      <point x="159" y="-19"/>
      <point x="122" y="22" type="curve" smooth="yes"/>
      <point x="108" y="38"/>
      <point x="100" y="48"/>
      <point x="89" y="48" type="curve" smooth="yes"/>
      <point x="71" y="48"/>
      <point x="67" y="14"/>
      <point x="67" y="-9" type="curve" smooth="yes"/>
      <point x="67" y="-76"/>
      <point x="183" y="-150"/>
      <point x="344" y="-150" type="curve" smooth="yes"/>
      <point x="592" y="-150"/>
      <point x="694" y="14"/>
      <point x="694" y="248" type="curve" smooth="yes"/>
      <point x="694" y="352"/>
      <point x="680" y="435"/>
      <point x="660" y="496" type="curve" smooth="yes"/>
      <point x="645" y="542"/>
      <point x="632" y="556"/>
      <point x="606" y="556" type="curve" smooth="yes"/>
      <point x="584" y="556"/>
      <point x="557" y="539"/>
      <point x="557" y="510" type="curve" smooth="yes"/>
      <point x="557" y="483"/>
      <point x="607" y="415"/>
    </contour>
  </outline>
</glyph>
<glyph name="BU" format="2">
  <advance width="961"/>
  <note>
BU
</note>
  <outline>
    <contour>
      <point x="494" y="468" type="curve" smooth="yes"/>
      <point x="536" y="468"/>
      <point x="567" y="454"/>
      <point x="567" y="410" type="curve" smooth="yes"/>
      <point x="567" y="397"/>
      <point x="565" y="387"/>
      <point x="562" y="379" type="curve"/>
      <point x="626" y="423" type="line"/>
      <point x="623" y="503"/>
      <point x="576" y="555"/>
      <point x="491" y="555" type="curve" smooth="yes"/>
      <point x="346" y="555"/>
      <point x="244" y="386"/>
      <point x="244" y="290" type="curve" smooth="yes"/>
      <point x="244" y="267"/>
      <point x="268" y="244"/>
      <point x="301" y="244" type="curve" smooth="yes"/>
      <point x="350" y="244"/>
      <point x="356" y="333"/>
      <point x="360" y="416" type="curve"/>
      <point x="335" y="365" type="line"/>
      <point x="333" y="312" type="line"/>
      <point x="360" y="406"/>
      <point x="428" y="468"/>
    </contour>
    <contour>
      <point x="348" y="470" type="line"/>
      <point x="328" y="528"/>
      <point x="286" y="556"/>
      <point x="230" y="556" type="curve" smooth="yes"/>
      <point x="189" y="556"/>
      <point x="169" y="556"/>
      <point x="150" y="560" type="curve" smooth="yes"/>
      <point x="121" y="566"/>
      <point x="116" y="584"/>
      <point x="112" y="601" type="curve" smooth="yes"/>
      <point x="109" y="615"/>
      <point x="104" y="627"/>
      <point x="85" y="627" type="curve" smooth="yes"/>
      <point x="65" y="627"/>
      <point x="41" y="609"/>
      <point x="41" y="580" type="curve" smooth="yes"/>
      <point x="41" y="538"/>
      <point x="64" y="476"/>
      <point x="177" y="476" type="curve" smooth="yes"/>
      <point x="241" y="476"/>
      <point x="285" y="474"/>
      <point x="296" y="419" type="curve"/>
    </contour>
    <contour>
      <point x="892" y="365" type="curve" smooth="yes"/>
      <point x="892" y="455"/>
      <point x="863" y="553"/>
      <point x="745" y="553" type="curve" smooth="yes"/>
      <point x="619" y="553"/>
      <point x="512" y="371"/>
      <point x="512" y="270" type="curve" smooth="yes"/>
      <point x="512" y="248"/>
      <point x="540" y="224"/>
      <point x="569" y="224" type="curve" smooth="yes"/>
      <point x="584" y="224"/>
      <point x="593" y="227"/>
      <point x="599" y="234" type="curve"/>
      <point x="617" y="339"/>
      <point x="684" y="466"/>
      <point x="748" y="466" type="curve" smooth="yes"/>
      <point x="792" y="466"/>
      <point x="805" y="435"/>
      <point x="805" y="377" type="curve" smooth="yes"/>
      <point x="805" y="205"/>
      <point x="683" y="66"/>
      <point x="441" y="66" type="curve" smooth="yes"/>
      <point x="272" y="66"/>
      <point x="155" y="131"/>
      <point x="99" y="213" type="curve" smooth="yes"/>
      <point x="70" y="256"/>
      <point x="72" y="275"/>
      <point x="55" y="275" type="curve" smooth="yes"/>
      <point x="37" y="275"/>
      <point x="30" y="243"/>
      <point x="30" y="214" type="curve" smooth="yes"/>
      <point x="30" y="120"/>
      <point x="175" y="-18"/>
      <point x="445" y="-18" type="curve" smooth="yes"/>
      <point x="760" y="-18"/>
      <point x="892" y="170"/>
    </contour>
  </outline>
</glyph>
<glyph name="CHU" format="2">
  <advance width="773"/>
  <note>
CHU
</note>
  <outline>
    <contour>
      <point x="512" y="38" type="line"/>
      <point x="543" y="32"/>
      <point x="575" y="12"/>
      <point x="575" y="-27" type="curve" smooth="yes"/>
      <point x="575" y="-74"/>
      <point x="523" y="-107"/>
      <point x="412" y="-107" type="curve" smooth="yes"/>
      <point x="284" y="-107"/>
      <point x="192" y="-53"/>
      <point x="136" y="17" type="curve" smooth="yes"/>
      <point x="105" y="56"/>
      <point x="102" y="79"/>
      <point x="85" y="79" type="curve" smooth="yes"/>
      <point x="67" y="79"/>
      <point x="62" y="47"/>
      <point x="62" y="18" type="curve" smooth="yes"/>
      <point x="62" y="-48"/>
      <point x="195" y="-189"/>
      <point x="421" y="-189" type="curve" smooth="yes"/>
      <point x="582" y="-189"/>
      <point x="653" y="-121"/>
      <point x="653" y="-36" type="curve" smooth="yes"/>
      <point x="653" y="19"/>
      <point x="620" y="65"/>
      <point x="572" y="85" type="curve"/>
      <point x="580" y="60" type="line"/>
      <point x="609" y="81"/>
      <point x="623" y="121"/>
      <point x="623" y="147" type="curve" smooth="yes"/>
      <point x="623" y="214"/>
      <point x="594" y="243"/>
      <point x="564" y="273" type="curve" smooth="yes"/>
      <point x="538" y="299"/>
      <point x="513" y="324"/>
      <point x="513" y="370" type="curve" smooth="yes"/>
      <point x="513" y="412"/>
      <point x="539" y="437"/>
      <point x="573" y="437" type="curve" smooth="yes"/>
      <point x="612" y="437"/>
      <point x="630" y="412"/>
      <point x="630" y="378" type="curve" smooth="yes"/>
      <point x="630" y="310"/>
      <point x="586" y="257"/>
      <point x="459" y="257" type="curve" smooth="yes"/>
      <point x="170" y="257" type="line"/>
      <point x="199" y="240" type="line"/>
      <point x="282" y="291"/>
      <point x="330" y="340"/>
      <point x="330" y="408" type="curve" smooth="yes"/>
      <point x="330" y="516"/>
      <point x="259" y="558"/>
      <point x="163" y="558" type="curve" smooth="yes"/>
      <point x="101" y="558"/>
      <point x="20" y="533"/>
      <point x="20" y="488" type="curve" smooth="yes"/>
      <point x="20" y="465"/>
      <point x="36" y="437"/>
      <point x="58" y="437" type="curve" smooth="yes"/>
      <point x="89" y="437"/>
      <point x="119" y="476"/>
      <point x="176" y="476" type="curve" smooth="yes"/>
      <point x="219" y="476"/>
      <point x="250" y="464"/>
      <point x="250" y="416" type="curve" smooth="yes"/>
      <point x="250" y="339"/>
      <point x="153" y="292"/>
      <point x="84" y="261" type="curve" smooth="yes"/>
      <point x="75" y="257"/>
      <point x="72" y="250"/>
      <point x="72" y="240" type="curve" smooth="yes"/>
      <point x="72" y="217"/>
      <point x="111" y="182"/>
      <point x="145" y="182" type="curve" smooth="yes"/>
      <point x="466" y="182" type="line" smooth="yes"/>
      <point x="649" y="182"/>
      <point x="705" y="279"/>
      <point x="705" y="365" type="curve" smooth="yes"/>
      <point x="705" y="451"/>
      <point x="653" y="517"/>
      <point x="561" y="517" type="curve" smooth="yes"/>
      <point x="486" y="517"/>
      <point x="429" y="468"/>
      <point x="429" y="382" type="curve" smooth="yes"/>
      <point x="429" y="309"/>
      <point x="468" y="274"/>
      <point x="503" y="244" type="curve" smooth="yes"/>
      <point x="532" y="219"/>
      <point x="555" y="198"/>
      <point x="555" y="162" type="curve" smooth="yes"/>
      <point x="555" y="119"/>
      <point x="512" y="96"/>
      <point x="420" y="93" type="curve" smooth="yes"/>
      <point x="407" y="93"/>
      <point x="399" y="76"/>
      <point x="399" y="61" type="curve" smooth="yes"/>
      <point x="399" y="41"/>
      <point x="412" y="16"/>
      <point x="442" y="16" type="curve" smooth="yes"/>
      <point x="486" y="16"/>
      <point x="520" y="25"/>
      <point x="551" y="38" type="curve"/>
    </contour>
  </outline>
</glyph>
<glyph name="CU" format="2">
  <advance width="682"/>
  <note>
CU
</note>
  <outline>
    <contour>
      <point x="276" y="384" type="curve"/>
      <point x="264" y="357" type="line"/>
      <point x="528" y="357" type="line"/>
      <point x="528" y="432" type="line"/>
      <point x="170" y="432" type="line"/>
      <point x="162" y="430"/>
      <point x="147" y="412"/>
      <point x="147" y="393" type="curve" smooth="yes"/>
      <point x="147" y="378"/>
      <point x="156" y="370"/>
      <point x="185" y="361" type="curve" smooth="yes"/>
      <point x="240" y="344"/>
      <point x="306" y="303"/>
      <point x="306" y="233" type="curve" smooth="yes"/>
      <point x="306" y="177"/>
      <point x="272" y="148"/>
      <point x="218" y="148" type="curve" smooth="yes"/>
      <point x="148" y="148"/>
      <point x="102" y="201"/>
      <point x="81" y="239" type="curve" smooth="yes"/>
      <point x="71" y="258"/>
      <point x="61" y="276"/>
      <point x="49" y="276" type="curve" smooth="yes"/>
      <point x="28" y="276"/>
      <point x="20" y="231"/>
      <point x="20" y="209" type="curve" smooth="yes"/>
      <point x="20" y="153"/>
      <point x="112" y="64"/>
      <point x="222" y="64" type="curve" smooth="yes"/>
      <point x="331" y="64"/>
      <point x="390" y="118"/>
      <point x="390" y="212" type="curve" smooth="yes"/>
      <point x="390" y="301"/>
      <point x="335" y="355"/>
    </contour>
    <contour>
      <point x="525" y="249" type="curve" smooth="yes"/>
      <point x="525" y="61"/>
      <point x="455" y="-66"/>
      <point x="265" y="-66" type="curve" smooth="yes"/>
      <point x="171" y="-66"/>
      <point x="107" y="-18"/>
      <point x="78" y="20" type="curve" smooth="yes"/>
      <point x="65" y="37"/>
      <point x="58" y="48"/>
      <point x="47" y="48" type="curve" smooth="yes"/>
      <point x="29" y="48"/>
      <point x="25" y="14"/>
      <point x="25" y="-9" type="curve" smooth="yes"/>
      <point x="25" y="-76"/>
      <point x="142" y="-150"/>
      <point x="273" y="-150" type="curve" smooth="yes"/>
      <point x="527" y="-150"/>
      <point x="612" y="14"/>
      <point x="612" y="248" type="curve" smooth="yes"/>
      <point x="612" y="352"/>
      <point x="598" y="435"/>
      <point x="578" y="496" type="curve" smooth="yes"/>
      <point x="563" y="542"/>
      <point x="550" y="556"/>
      <point x="524" y="556" type="curve" smooth="yes"/>
      <point x="502" y="556"/>
      <point x="475" y="539"/>
      <point x="475" y="510" type="curve" smooth="yes"/>
      <point x="475" y="483"/>
      <point x="525" y="415"/>
    </contour>
  </outline>
</glyph>
<glyph name="DDDII" format="2">
  <advance width="808"/>
  <outline>
    <contour>
      <point x="339" y="621" type="curve"/>
      <point x="33" y="621" type="line" smooth="yes"/>
      <point x="16" y="621"/>
      <point x="5" y="599"/>
      <point x="5" y="579" type="curve" smooth="yes"/>
      <point x="5" y="562"/>
      <point x="13" y="546"/>
      <point x="31" y="546" type="curve" smooth="yes"/>
      <point x="230" y="546" type="line"/>
      <point x="223" y="561" type="line"/>
      <point x="126" y="508"/>
      <point x="75" y="440"/>
      <point x="75" y="376" type="curve" smooth="yes"/>
      <point x="75" y="287"/>
      <point x="150" y="250"/>
      <point x="215" y="235" type="curve"/>
      <point x="219" y="256" type="line"/>
      <point x="160" y="218"/>
      <point x="143" y="168"/>
      <point x="143" y="121" type="curve" smooth="yes"/>
      <point x="143" y="14"/>
      <point x="231" y="-46"/>
      <point x="343" y="-46" type="curve" smooth="yes"/>
      <point x="431" y="-46"/>
      <point x="497" y="-6"/>
      <point x="527" y="23" type="curve" smooth="yes"/>
      <point x="537" y="32"/>
      <point x="540" y="40"/>
      <point x="540" y="51" type="curve" smooth="yes"/>
      <point x="540" y="75"/>
      <point x="516" y="100"/>
      <point x="500" y="100" type="curve" smooth="yes"/>
      <point x="477" y="100"/>
      <point x="430" y="39"/>
      <point x="337" y="39" type="curve" smooth="yes"/>
      <point x="271" y="39"/>
      <point x="232" y="66"/>
      <point x="232" y="116" type="curve" smooth="yes"/>
      <point x="232" y="176"/>
      <point x="298" y="220"/>
      <point x="411" y="261" type="curve" smooth="yes"/>
      <point x="418" y="263"/>
      <point x="423" y="274"/>
      <point x="423" y="284" type="curve" smooth="yes"/>
      <point x="423" y="309"/>
      <point x="401" y="339"/>
      <point x="381" y="339" type="curve" smooth="yes"/>
      <point x="350" y="339"/>
      <point x="305" y="301"/>
      <point x="249" y="301" type="curve" smooth="yes"/>
      <point x="208" y="301"/>
      <point x="170" y="321"/>
      <point x="170" y="368" type="curve" smooth="yes"/>
      <point x="170" y="417"/>
      <point x="225" y="471"/>
      <point x="325" y="523" type="curve" smooth="yes"/>
      <point x="369" y="546"/>
      <point x="401" y="550"/>
      <point x="411" y="570" type="curve" smooth="yes"/>
      <point x="432" y="611"/>
      <point x="473" y="640"/>
      <point x="527" y="640" type="curve" smooth="yes"/>
      <point x="600" y="640"/>
      <point x="633" y="601"/>
      <point x="633" y="517" type="curve" smooth="yes"/>
      <point x="633" y="454"/>
      <point x="622" y="394"/>
      <point x="610" y="333" type="curve" smooth="yes"/>
      <point x="598" y="271"/>
      <point x="586" y="207"/>
      <point x="586" y="139" type="curve" smooth="yes"/>
      <point x="586" y="12"/>
      <point x="647" y="-52"/>
      <point x="731" y="-52" type="curve" smooth="yes"/>
      <point x="754" y="-52"/>
      <point x="776" y="-50"/>
      <point x="797" y="-39" type="curve" smooth="yes"/>
      <point x="803" y="-36"/>
      <point x="805" y="-28"/>
      <point x="805" y="-19" type="curve" smooth="yes"/>
      <point x="805" y="4"/>
      <point x="795" y="33"/>
      <point x="775" y="33" type="curve" smooth="yes"/>
      <point x="766" y="33"/>
      <point x="746" y="28"/>
      <point x="734" y="28" type="curve" smooth="yes"/>
      <point x="690" y="28"/>
      <point x="663" y="48"/>
      <point x="663" y="142" type="curve" smooth="yes"/>
      <point x="663" y="193"/>
      <point x="674" y="252"/>
      <point x="687" y="313" type="curve" smooth="yes"/>
      <point x="702" y="386"/>
      <point x="712" y="442"/>
      <point x="712" y="502" type="curve" smooth="yes"/>
      <point x="712" y="654"/>
      <point x="652" y="720"/>
      <point x="532" y="720" type="curve" smooth="yes"/>
      <point x="423" y="720"/>
      <point x="373" y="674"/>
    </contour>
  </outline>
</glyph>
<glyph name="DDDRII" format="2">
  <advance width="751"/>
  <outline>
    <contour>
      <point x="674" y="-152" type="curve" smooth="yes"/>
      <point x="697" y="-152"/>
      <point x="719" y="-150"/>
      <point x="740" y="-139" type="curve" smooth="yes"/>
      <point x="746" y="-136"/>
      <point x="748" y="-128"/>
      <point x="748" y="-119" type="curve" smooth="yes"/>
      <point x="748" y="-96"/>
      <point x="738" y="-67"/>
      <point x="718" y="-67" type="curve" smooth="yes"/>
      <point x="709" y="-67"/>
      <point x="689" y="-72"/>
      <point x="677" y="-72" type="curve" smooth="yes"/>
      <point x="633" y="-72"/>
      <point x="606" y="-52"/>
      <point x="606" y="42" type="curve" smooth="yes"/>
      <point x="606" y="92"/>
      <point x="616" y="150"/>
      <point x="629" y="212" type="curve" smooth="yes"/>
      <point x="642" y="276"/>
      <point x="655" y="342"/>
      <point x="655" y="402" type="curve" smooth="yes"/>
      <point x="655" y="554"/>
      <point x="595" y="620"/>
      <point x="475" y="620" type="curve" smooth="yes"/>
      <point x="366" y="620"/>
      <point x="316" y="574"/>
      <point x="282" y="521" type="curve"/>
      <point x="354" y="470" type="line"/>
      <point x="375" y="511"/>
      <point x="416" y="540"/>
      <point x="470" y="540" type="curve" smooth="yes"/>
      <point x="543" y="540"/>
      <point x="576" y="501"/>
      <point x="576" y="417" type="curve" smooth="yes"/>
      <point x="576" y="355"/>
      <point x="565" y="294"/>
      <point x="553" y="234" type="curve" smooth="yes"/>
      <point x="540" y="171"/>
      <point x="529" y="108"/>
      <point x="529" y="39" type="curve" smooth="yes"/>
      <point x="529" y="-88"/>
      <point x="590" y="-152"/>
    </contour>
    <contour>
      <point x="410" y="-147" type="curve" smooth="yes"/>
      <point x="443" y="-147"/>
      <point x="477" y="-140"/>
      <point x="498" y="-129" type="curve" smooth="yes"/>
      <point x="504" y="-126"/>
      <point x="506" y="-118"/>
      <point x="506" y="-109" type="curve" smooth="yes"/>
      <point x="506" y="-86"/>
      <point x="496" y="-57"/>
      <point x="476" y="-57" type="curve" smooth="yes"/>
      <point x="467" y="-57"/>
      <point x="443" y="-66"/>
      <point x="413" y="-66" type="curve" smooth="yes"/>
      <point x="294" y="-66"/>
      <point x="307" y="26"/>
      <point x="205" y="63" type="curve"/>
      <point x="141" y="19" type="line"/>
      <point x="264" y="4"/>
      <point x="258" y="-147"/>
    </contour>
    <contour>
      <point x="158" y="1" type="curve" smooth="yes"/>
      <point x="298" y="1"/>
      <point x="400" y="67"/>
      <point x="400" y="170" type="curve" smooth="yes"/>
      <point x="400" y="231"/>
      <point x="369" y="275"/>
      <point x="299" y="300" type="curve"/>
      <point x="307" y="281" type="line"/>
      <point x="349" y="306"/>
      <point x="369" y="357"/>
      <point x="369" y="400" type="curve" smooth="yes"/>
      <point x="369" y="505"/>
      <point x="290" y="558"/>
      <point x="183" y="558" type="curve" smooth="yes"/>
      <point x="112" y="558"/>
      <point x="20" y="523"/>
      <point x="20" y="483" type="curve" smooth="yes"/>
      <point x="20" y="463"/>
      <point x="38" y="438"/>
      <point x="60" y="438" type="curve" smooth="yes"/>
      <point x="91" y="438"/>
      <point x="128" y="479"/>
      <point x="206" y="479" type="curve" smooth="yes"/>
      <point x="266" y="479"/>
      <point x="296" y="451"/>
      <point x="296" y="407" type="curve" smooth="yes"/>
      <point x="296" y="347"/>
      <point x="243" y="318"/>
      <point x="140" y="315" type="curve"/>
      <point x="126" y="312"/>
      <point x="120" y="298"/>
      <point x="120" y="283" type="curve" smooth="yes"/>
      <point x="120" y="263"/>
      <point x="133" y="238"/>
      <point x="163" y="238" type="curve" smooth="yes"/>
      <point x="207" y="238"/>
      <point x="261" y="251"/>
      <point x="282" y="266" type="curve"/>
      <point x="248" y="260" type="line"/>
      <point x="302" y="250"/>
      <point x="321" y="216"/>
      <point x="321" y="182" type="curve" smooth="yes"/>
      <point x="321" y="118"/>
      <point x="265" y="81"/>
      <point x="149" y="78" type="curve"/>
      <point x="196" y="74" type="line"/>
      <point x="148" y="95"/>
      <point x="130" y="100"/>
      <point x="103" y="100" type="curve" smooth="yes"/>
      <point x="76" y="100"/>
      <point x="60" y="85"/>
      <point x="60" y="57" type="curve" smooth="yes"/>
      <point x="60" y="16"/>
      <point x="107" y="1"/>
    </contour>
  </outline>
</glyph>
<glyph name="DDDRU" format="2">
  <advance width="627"/>
  <note>
DRU
</note>
  <outline>
    <contour>
      <point x="263" y="11" type="curve" smooth="yes"/>
      <point x="403" y="11"/>
      <point x="495" y="77"/>
      <point x="495" y="170" type="curve" smooth="yes"/>
      <point x="495" y="231"/>
      <point x="464" y="275"/>
      <point x="394" y="300" type="curve"/>
      <point x="402" y="281" type="line"/>
      <point x="444" y="306"/>
      <point x="464" y="357"/>
      <point x="464" y="400" type="curve" smooth="yes"/>
      <point x="464" y="505"/>
      <point x="385" y="558"/>
      <point x="278" y="558" type="curve" smooth="yes"/>
      <point x="207" y="558"/>
      <point x="115" y="523"/>
      <point x="115" y="483" type="curve" smooth="yes"/>
      <point x="115" y="463"/>
      <point x="133" y="438"/>
      <point x="155" y="438" type="curve" smooth="yes"/>
      <point x="167" y="438"/>
      <point x="181" y="444"/>
      <point x="197" y="452" type="curve" smooth="yes"/>
      <point x="222" y="464"/>
      <point x="254" y="479"/>
      <point x="301" y="479" type="curve" smooth="yes"/>
      <point x="361" y="479"/>
      <point x="391" y="451"/>
      <point x="391" y="407" type="curve" smooth="yes"/>
      <point x="391" y="347"/>
      <point x="338" y="318"/>
      <point x="235" y="315" type="curve"/>
      <point x="221" y="312"/>
      <point x="215" y="298"/>
      <point x="215" y="283" type="curve" smooth="yes"/>
      <point x="215" y="263"/>
      <point x="228" y="238"/>
      <point x="258" y="238" type="curve" smooth="yes"/>
      <point x="302" y="238"/>
      <point x="356" y="251"/>
      <point x="377" y="266" type="curve"/>
      <point x="343" y="260" type="line"/>
      <point x="397" y="250"/>
      <point x="416" y="216"/>
      <point x="416" y="182" type="curve" smooth="yes"/>
      <point x="416" y="128"/>
      <point x="370" y="91"/>
      <point x="254" y="88" type="curve"/>
      <point x="301" y="84" type="line"/>
      <point x="253" y="105"/>
      <point x="235" y="110"/>
      <point x="208" y="110" type="curve" smooth="yes"/>
      <point x="181" y="110"/>
      <point x="165" y="95"/>
      <point x="165" y="67" type="curve" smooth="yes"/>
      <point x="165" y="26"/>
      <point x="212" y="11"/>
    </contour>
    <contour>
      <point x="481" y="-90" type="curve"/>
      <point x="462" y="-94" type="line"/>
      <point x="477" y="-123"/>
      <point x="511" y="-147"/>
      <point x="563" y="-147" type="curve" smooth="yes"/>
      <point x="596" y="-147"/>
      <point x="628" y="-140"/>
      <point x="649" y="-129" type="curve" smooth="yes"/>
      <point x="655" y="-126"/>
      <point x="657" y="-118"/>
      <point x="657" y="-109" type="curve" smooth="yes"/>
      <point x="657" y="-86"/>
      <point x="647" y="-57"/>
      <point x="627" y="-57" type="curve" smooth="yes"/>
      <point x="618" y="-57"/>
      <point x="594" y="-66"/>
      <point x="564" y="-66" type="curve" smooth="yes"/>
      <point x="522" y="-66"/>
      <point x="502" y="-49"/>
      <point x="489" y="-9" type="curve" smooth="yes"/>
      <point x="472" y="43"/>
      <point x="448" y="78"/>
      <point x="389" y="95" type="curve"/>
      <point x="350" y="48" type="line"/>
      <point x="381" y="42"/>
      <point x="416" y="22"/>
      <point x="416" y="-27" type="curve" smooth="yes"/>
      <point x="416" y="-74"/>
      <point x="379" y="-107"/>
      <point x="278" y="-107" type="curve" smooth="yes"/>
      <point x="190" y="-107"/>
      <point x="121" y="-73"/>
      <point x="73" y="9" type="curve" smooth="yes"/>
      <point x="50" y="48"/>
      <point x="40" y="79"/>
      <point x="23" y="79" type="curve" smooth="yes"/>
      <point x="5" y="79"/>
      <point x="0" y="47"/>
      <point x="0" y="18" type="curve" smooth="yes"/>
      <point x="0" y="-48"/>
      <point x="93" y="-189"/>
      <point x="289" y="-189" type="curve" smooth="yes"/>
      <point x="404" y="-189"/>
      <point x="461" y="-146"/>
    </contour>
  </outline>
</glyph>
